<svg width="123" height="101" viewBox="0 0 123 101" fill="none" xmlns="http://www.w3.org/2000/svg">
<path d="M23.8 93.9L22.1 97.3C21.9867 97.0733 21.7033 96.5067 21.25 95.6C20.91 94.6933 20.6267 94.1267 20.4 93.9C20.2867 93.7867 19.9467 93.5033 19.38 93.05C18.9267 92.5967 18.7 92.3133 18.7 92.2C18.7 92.0867 18.7567 91.8033 18.87 91.35C19.0967 90.7833 19.3233 90.2167 19.55 89.65C19.7767 89.0833 19.9467 88.5733 20.06 88.12C20.2867 87.5533 20.4 87.2133 20.4 87.1V86.25V85.4C20.2867 85.1733 20.0033 84.89 19.55 84.55C19.21 84.0967 18.9267 83.8133 18.7 83.7L22.1 76.9C22.1 76.7867 22.1 76.3333 22.1 75.54C22.2133 74.7467 22.27 73.84 22.27 72.82C22.27 71.8 22.27 70.78 22.27 69.76C22.3833 68.6267 22.44 67.72 22.44 67.04C22.44 66.2467 22.3833 65.1133 22.27 63.64C22.27 62.1667 22.27 60.6933 22.27 59.22C22.27 57.7467 22.2133 56.4433 22.1 55.31C22.1 54.0633 22.1 53.3267 22.1 53.1C22.1 52.8733 21.8733 52.1367 21.42 50.89C20.9667 49.53 20.6267 48.5667 20.4 48L18.7 46.3C18.7 46.3 18.6433 46.1867 18.53 45.96C18.53 45.7333 18.53 45.5633 18.53 45.45C18.53 45.3367 18.53 45.1667 18.53 44.94C18.6433 44.7133 18.7 44.6 18.7 44.6L20.4 42.9V42.22C20.4 37.0067 19.8333 33.6067 18.7 32.02C17.68 30.4333 16.2067 29.64 14.28 29.64C13.4867 29.64 12.58 29.64 11.56 29.64C10.54 29.64 9.46333 29.47 8.33 29.13C7.19667 28.79 6.06333 28.28 4.93 27.6C3.79667 26.8067 2.72 25.6733 1.7 24.2C2.04 23.86 2.60667 23.2367 3.4 22.33C4.19333 21.31 5.04333 20.2333 5.95 19.1C6.85667 17.9667 7.70667 16.9467 8.5 16.04C9.29333 15.02 9.86 14.34 10.2 14C10.4267 13.7733 10.71 13.4333 11.05 12.98C11.5033 12.5267 11.7867 12.3 11.9 12.3H12.75H13.6C13.7133 12.3 13.9967 12.4133 14.45 12.64C15.0167 12.7533 15.5833 12.9233 16.15 13.15C16.7167 13.3767 17.2267 13.6033 17.68 13.83C18.2467 13.9433 18.5867 14 18.7 14C19.1533 13.8867 19.7767 13.4333 20.57 12.64C21.4767 11.7333 21.9867 11.0533 22.1 10.6V12.3C23.8 12.0733 25.1033 11.3933 26.01 10.26C27.03 9.12667 28.05 7.93666 29.07 6.68999C30.09 5.33 31.28 4.14 32.64 3.12C34 2.1 35.87 1.59 38.25 1.59C38.7033 1.59 39.6667 1.64666 41.14 1.76C42.7267 1.87333 43.7467 1.98666 44.2 2.09999C45.1067 4.36666 45.6167 6.29333 45.73 7.88C45.9567 9.35333 46.07 11.1667 46.07 13.32C46.07 14.68 45.7867 15.8133 45.22 16.72C44.6533 17.6267 44.03 18.4767 43.35 19.27C42.67 20.0633 42.0467 20.9133 41.48 21.82C40.9133 22.7267 40.63 23.8033 40.63 25.05C40.63 25.1633 40.63 25.3333 40.63 25.56C40.7433 25.7867 40.8 25.9 40.8 25.9L45.9 31C45.9 31 45.9 31.1133 45.9 31.34C46.0133 31.4533 46.07 31.6233 46.07 31.85C46.07 33.6633 45.73 35.25 45.05 36.61C44.37 37.97 44.03 39.7833 44.03 42.05V46.81C44.03 48.6233 44.6533 50.1533 45.9 51.4V78.6C45.22 79.5067 44.2 80.9233 42.84 82.85C41.48 84.7767 40.8 86.4767 40.8 87.95C40.8 88.7433 40.97 89.4233 41.31 89.99C41.7633 90.4433 42.16 90.9533 42.5 91.52C42.9533 91.9733 43.35 92.54 43.69 93.22C44.1433 93.7867 44.37 94.58 44.37 95.6C44.37 95.8267 44.3133 96.3933 44.2 97.3C44.2 98.2067 44.2 98.7733 44.2 99C44.0867 98.7733 43.8033 98.49 43.35 98.15C43.01 97.6967 42.7267 97.4133 42.5 97.3H41.65H40.8C40.5733 97.4133 40.0067 97.6967 39.1 98.15C38.1933 98.49 37.6267 98.7733 37.4 99H39.1C37.6267 98.32 36.3233 97.81 35.19 97.47C34.0567 97.13 32.9233 96.8467 31.79 96.62C30.6567 96.3933 29.4667 96.11 28.22 95.77C26.9733 95.3167 25.5 94.6933 23.8 93.9ZM42.5 92.2C41.5933 92.2 41.14 92.7667 41.14 93.9C41.14 95.0333 41.5933 95.6 42.5 95.6C43.4067 95.6 43.86 95.0333 43.86 93.9C43.86 92.7667 43.4067 92.2 42.5 92.2ZM12.75 76.73C12.8633 76.73 13.0333 76.7867 13.26 76.9C13.4867 76.9 13.6 76.9 13.6 76.9C13.94 77.1267 14.5067 77.6933 15.3 78.6C16.2067 79.3933 16.7733 79.96 17 80.3L10.2 83.7C10.2 83.5867 10.1433 83.36 10.03 83.02C10.03 82.5667 10.03 82.2267 10.03 82C10.03 81.0933 10.1433 80.0167 10.37 78.77C10.71 77.41 11.5033 76.73 12.75 76.73ZM22.1 80.3C21.1933 80.3 20.74 80.8667 20.74 82C20.74 83.1333 21.1933 83.7 22.1 83.7C23.0067 83.7 23.46 83.1333 23.46 82C23.46 80.8667 23.0067 80.3 22.1 80.3ZM39.1 80.3C38.1933 80.3 37.74 80.8667 37.74 82C37.74 83.1333 38.1933 83.7 39.1 83.7C40.0067 83.7 40.46 83.1333 40.46 82C40.46 80.8667 40.0067 80.3 39.1 80.3ZM45.9 80.3C46.8067 80.3 47.26 80.8667 47.26 82C47.26 83.1333 46.8067 83.7 45.9 83.7C44.9933 83.7 44.54 83.1333 44.54 82C44.54 80.8667 44.9933 80.3 45.9 80.3ZM45.9 44.6C46.8067 44.6 47.26 45.1667 47.26 46.3C47.26 47.4333 46.8067 48 45.9 48C44.9933 48 44.54 47.4333 44.54 46.3C44.54 45.1667 44.9933 44.6 45.9 44.6ZM1.7 19.1C2.60667 19.1 3.06 19.6667 3.06 20.8C3.06 21.9333 2.60667 22.5 1.7 22.5C0.793333 22.5 0.34 21.9333 0.34 20.8C0.34 19.6667 0.793333 19.1 1.7 19.1ZM5.1 15.7C6.00667 15.7 6.46 16.2667 6.46 17.4C6.46 18.5333 6.00667 19.1 5.1 19.1C4.19333 19.1 3.74 18.5333 3.74 17.4C3.74 16.2667 4.19333 15.7 5.1 15.7ZM13.6 14C12.6933 14 12.24 14.5667 12.24 15.7C12.24 16.8333 12.6933 17.4 13.6 17.4C14.5067 17.4 14.96 16.8333 14.96 15.7C14.96 14.5667 14.5067 14 13.6 14ZM98.6465 97.3C99.5532 97.3 100.006 97.8667 100.006 99C100.006 100.02 99.5532 100.53 98.6465 100.53C97.7398 100.53 97.2865 100.02 97.2865 99C97.2865 97.8667 97.7398 97.3 98.6465 97.3ZM64.4765 66.36C64.4765 66.2467 64.4198 65.9067 64.3065 65.34C64.3065 64.7733 64.3632 64.2633 64.4765 63.81C64.5898 63.2433 64.7598 62.7333 64.9865 62.28C65.3265 61.8267 65.7798 61.6 66.3465 61.6H78.2465L74.8465 65C74.9598 65.2267 75.1865 65.5667 75.5265 66.02C75.9798 66.36 76.3198 66.5867 76.5465 66.7H77.3965H78.2465C78.8132 66.4733 79.7198 66.19 80.9665 65.85C82.3265 65.3967 83.1198 65.1133 83.3465 65C83.5732 64.8867 83.4598 64.6033 83.0065 64.15C82.6665 63.6967 82.4965 63.4133 82.4965 63.3H79.9465C80.1732 62.1667 80.9665 61.6 82.3265 61.6C83.7998 61.4867 84.8198 61.43 85.3865 61.43C87.5398 61.43 88.8432 61.8833 89.2965 62.79C89.7498 63.5833 89.9765 65.1133 89.9765 67.38C91.5632 67.38 92.9232 67.4367 94.0565 67.55C95.1898 67.55 96.0965 67.38 96.7765 67.04C97.4565 66.5867 97.9665 65.9067 98.3065 65C98.6465 63.98 98.8165 62.45 98.8165 60.41C98.8165 59.73 98.7598 58.71 98.6465 57.35C98.6465 55.8767 98.6465 55.0267 98.6465 54.8C98.6465 54.6867 98.5332 54.29 98.3065 53.61C98.1932 52.93 98.0232 52.25 97.7965 51.57C97.5698 50.7767 97.3432 50.04 97.1165 49.36C97.0032 48.68 96.9465 48.2267 96.9465 48C96.9465 47.7733 97.2298 47.2067 97.7965 46.3C98.4765 45.3933 98.7598 44.8267 98.6465 44.6C98.3065 43.3533 97.6265 42.4467 96.6065 41.88C95.5865 41.2 94.5098 40.86 93.3765 40.86C92.3565 40.86 91.5632 41.37 90.9965 42.39C90.5432 43.2967 89.9198 44.3167 89.1265 45.45C88.4465 46.47 87.4265 47.49 86.0665 48.51C84.8198 49.4167 82.8365 49.87 80.1165 49.87C79.6632 49.87 78.6998 49.87 77.2265 49.87C75.7532 49.7567 74.1665 49.6433 72.4665 49.53C70.8798 49.4167 69.4632 49.2467 68.2165 49.02C66.9698 48.7933 66.3465 48.4533 66.3465 48V24.2C65.3265 23.52 64.4765 22.7267 63.7965 21.82C63.2298 20.9133 62.6632 20.0067 62.0965 19.1C61.5298 18.08 60.9065 17.06 60.2265 16.04C59.6598 15.02 58.8665 14.0567 57.8465 13.15H66.3465V0.399993H117.176L119.046 14C119.16 14.9067 118.706 15.4733 117.686 15.7C116.78 15.8133 116.1 15.87 115.646 15.87C115.42 15.87 115.08 15.87 114.626 15.87C114.286 15.7567 114.06 15.7 113.946 15.7C113.72 15.5867 113.153 15.3033 112.246 14.85C111.34 14.2833 110.773 14 110.546 14C110.32 14 109.753 14.2833 108.846 14.85C107.94 15.4167 107.373 15.7 107.146 15.7C106.466 15.7 105.333 15.7567 103.746 15.87C102.16 15.87 100.46 15.87 98.6465 15.87C96.8332 15.87 95.1332 15.87 93.5465 15.87C91.9598 15.7567 90.8265 15.7 90.1465 15.7L88.4465 17.4L90.1465 19.1C89.5798 19.2133 89.1265 19.4967 88.7865 19.95C88.5598 20.4033 88.3898 20.9133 88.2765 21.48C88.1632 22.0467 88.1065 22.6133 88.1065 23.18C88.2198 23.7467 88.2765 24.2 88.2765 24.54C88.2765 25.7867 88.3898 26.92 88.6165 27.94C88.8432 28.8467 89.9198 29.3 91.8465 29.3C93.2065 29.3 94.1132 28.96 94.5665 28.28C95.0198 27.4867 95.3032 26.6933 95.4165 25.9C95.6432 24.9933 95.8132 24.2 95.9265 23.52C96.1532 22.7267 96.7198 22.33 97.6265 22.33C99.2132 22.33 100.63 22.7267 101.876 23.52C103.123 24.3133 104.71 24.71 106.636 24.71C106.636 26.8633 107.373 28.45 108.846 29.47C110.433 30.3767 112.133 31.34 113.946 32.36C115.873 33.2667 117.686 34.4567 119.386 35.93C121.086 37.4033 122.106 39.7267 122.446 42.9C120.86 42.3333 119.556 42.39 118.536 43.07C117.63 43.75 117.176 44.8267 117.176 46.3C117.176 47.32 117.403 48.2267 117.856 49.02C118.31 49.7 118.82 50.38 119.386 51.06C120.066 51.6267 120.69 52.1933 121.256 52.76C121.823 53.3267 122.22 54.0067 122.446 54.8C122.56 55.5933 122.39 56.5 121.936 57.52C121.596 58.4267 121.086 59.39 120.406 60.41C119.84 61.3167 119.216 62.2233 118.536 63.13C117.97 63.9233 117.573 64.5467 117.346 65C117.346 65 117.29 65.1133 117.176 65.34C117.176 65.5667 117.176 65.7367 117.176 65.85C117.176 66.0767 117.176 66.3033 117.176 66.53C117.29 66.6433 117.346 66.7 117.346 66.7C117.573 66.9267 118.14 67.2667 119.046 67.72C119.953 68.06 120.52 68.2867 120.746 68.4C120.973 68.6267 121.313 68.9667 121.766 69.42C122.22 69.76 122.446 69.9867 122.446 70.1V85.4C122.446 86.1933 121.88 87.1567 120.746 88.29C119.613 89.31 118.253 90.33 116.666 91.35C115.193 92.37 113.72 93.2767 112.246 94.07C110.773 94.8633 109.64 95.3733 108.846 95.6H107.996H107.146L108.846 93.9C108.28 92.4267 107.6 91.86 106.806 92.2C106.013 92.54 105.106 92.71 104.086 92.71C104.086 93.1633 103.973 93.5033 103.746 93.73C103.633 93.8433 103.576 94.0133 103.576 94.24C103.576 94.3533 103.69 94.5233 103.916 94.75C104.143 94.8633 104.653 95.1467 105.446 95.6C105.333 95.8267 105.05 96.1667 104.596 96.62C104.256 96.96 103.973 97.1867 103.746 97.3H102.896H102.046C101.82 97.1867 101.253 96.9033 100.346 96.45C99.4398 95.8833 98.8732 95.6 98.6465 95.6C98.5332 95.6 98.2498 95.8833 97.7965 96.45C97.3432 97.0167 97.0598 97.3 96.9465 97.3C96.8332 97.3 96.3798 97.3567 95.5865 97.47C94.7932 97.47 94.1132 97.47 93.5465 97.47C92.5265 97.47 91.6198 97.3 90.8265 96.96C90.0332 96.5067 89.2398 96.0533 88.4465 95.6C87.7665 95.1467 87.0298 94.75 86.2365 94.41C85.5565 93.9567 84.8765 93.73 84.1965 93.73C83.9698 93.73 83.7432 93.7867 83.5165 93.9C83.4032 93.9 83.3465 93.9 83.3465 93.9C83.1198 94.1267 82.7798 94.6933 82.3265 95.6C81.8732 96.3933 81.6465 96.96 81.6465 97.3C78.1332 96.1667 75.2432 94.5233 72.9765 92.37C70.8232 90.2167 69.0665 87.78 67.7065 85.06C66.4598 82.34 65.6098 79.3933 65.1565 76.22C64.7032 72.9333 64.4765 69.6467 64.4765 66.36ZM117.346 92.2C117.573 92.7667 117.46 93.2767 117.006 93.73C116.666 94.07 116.213 94.1267 115.646 93.9C115.42 93.7867 115.306 93.6167 115.306 93.39C115.42 93.05 115.59 92.7667 115.816 92.54C116.156 92.2 116.44 92.03 116.666 92.03C117.006 91.9167 117.233 91.9733 117.346 92.2ZM76.5465 87.1V88.8H81.6465C81.3065 87.8933 80.7965 87.3833 80.1165 87.27C79.5498 87.0433 78.9265 86.93 78.2465 86.93C78.0198 86.93 77.6798 86.9867 77.2265 87.1C76.8865 87.1 76.6598 87.1 76.5465 87.1ZM96.9465 82C96.0398 82 95.5865 82.5667 95.5865 83.7C95.5865 84.8333 96.0398 85.4 96.9465 85.4C97.8532 85.4 98.3065 84.8333 98.3065 83.7C98.3065 82.5667 97.8532 82 96.9465 82ZM89.6365 71.8V74.35C89.6365 75.9367 89.8632 77.6367 90.3165 79.45C90.7698 81.2633 91.7898 82.17 93.3765 82.17C93.7165 82.17 94.1698 82.17 94.7365 82.17C95.3032 82.0567 95.8698 81.9433 96.4365 81.83C97.0032 81.7167 97.5132 81.5467 97.9665 81.32C98.4198 80.98 98.6465 80.64 98.6465 80.3V71.8H89.6365ZM52.4065 65.68C53.1998 65.68 54.1632 66.1333 55.2965 67.04C56.5432 67.8333 57.7332 68.7967 58.8665 69.93C59.9998 71.0633 60.9632 72.2533 61.7565 73.5C62.6632 74.6333 63.1165 75.4833 63.1165 76.05C63.1165 76.1633 63.0598 76.3333 62.9465 76.56C62.9465 76.7867 62.9465 76.9 62.9465 76.9C62.8332 77.1267 62.5498 77.4667 62.0965 77.92C61.7565 78.26 61.4732 78.4867 61.2465 78.6C61.2465 78.6 61.1332 78.6567 60.9065 78.77C60.6798 78.77 60.5098 78.77 60.3965 78.77C59.0365 78.77 57.8465 78.3167 56.8265 77.41C55.8065 76.39 54.9565 75.2 54.2765 73.84C53.7098 72.3667 53.2565 70.8933 52.9165 69.42C52.5765 67.9467 52.4065 66.7 52.4065 65.68ZM86.7465 75.2C86.1798 74.9733 85.8965 75.2567 85.8965 76.05C85.8965 76.73 86.1798 77.0133 86.7465 76.9C87.3132 76.7867 87.5965 76.5033 87.5965 76.05C87.5965 75.71 87.3132 75.4267 86.7465 75.2ZM95.2465 73.5C96.1532 73.5 96.6065 74.0667 96.6065 75.2C96.6065 76.3333 96.1532 76.9 95.2465 76.9C94.3398 76.9 93.8865 76.3333 93.8865 75.2C93.8865 74.0667 94.3398 73.5 95.2465 73.5ZM86.7465 63.3L85.0465 66.7C85.2732 66.5867 85.5565 66.36 85.8965 66.02C86.3498 65.5667 86.6332 65.2267 86.7465 65C86.7465 65 86.7465 64.8867 86.7465 64.66C86.8598 64.4333 86.9165 64.2633 86.9165 64.15C86.9165 64.0367 86.8598 63.9233 86.7465 63.81C86.7465 63.5833 86.7465 63.4133 86.7465 63.3ZM106.806 52.08C106.806 52.76 106.863 53.5533 106.976 54.46C107.203 55.3667 107.486 56.2733 107.826 57.18C108.28 57.9733 108.79 58.6533 109.356 59.22C109.923 59.7867 110.603 60.07 111.396 60.07C111.51 60.07 111.68 60.07 111.906 60.07C112.133 59.9567 112.246 59.9 112.246 59.9C112.586 59.6733 113.153 59.1633 113.946 58.37C114.853 57.4633 115.42 56.84 115.646 56.5C114.966 54.6867 113.72 53.4967 111.906 52.93C110.093 52.3633 108.393 52.08 106.806 52.08ZM49.3465 53.1L51.0465 54.8H49.3465V53.1ZM90.1465 48C91.0532 48 91.5065 48.5667 91.5065 49.7C91.5065 50.8333 91.0532 51.4 90.1465 51.4C89.2398 51.4 88.7865 50.8333 88.7865 49.7C88.7865 48.5667 89.2398 48 90.1465 48ZM56.1465 44.6C57.0532 44.6 57.5065 45.1667 57.5065 46.3C57.5065 47.4333 57.0532 48 56.1465 48C55.2398 48 54.7865 47.4333 54.7865 46.3C54.7865 45.1667 55.2398 44.6 56.1465 44.6ZM91.8465 37.8C91.7332 37.5733 91.5065 37.5167 91.1665 37.63C90.9398 37.63 90.6565 37.8 90.3165 38.14C90.0898 38.3667 89.9198 38.65 89.8065 38.99C89.8065 39.2167 89.9198 39.3867 90.1465 39.5C90.7132 39.7267 91.1665 39.67 91.5065 39.33C91.9598 38.8767 92.0732 38.3667 91.8465 37.8ZM90.1465 36.1C90.0332 35.8733 89.8065 35.8167 89.4665 35.93C89.2398 35.93 88.9565 36.1 88.6165 36.44C88.3898 36.6667 88.2198 36.95 88.1065 37.29C88.1065 37.5167 88.2198 37.6867 88.4465 37.8C89.0132 38.0267 89.4665 37.97 89.8065 37.63C90.2598 37.1767 90.3732 36.6667 90.1465 36.1ZM98.6465 24.2C97.7398 24.2 97.2865 24.7667 97.2865 25.9C97.2865 27.0333 97.7398 27.6 98.6465 27.6C99.5532 27.6 100.006 27.0333 100.006 25.9C100.006 24.7667 99.5532 24.2 98.6465 24.2ZM85.0465 17.4C85.2732 16.8333 84.9898 16.55 84.1965 16.55C83.5165 16.55 83.2332 16.8333 83.3465 17.4C83.4598 17.9667 83.7432 18.25 84.1965 18.25C84.5365 18.25 84.8198 17.9667 85.0465 17.4Z" fill="#7E8593"/>
</svg>
