<svg width="105" height="65" viewBox="0 0 105 65" fill="none" xmlns="http://www.w3.org/2000/svg">
<path d="M24.32 61.2C24.2667 61.3067 24.2133 61.44 24.16 61.6C24.1067 61.7067 24 61.84 23.84 62C23.4667 62.64 22.8533 63.12 22 63.44C21.2 63.76 20.2133 63.9467 19.04 64C18.6667 64 18.1867 64 17.6 64C17.0133 63.9467 16.2933 63.8667 15.44 63.76C14.64 63.6 13.9467 63.4933 13.36 63.44C12.8267 63.3867 12.3467 63.36 11.92 63.36C11.3333 62.9867 10.88 62.5067 10.56 61.92C10.24 61.3333 10.08 60.6667 10.08 59.92C10.08 59.8133 10.08 59.68 10.08 59.52C10.08 59.36 10.1067 59.2267 10.16 59.12L10.56 58.64L10.4 58.4C10.4 51.4667 10.5067 46.2667 10.72 42.8C10.9333 39.28 11.0933 37.6 11.2 37.76C11.1467 36.7467 11.0133 34.72 10.8 31.68C10.64 28.64 10.4267 24.5867 10.16 19.52C10.16 19.3067 9.94667 18.96 9.52 18.48C9.09333 18.1067 8.42667 17.7867 7.52 17.52C6.61333 17.2533 5.46667 16.96 4.08 16.64C1.57333 16.16 0.32 15.2533 0.32 13.92C0.32 13.8133 0.373333 13.52 0.48 13.04C0.64 12.5067 0.853333 11.8133 1.12 10.96C1.28 10.5867 1.46667 10.2933 1.68 10.08C1.89333 9.86666 2.13333 9.73333 2.4 9.68C3.41333 9.41333 4 9.25333 4.16 9.2C4.42667 9.36 4.66667 9.44 4.88 9.44C5.52 9.44 6.34667 9.01333 7.36 8.16C7.89333 7.68 8.34667 7.33333 8.72 7.12C9.14667 6.85333 9.52 6.72 9.84 6.72C11.44 4.53333 12.9333 2.88 14.32 1.76C15.7067 0.586665 16.9867 0.0266654 18.16 0.079998C19.2267 0.0266654 20.2933 0.346664 21.36 1.04C21.4667 0.986663 21.6267 0.959996 21.84 0.959996C22.2667 0.959996 22.96 1.41333 23.92 2.32C24.08 3.38666 24.1867 4.18666 24.24 4.72C24.2933 5.2 24.3733 5.49333 24.48 5.6C24.16 11.04 23.9733 15.5733 23.92 19.2C23.92 22.7733 23.9467 25.5733 24 27.6C24 28.3467 23.9733 29.0133 23.92 29.6C23.8667 30.1867 23.76 30.72 23.6 31.2C23.76 36.4267 23.8667 40.4267 23.92 43.2C23.9733 45.92 23.9733 47.3333 23.92 47.44C23.92 47.8133 23.76 48.16 23.44 48.48L24.32 59.52C24.0533 59.6267 23.92 59.7867 23.92 60C23.92 60.16 23.9733 60.3733 24.08 60.64C24.24 60.8533 24.32 61.04 24.32 61.2ZM19.44 10.72H18.8V11.36H19.44V10.72ZM22.88 15.04H22.16V15.68H22.88V15.04ZM13.84 9.92H13.2V10.56H13.84V9.92ZM18.8 20.4H18.32L18.8 20.88V20.4ZM14.72 18.88H14V19.52H14.72V18.88ZM17.44 24.24L17.04 24.72L17.44 25.12L17.92 24.72L17.44 24.24ZM16.16 26H15.76L16.16 26.4V26ZM18.32 31.12H17.44L18.32 31.6V31.12ZM12.56 31.12C12.1867 31.12 11.9733 31.28 11.92 31.6L12.32 32H12.56C12.4533 32 12.8 31.7067 13.6 31.12H12.56ZM19.44 38.64H18.8V39.28H19.44V38.64ZM14 53.04H13.2L14 53.52V53.04ZM65.0313 43.12C65.0846 43.2267 65.0579 43.5733 64.9513 44.16C64.8979 44.7467 64.7379 45.6267 64.4713 46.8C64.2579 48.8267 63.9646 50.6667 63.5913 52.32C63.2179 53.92 62.7379 55.36 62.1513 56.64C61.6179 57.8667 60.9513 58.96 60.1513 59.92C59.3513 60.8267 58.4179 61.6 57.3513 62.24C56.8179 62.4533 56.1246 62.6667 55.2713 62.88C54.4179 63.04 53.3513 63.2533 52.0713 63.52C50.9513 63.7333 49.9379 63.8667 49.0313 63.92C48.1779 63.9733 47.4313 63.9467 46.7913 63.84C43.9646 63.9467 41.5646 63.68 39.5913 63.04C37.6713 62.4 35.9379 61.3867 34.3913 60C33.9646 59.5733 33.5379 59.04 33.1113 58.4C32.7379 57.7067 32.3379 56.8533 31.9113 55.84C31.5379 54.88 31.1646 54.0533 30.7913 53.36C30.4179 52.6667 30.0446 52.1333 29.6712 51.76C29.9379 51.3867 30.0713 51.0133 30.0713 50.64C30.0713 50.48 30.0179 50.2667 29.9113 50C29.8046 49.7333 29.6979 49.4667 29.5913 49.2C29.4846 48.88 29.3779 48.56 29.2713 48.24C29.1646 47.92 29.1113 47.6533 29.1113 47.44C29.1113 47.2267 29.1379 47.0133 29.1913 46.8C29.2979 46.5867 29.4579 46.3733 29.6712 46.16C29.3513 45.84 29.1913 45.4133 29.1913 44.88C29.1913 44.8267 29.2179 44.64 29.2713 44.32C29.3779 43.9467 29.4846 43.44 29.5913 42.8C30.6046 42.32 31.6713 41.9467 32.7913 41.68C33.9646 41.36 35.1646 41.1733 36.3913 41.12C37.8313 41.1733 39.0579 41.36 40.0713 41.68C41.1379 42 41.9913 42.48 42.6313 43.12C42.5779 43.3867 42.5246 43.6533 42.4713 43.92C42.4713 44.1867 42.4979 44.4533 42.5513 44.72C42.4446 46.4267 42.7913 47.9467 43.5913 49.28C44.0179 50.1867 44.4979 50.88 45.0313 51.36C45.5646 51.7867 46.2313 52.0267 47.0312 52.08C49.2713 52.0267 50.8179 50.7733 51.6713 48.32C51.3513 47.84 51.1913 47.3333 51.1913 46.8C51.1913 46.5867 51.2446 46.3467 51.3513 46.08C51.4579 45.76 51.5646 45.44 51.6713 45.12C51.8313 44.7467 51.9379 44.4267 51.9913 44.16C52.0979 43.84 52.1513 43.5467 52.1513 43.28C52.1513 43.28 52.1513 43.2533 52.1513 43.2C52.1513 43.0933 52.1246 42.9333 52.0713 42.72C51.7513 42.4533 51.5913 42 51.5913 41.36C51.5913 40.1333 51.6179 39.5733 51.6713 39.68H51.9113C51.8579 39.68 52.2046 39.3867 52.9513 38.8C53.0046 38.64 52.8713 38.3733 52.5513 38H51.6713C51.7779 37.5733 51.8046 37.1467 51.7513 36.72C51.8579 34.2133 50.9513 32.48 49.0313 31.52C48.6579 30.88 47.9913 30.56 47.0312 30.56C45.2179 30.56 43.9113 31.36 43.1113 32.96C42.5779 33.8133 42.1246 34.4533 41.7513 34.88C41.3779 35.2533 40.9513 35.4133 40.4713 35.36H39.7513C39.5913 35.3067 39.4579 35.28 39.3513 35.28C39.2446 35.28 39.1379 35.28 39.0313 35.28C38.8179 35.28 38.5246 35.3067 38.1513 35.36C37.8313 35.36 37.4846 35.3867 37.1113 35.44C36.7379 35.44 36.3646 35.44 35.9913 35.44C35.6179 35.44 35.3246 35.44 35.1113 35.44C34.2046 35.44 33.4046 35.3333 32.7113 35.12C32.0179 34.9067 31.5113 34.64 31.1913 34.32L31.8313 4.32C31.5113 4 31.3513 3.68 31.3513 3.36C31.3513 3.04 31.4846 2.61333 31.7513 2.08C32.0713 1.49333 32.3379 0.986664 32.5513 0.559997L53.3513 -9.53674e-07C53.5646 0.159997 53.8046 0.266662 54.0713 0.319995C54.3913 0.319995 54.6846 0.346663 54.9513 0.399999C55.3246 0.506664 55.8579 0.506664 56.5513 0.399999C57.3513 0.346663 57.8846 0.346663 58.1513 0.399999C59.6446 0.346663 60.6313 1.06666 61.1113 2.56C61.1113 2.77333 61.1113 3.28 61.1113 4.08C61.1113 4.93333 61.1113 6.16 61.1113 7.76C61.1113 8.56 61.0313 9.22666 60.8713 9.76C60.7113 10.2933 60.4446 10.7467 60.0713 11.12C59.7513 11.44 59.2979 11.68 58.7113 11.84C58.1779 12 57.5113 12.1067 56.7113 12.16L52.2313 12.08C51.0046 12.1333 49.9113 12.1333 48.9513 12.08C48.0446 11.9733 47.2446 11.8667 46.5513 11.76C45.8579 12.2933 45.2713 12.72 44.7913 13.04C44.3646 13.36 44.0179 13.52 43.7513 13.52C43.6446 13.52 43.5379 13.52 43.4313 13.52C43.3246 13.4667 43.1913 13.4133 43.0313 13.36L42.6313 12.96V13.28C42.5779 13.44 42.6046 13.68 42.7113 14C42.8179 14.2667 42.9246 14.5867 43.0313 14.96C43.1379 15.28 43.2446 15.6 43.3513 15.92C43.4579 16.24 43.5113 16.5067 43.5113 16.72C43.5113 17.2533 43.3513 17.7333 43.0313 18.16C43.9379 19.7067 45.3246 20.4533 47.1913 20.4C47.5646 20.4 48.0179 20.3733 48.5513 20.32C49.0846 20.2667 49.7513 20.16 50.5512 20C51.2979 19.84 51.9646 19.7333 52.5513 19.68C53.1379 19.5733 53.6179 19.52 53.9913 19.52C54.8979 19.52 55.5113 19.6267 55.8313 19.84C57.9113 20.6933 59.6179 21.8933 60.9513 23.44C62.3379 24.9867 63.3513 26.9867 63.9913 29.44C64.3113 30.88 64.5246 32.7467 64.6313 35.04C64.7913 37.3333 64.9246 40.0267 65.0313 43.12ZM50.1513 5.84H49.5113V6.48H50.1513V5.84ZM50.3913 9.52H50.2313C50.1779 9.52 49.9379 9.36 49.5113 9.04L49.0313 9.52C49.2446 9.78666 49.5646 9.92 49.9913 9.92H50.3913V9.52ZM44.7913 10.8C44.4713 10.8533 44.3113 11.0667 44.3113 11.44C44.3113 11.8667 44.5246 12.08 44.9513 12.08C45.0046 12.08 45.0579 12.0533 45.1113 12C45.2179 11.9467 45.3779 11.84 45.5913 11.68L44.7913 10.8ZM41.7513 9.52C41.7513 9.2 41.5646 9.04 41.1913 9.04C40.6579 9.04 40.3913 9.28 40.3913 9.76L40.4713 9.92H41.7513V9.52ZM56.3913 28.08L55.5113 28.88H55.9913C56.2579 28.56 56.3913 28.32 56.3913 28.16V28.08ZM52.9513 26.72L52.7913 26.8C52.7379 26.8 52.4979 26.64 52.0713 26.32L51.6713 26.72C51.8313 27.04 52.1246 27.2 52.5513 27.2H52.9513V26.72ZM57.2713 33.2C56.8446 32.9333 56.6046 32.8 56.5513 32.8C56.1246 32.8 55.9113 33.0133 55.9113 33.44C55.9113 33.8133 56.0713 34.0267 56.3913 34.08L57.2713 33.2ZM46.4713 22.88C46.2579 22.6667 45.9913 22.5333 45.6713 22.48C45.4046 22.3733 45.0579 22.32 44.6313 22.32C44.5246 22.32 44.3913 22.32 44.2313 22.32C44.1246 22.32 44.0179 22.3467 43.9113 22.4L44.7913 23.28C44.7379 23.3333 45.0579 23.36 45.7513 23.36C46.1779 23.36 46.4179 23.2 46.4713 22.88ZM42.6313 19.44C42.5779 19.3867 42.4446 19.3067 42.2313 19.2C42.0713 19.0933 41.8846 18.9867 41.6713 18.88C41.4579 18.7733 41.2446 18.6667 41.0313 18.56C40.8179 18.4533 40.6313 18.4 40.4713 18.4C40.4713 18.4 40.4179 18.4267 40.3113 18.48C40.2579 18.48 40.1513 18.5067 39.9913 18.56C40.6846 19.2533 41.3779 19.6 42.0713 19.6C42.2313 19.6 42.4179 19.5467 42.6313 19.44ZM64.3913 42.08H63.7513V42.72H64.3913V42.08ZM49.9113 28.08C49.8579 27.76 49.6979 27.6 49.4313 27.6C49.0046 27.6 48.6046 27.8933 48.2313 28.48H49.1913C49.6179 28.48 49.8579 28.3467 49.9113 28.08ZM59.1913 38.64H58.5513V39.28H59.1913V38.64ZM36.7913 17.04H36.1513V17.68H36.7913V17.04ZM46.7113 28.24H46.0713V28.88H46.7113V28.24ZM40.4713 22.88C40.3113 22.56 40.0713 22.4 39.7513 22.4C39.4846 22.4 39.2713 22.56 39.1113 22.88L39.5913 23.28L39.7513 23.36C39.8579 23.36 40.0979 23.2 40.4713 22.88ZM62.8713 48.56C62.8713 48.5067 62.8446 48.4533 62.7913 48.4C62.7379 48.2933 62.6313 48.1333 62.4713 47.92C62.1513 47.9733 61.9913 48.1867 61.9913 48.56C61.9913 48.8267 62.1513 49.04 62.4713 49.2L62.8713 48.8V48.56ZM38.3113 24.16H37.8313L38.3113 24.56V24.16ZM41.2713 29.76C41.0579 29.2267 40.7113 28.96 40.2313 28.96C39.7513 28.96 39.3779 29.2267 39.1113 29.76L39.5913 30.24H40.6313C41.0046 30.24 41.2179 30.08 41.2713 29.76ZM53.8313 43.6L53.6713 43.52C53.1913 43.52 52.9513 43.7867 52.9513 44.32V44.48H53.3513C53.6713 44.1067 53.8313 43.8667 53.8313 43.76V43.6ZM35.6713 29.76C35.5113 29.44 35.2179 29.28 34.7913 29.28C34.4179 29.28 34.1513 29.44 33.9913 29.76L34.3913 30.24H34.9513C35.3246 30.24 35.5646 30.08 35.6713 29.76ZM54.2313 54.4C53.8046 54.08 53.5646 53.92 53.5113 53.92H53.3513L53.8313 54.8L54.2313 54.4ZM51.1913 51.36H50.7913C50.3646 51.2533 50.0713 51.3867 49.9113 51.76C50.2846 52.08 50.5246 52.24 50.6313 52.24H50.7913C51.1113 51.8667 51.2713 51.6267 51.2713 51.52L51.1913 51.36ZM55.5113 56.56L55.1113 56.96L55.5113 57.36L55.9913 56.96L55.5113 56.56ZM49.5113 55.68L49.0313 56.56H49.2713C49.3246 56.56 49.3779 56.5333 49.4313 56.48C49.5379 56.3733 49.6979 56.24 49.9113 56.08L49.5113 55.68ZM43.5113 55.52C43.5113 55.4667 43.3513 55.2267 43.0313 54.8L42.6313 55.2C42.9513 55.52 43.1913 55.68 43.3513 55.68H43.4313L43.5113 55.52ZM36.1513 51.76H35.2713L36.5513 52.24L36.1513 51.76ZM104.868 38.4C104.868 38.9333 104.788 39.7333 104.628 40.8C104.468 41.8133 104.254 43.0133 103.988 44.4L104.308 44.8C104.201 45.44 104.068 46.1333 103.908 46.88C103.801 47.5733 103.668 48.3733 103.508 49.28C103.401 50.1333 103.268 51.0933 103.108 52.16C102.948 53.1733 102.788 54.2933 102.628 55.52C102.468 56.0533 102.174 56.72 101.748 57.52C101.321 58.2667 100.628 59.0933 99.6675 60C98.7608 60.8533 97.9342 61.5467 97.1875 62.08C96.4408 62.56 95.7742 62.9333 95.1875 63.2C94.1742 63.4133 93.0008 63.6 91.6675 63.76C90.3875 63.92 88.9208 64.0533 87.2675 64.16C83.7475 64.16 80.7875 63.68 78.3875 62.72C76.0408 61.7067 74.2808 60.16 73.1075 58.08C72.1475 56.16 71.4008 53.9467 70.8675 51.44C70.3342 48.88 69.9875 45.9467 69.8275 42.64C69.8808 42.6933 70.0142 42.72 70.2275 42.72C70.3875 42.72 70.5742 42.6667 70.7875 42.56C71.0008 42.4 71.2408 42.16 71.5075 41.84L70.7075 40.96L70.1475 41.12C70.2008 37.6533 70.1742 34.64 70.0675 32.08C70.0142 29.52 69.9608 27.36 69.9075 25.6C69.8542 23.84 69.8008 22.5333 69.7475 21.68C69.7475 20.7733 69.8275 20.2933 69.9875 20.24C69.7742 15.1733 70.4408 11.0667 71.9875 7.92C73.5875 4.72 75.9608 2.50666 79.1075 1.28C80.2275 0.853329 81.5075 0.533329 82.9475 0.319995C84.4408 0.106664 86.0675 0.0266654 87.8275 0.079998C90.8142 0.0266654 93.4008 0.479998 95.5875 1.43999C97.8275 2.4 99.6408 3.81333 101.028 5.68C101.774 6.64 102.174 7.30666 102.228 7.68C102.494 8.48 102.761 9.41333 103.028 10.48C103.294 11.5467 103.508 12.7733 103.668 14.16C103.774 16.2933 103.934 19.3067 104.148 23.2C104.361 27.0933 104.574 32.0267 104.788 38L104.868 38.48V38.4ZM92.2275 2.32H91.5875V2.96H92.2275V2.32ZM96.7075 12.24C96.7075 12.1867 96.5742 11.9467 96.3075 11.52L95.8275 11.92C96.2008 12.24 96.4408 12.4 96.5475 12.4H96.7075V12.24ZM92.8675 10.24C92.6542 9.92 92.4675 9.76 92.3075 9.76C92.0408 9.76 91.6675 10.0533 91.1875 10.64H92.8675V10.24ZM99.9075 17.68H99.2675V18.32H99.9075V17.68ZM95.8275 14.48C95.7208 14.16 95.4542 14 95.0275 14C94.6008 14 94.3075 14.16 94.1475 14.48C94.2008 14.8 94.4408 14.96 94.8675 14.96H95.8275V14.48ZM86.2275 5.36H85.5875V6H86.2275V5.36ZM95.4275 18.8V19.2L95.8275 18.8H95.4275ZM86.5475 9.36H86.3875C86.0142 9.36 85.7475 9.52 85.5875 9.84L86.0675 10.24L86.8675 9.36H86.5475ZM96.9475 22.4H96.3075V23.04H96.9475V22.4ZM100.548 28.88C100.548 28.88 100.414 28.64 100.148 28.16L99.6675 28.56C100.094 28.88 100.334 29.04 100.388 29.04H100.548V28.88ZM79.1875 7.68C79.0808 7.36 78.8142 7.2 78.3875 7.2C77.9608 7.2 77.6675 7.36 77.5075 7.68L77.9075 8.08H78.4675C78.8408 8.08 79.0808 7.94666 79.1875 7.68ZM81.3475 13.2L80.9475 13.68L81.3475 14.08L81.7475 13.68L81.3475 13.2ZM98.3875 32H97.9875L98.3875 32.4V32ZM101.428 36.24L100.948 36.72L101.428 37.12L101.828 36.72L101.428 36.24ZM100.308 35.6H99.6675V36.24H100.308V35.6ZM81.7475 22.64H81.3475L81.7475 23.04V22.64ZM75.5875 18.96H74.9475V19.6H75.5875V18.96ZM92.4675 20.08C91.5075 19.4933 90.9742 18.5067 90.8675 17.12C90.7608 16.16 90.6542 15.3867 90.5475 14.8C90.4942 14.2133 90.4408 13.84 90.3875 13.68C89.2675 12.5067 88.3342 11.92 87.5875 11.92C86.8408 11.92 86.0408 12.24 85.1875 12.88C84.8142 13.1467 84.4408 13.4133 84.0675 13.68C83.7475 13.8933 83.4008 14.16 83.0275 14.48C83.2942 14.5867 83.5075 14.7467 83.6675 14.96C83.8275 15.12 83.9075 15.3067 83.9075 15.52C83.9075 15.6267 83.8542 15.7867 83.7475 16C83.6942 16.2133 83.5875 16.4533 83.4275 16.72C83.3208 16.9333 83.2142 17.1467 83.1075 17.36C83.0542 17.5733 83.0275 17.76 83.0275 17.92C83.0275 18.6667 83.1075 19.52 83.2675 20.48C83.3742 21.7067 83.4542 22.56 83.5075 23.04C83.4008 23.2533 83.2942 23.4667 83.1875 23.68C83.1342 23.84 83.1075 24.0267 83.1075 24.24C83.1075 24.5067 83.1608 24.88 83.2675 25.36C83.4275 25.7867 83.5075 26.16 83.5075 26.48C83.5075 26.96 83.3475 27.3867 83.0275 27.76C83.3475 28.3467 83.5075 28.88 83.5075 29.36C83.5075 29.2 83.4542 29.36 83.3475 29.84C83.2942 30.32 83.1875 31.04 83.0275 32L83.5075 32.4C83.4542 32.6133 83.4542 33.4933 83.5075 35.04C83.5075 36.2133 83.0808 36.9067 82.2275 37.12H82.9475C83.4275 37.28 83.6408 38.32 83.5875 40.24C83.5875 40.4533 83.5608 40.72 83.5075 41.04C83.4542 41.36 83.3742 41.7067 83.2675 42.08C83.2142 42.4533 83.1342 42.8267 83.0275 43.2C82.9742 43.52 82.9475 43.7867 82.9475 44C83.0008 44.32 83.1075 44.9333 83.2675 45.84C83.4275 46.6933 83.6408 47.76 83.9075 49.04C84.1208 49.1467 84.3608 49.4133 84.6275 49.84C84.8942 50.2133 85.1608 50.6933 85.4275 51.28C85.9608 52.5067 86.5208 53.12 87.1075 53.12C87.4808 53.12 87.9875 52.9067 88.6275 52.48L88.1475 52.08C89.0008 51.0667 89.6142 50.16 89.9875 49.36C90.4142 48.5067 90.6542 47.7067 90.7075 46.96V46.8C90.7075 46.64 90.8675 46.4 91.1875 46.08C90.8675 45.76 90.7075 45.4133 90.7075 45.04C90.7075 44.7733 90.7875 44.4 90.9475 43.92C91.1075 43.44 91.1875 43.0933 91.1875 42.88C91.1875 42.4533 91.0275 42.1067 90.7075 41.84C90.7608 41.6267 90.7875 41.3867 90.7875 41.12C90.8408 40.8533 90.8675 40.5867 90.8675 40.32C90.8675 40.16 90.8408 39.92 90.7875 39.6C90.7875 39.28 90.7608 38.96 90.7075 38.64C90.7075 38.32 90.7075 38.0267 90.7075 37.76C90.7075 37.44 90.7075 37.1733 90.7075 36.96C90.7075 35.7867 91.0008 34.9867 91.5875 34.56L90.7075 33.68V31.44C90.7075 30.48 91.1342 29.9467 91.9875 29.84C91.1342 29.5733 90.7075 29.0933 90.7075 28.4C90.7075 28.1867 90.7342 27.84 90.7875 27.36C90.8942 26.88 90.9475 26.5067 90.9475 26.24C90.9475 25.8667 90.8675 25.52 90.7075 25.2C91.0808 24.8267 91.2675 24.3733 91.2675 23.84C91.2675 23.68 91.2408 23.4933 91.1875 23.28C91.1342 23.0133 91.0542 22.7733 90.9475 22.56C90.8942 22.2933 90.8408 22.0533 90.7875 21.84C90.7342 21.5733 90.7075 21.36 90.7075 21.2C90.7075 20.56 91.0008 20.0267 91.5875 19.6C91.9608 19.92 92.2008 20.08 92.3075 20.08H92.4675ZM92.6275 37.36H91.9875V38H92.6275V37.36ZM75.3475 21.76L74.9475 22.64L75.3475 22.16V21.76ZM95.4275 42.64H94.5475L95.4275 43.12V42.64ZM96.0675 48H95.4275V48.64H96.0675V48ZM79.1875 33.68V34.16L79.6675 33.68H79.1875ZM92.8675 50.8H92.4675L92.8675 51.2V50.8ZM81.3475 39.68C80.7075 39.0933 80.2542 38.8 79.9875 38.8H79.6675L80.9475 40.08L81.3475 39.68ZM91.3475 50.16H90.7075V50.8H91.3475V50.16ZM95.0275 55.44C94.8675 55.1733 94.6542 55.04 94.3875 55.04C94.0142 55.04 93.8008 55.1733 93.7475 55.44L94.1475 55.92H94.3075C94.3608 55.92 94.6008 55.76 95.0275 55.44ZM71.7475 32.64H71.1075V33.28H71.7475V32.64ZM90.5475 54H89.9075V54.64H90.5475V54ZM76.2275 40.96L75.8275 41.84L76.6275 40.96H76.2275ZM80.9475 46.48H80.4675C80.2542 46.48 80.0675 46.5333 79.9075 46.64C79.8008 46.6933 79.7208 46.8 79.6675 46.96C79.8808 47.12 80.0142 47.2267 80.0675 47.28C80.1742 47.3333 80.2542 47.36 80.3075 47.36H80.4675C80.7875 46.9867 80.9475 46.7467 80.9475 46.64V46.48ZM87.3475 55.04H86.8675C86.6542 55.04 86.4675 55.0933 86.3075 55.2C86.2008 55.2533 86.1208 55.3333 86.0675 55.44C86.4942 55.76 86.7075 55.92 86.7075 55.92H86.8675C87.1875 55.5467 87.3475 55.3067 87.3475 55.2V55.04ZM88.6275 59.28H88.1475L88.6275 59.76V59.28ZM86.2275 56.96H85.5875V57.6H86.2275V56.96ZM82.6275 54.16L82.2275 53.76L82.6275 54.64V54.16ZM77.9075 50.8C77.6408 50.48 77.3208 50.32 76.9475 50.32C76.0942 50.32 75.5608 50.6133 75.3475 51.2H76.7875C77.0542 51.2 77.2675 51.1733 77.4275 51.12C77.5875 51.0133 77.7475 50.9067 77.9075 50.8Z" fill="#3189E4"/>
</svg>
