<svg width="199" height="113" viewBox="0 0 199 113" fill="none" xmlns="http://www.w3.org/2000/svg">
<path d="M23.8 105.9L22.1 109.3C21.9867 109.073 21.7033 108.507 21.25 107.6C20.91 106.693 20.6267 106.127 20.4 105.9C20.2867 105.787 19.9467 105.503 19.38 105.05C18.9267 104.597 18.7 104.313 18.7 104.2C18.7 104.087 18.7567 103.803 18.87 103.35C19.0967 102.783 19.3233 102.217 19.55 101.65C19.7767 101.083 19.9467 100.573 20.06 100.12C20.2867 99.5533 20.4 99.2133 20.4 99.1V98.25V97.4C20.2867 97.1733 20.0033 96.89 19.55 96.55C19.21 96.0967 18.9267 95.8133 18.7 95.7L22.1 88.9C22.1 88.7867 22.1 88.3333 22.1 87.54C22.2133 86.7467 22.27 85.84 22.27 84.82C22.27 83.8 22.27 82.78 22.27 81.76C22.3833 80.6267 22.44 79.72 22.44 79.04C22.44 78.2467 22.3833 77.1133 22.27 75.64C22.27 74.1667 22.27 72.6933 22.27 71.22C22.27 69.7467 22.2133 68.4433 22.1 67.31C22.1 66.0633 22.1 65.3267 22.1 65.1C22.1 64.8733 21.8733 64.1367 21.42 62.89C20.9667 61.53 20.6267 60.5667 20.4 60L18.7 58.3C18.7 58.3 18.6433 58.1867 18.53 57.96C18.53 57.7333 18.53 57.5633 18.53 57.45C18.53 57.3367 18.53 57.1667 18.53 56.94C18.6433 56.7133 18.7 56.6 18.7 56.6L20.4 54.9V54.22C20.4 49.0067 19.8333 45.6067 18.7 44.02C17.68 42.4333 16.2067 41.64 14.28 41.64C13.4867 41.64 12.58 41.64 11.56 41.64C10.54 41.64 9.46333 41.47 8.33 41.13C7.19667 40.79 6.06333 40.28 4.93 39.6C3.79667 38.8067 2.72 37.6733 1.7 36.2C2.04 35.86 2.60667 35.2367 3.4 34.33C4.19333 33.31 5.04333 32.2333 5.95 31.1C6.85667 29.9667 7.70667 28.9467 8.5 28.04C9.29333 27.02 9.86 26.34 10.2 26C10.4267 25.7733 10.71 25.4333 11.05 24.98C11.5033 24.5267 11.7867 24.3 11.9 24.3H12.75H13.6C13.7133 24.3 13.9967 24.4133 14.45 24.64C15.0167 24.7533 15.5833 24.9233 16.15 25.15C16.7167 25.3767 17.2267 25.6033 17.68 25.83C18.2467 25.9433 18.5867 26 18.7 26C19.1533 25.8867 19.7767 25.4333 20.57 24.64C21.4767 23.7333 21.9867 23.0533 22.1 22.6V24.3C23.8 24.0733 25.1033 23.3933 26.01 22.26C27.03 21.1267 28.05 19.9367 29.07 18.69C30.09 17.33 31.28 16.14 32.64 15.12C34 14.1 35.87 13.59 38.25 13.59C38.7033 13.59 39.6667 13.6467 41.14 13.76C42.7267 13.8733 43.7467 13.9867 44.2 14.1C45.1067 16.3667 45.6167 18.2933 45.73 19.88C45.9567 21.3533 46.07 23.1667 46.07 25.32C46.07 26.68 45.7867 27.8133 45.22 28.72C44.6533 29.6267 44.03 30.4767 43.35 31.27C42.67 32.0633 42.0467 32.9133 41.48 33.82C40.9133 34.7267 40.63 35.8033 40.63 37.05C40.63 37.1633 40.63 37.3333 40.63 37.56C40.7433 37.7867 40.8 37.9 40.8 37.9L45.9 43C45.9 43 45.9 43.1133 45.9 43.34C46.0133 43.4533 46.07 43.6233 46.07 43.85C46.07 45.6633 45.73 47.25 45.05 48.61C44.37 49.97 44.03 51.7833 44.03 54.05V58.81C44.03 60.6233 44.6533 62.1533 45.9 63.4V90.6C45.22 91.5067 44.2 92.9233 42.84 94.85C41.48 96.7767 40.8 98.4767 40.8 99.95C40.8 100.743 40.97 101.423 41.31 101.99C41.7633 102.443 42.16 102.953 42.5 103.52C42.9533 103.973 43.35 104.54 43.69 105.22C44.1433 105.787 44.37 106.58 44.37 107.6C44.37 107.827 44.3133 108.393 44.2 109.3C44.2 110.207 44.2 110.773 44.2 111C44.0867 110.773 43.8033 110.49 43.35 110.15C43.01 109.697 42.7267 109.413 42.5 109.3H41.65H40.8C40.5733 109.413 40.0067 109.697 39.1 110.15C38.1933 110.49 37.6267 110.773 37.4 111H39.1C37.6267 110.32 36.3233 109.81 35.19 109.47C34.0567 109.13 32.9233 108.847 31.79 108.62C30.6567 108.393 29.4667 108.11 28.22 107.77C26.9733 107.317 25.5 106.693 23.8 105.9ZM42.5 104.2C41.5933 104.2 41.14 104.767 41.14 105.9C41.14 107.033 41.5933 107.6 42.5 107.6C43.4067 107.6 43.86 107.033 43.86 105.9C43.86 104.767 43.4067 104.2 42.5 104.2ZM12.75 88.73C12.8633 88.73 13.0333 88.7867 13.26 88.9C13.4867 88.9 13.6 88.9 13.6 88.9C13.94 89.1267 14.5067 89.6933 15.3 90.6C16.2067 91.3933 16.7733 91.96 17 92.3L10.2 95.7C10.2 95.5867 10.1433 95.36 10.03 95.02C10.03 94.5667 10.03 94.2267 10.03 94C10.03 93.0933 10.1433 92.0167 10.37 90.77C10.71 89.41 11.5033 88.73 12.75 88.73ZM22.1 92.3C21.1933 92.3 20.74 92.8667 20.74 94C20.74 95.1333 21.1933 95.7 22.1 95.7C23.0067 95.7 23.46 95.1333 23.46 94C23.46 92.8667 23.0067 92.3 22.1 92.3ZM39.1 92.3C38.1933 92.3 37.74 92.8667 37.74 94C37.74 95.1333 38.1933 95.7 39.1 95.7C40.0067 95.7 40.46 95.1333 40.46 94C40.46 92.8667 40.0067 92.3 39.1 92.3ZM45.9 92.3C46.8067 92.3 47.26 92.8667 47.26 94C47.26 95.1333 46.8067 95.7 45.9 95.7C44.9933 95.7 44.54 95.1333 44.54 94C44.54 92.8667 44.9933 92.3 45.9 92.3ZM45.9 56.6C46.8067 56.6 47.26 57.1667 47.26 58.3C47.26 59.4333 46.8067 60 45.9 60C44.9933 60 44.54 59.4333 44.54 58.3C44.54 57.1667 44.9933 56.6 45.9 56.6ZM1.7 31.1C2.60667 31.1 3.06 31.6667 3.06 32.8C3.06 33.9333 2.60667 34.5 1.7 34.5C0.793333 34.5 0.34 33.9333 0.34 32.8C0.34 31.6667 0.793333 31.1 1.7 31.1ZM5.1 27.7C6.00667 27.7 6.46 28.2667 6.46 29.4C6.46 30.5333 6.00667 31.1 5.1 31.1C4.19333 31.1 3.74 30.5333 3.74 29.4C3.74 28.2667 4.19333 27.7 5.1 27.7ZM13.6 26C12.6933 26 12.24 26.5667 12.24 27.7C12.24 28.8333 12.6933 29.4 13.6 29.4C14.5067 29.4 14.96 28.8333 14.96 27.7C14.96 26.5667 14.5067 26 13.6 26ZM98.6465 109.3C99.5532 109.3 100.006 109.867 100.006 111C100.006 112.02 99.5532 112.53 98.6465 112.53C97.7398 112.53 97.2865 112.02 97.2865 111C97.2865 109.867 97.7398 109.3 98.6465 109.3ZM64.4765 78.36C64.4765 78.2467 64.4198 77.9067 64.3065 77.34C64.3065 76.7733 64.3632 76.2633 64.4765 75.81C64.5898 75.2433 64.7598 74.7333 64.9865 74.28C65.3265 73.8267 65.7798 73.6 66.3465 73.6H78.2465L74.8465 77C74.9598 77.2267 75.1865 77.5667 75.5265 78.02C75.9798 78.36 76.3198 78.5867 76.5465 78.7H77.3965H78.2465C78.8132 78.4733 79.7198 78.19 80.9665 77.85C82.3265 77.3967 83.1198 77.1133 83.3465 77C83.5732 76.8867 83.4598 76.6033 83.0065 76.15C82.6665 75.6967 82.4965 75.4133 82.4965 75.3H79.9465C80.1732 74.1667 80.9665 73.6 82.3265 73.6C83.7998 73.4867 84.8198 73.43 85.3865 73.43C87.5398 73.43 88.8432 73.8833 89.2965 74.79C89.7498 75.5833 89.9765 77.1133 89.9765 79.38C91.5632 79.38 92.9232 79.4367 94.0565 79.55C95.1898 79.55 96.0965 79.38 96.7765 79.04C97.4565 78.5867 97.9665 77.9067 98.3065 77C98.6465 75.98 98.8165 74.45 98.8165 72.41C98.8165 71.73 98.7598 70.71 98.6465 69.35C98.6465 67.8767 98.6465 67.0267 98.6465 66.8C98.6465 66.6867 98.5332 66.29 98.3065 65.61C98.1932 64.93 98.0232 64.25 97.7965 63.57C97.5698 62.7767 97.3432 62.04 97.1165 61.36C97.0032 60.68 96.9465 60.2267 96.9465 60C96.9465 59.7733 97.2298 59.2067 97.7965 58.3C98.4765 57.3933 98.7598 56.8267 98.6465 56.6C98.3065 55.3533 97.6265 54.4467 96.6065 53.88C95.5865 53.2 94.5098 52.86 93.3765 52.86C92.3565 52.86 91.5632 53.37 90.9965 54.39C90.5432 55.2967 89.9198 56.3167 89.1265 57.45C88.4465 58.47 87.4265 59.49 86.0665 60.51C84.8198 61.4167 82.8365 61.87 80.1165 61.87C79.6632 61.87 78.6998 61.87 77.2265 61.87C75.7532 61.7567 74.1665 61.6433 72.4665 61.53C70.8798 61.4167 69.4632 61.2467 68.2165 61.02C66.9698 60.7933 66.3465 60.4533 66.3465 60V36.2C65.3265 35.52 64.4765 34.7267 63.7965 33.82C63.2298 32.9133 62.6632 32.0067 62.0965 31.1C61.5298 30.08 60.9065 29.06 60.2265 28.04C59.6598 27.02 58.8665 26.0567 57.8465 25.15H66.3465V12.4H117.176L119.046 26C119.16 26.9067 118.706 27.4733 117.686 27.7C116.78 27.8133 116.1 27.87 115.646 27.87C115.42 27.87 115.08 27.87 114.626 27.87C114.286 27.7567 114.06 27.7 113.946 27.7C113.72 27.5867 113.153 27.3033 112.246 26.85C111.34 26.2833 110.773 26 110.546 26C110.32 26 109.753 26.2833 108.846 26.85C107.94 27.4167 107.373 27.7 107.146 27.7C106.466 27.7 105.333 27.7567 103.746 27.87C102.16 27.87 100.46 27.87 98.6465 27.87C96.8332 27.87 95.1332 27.87 93.5465 27.87C91.9598 27.7567 90.8265 27.7 90.1465 27.7L88.4465 29.4L90.1465 31.1C89.5798 31.2133 89.1265 31.4967 88.7865 31.95C88.5598 32.4033 88.3898 32.9133 88.2765 33.48C88.1632 34.0467 88.1065 34.6133 88.1065 35.18C88.2198 35.7467 88.2765 36.2 88.2765 36.54C88.2765 37.7867 88.3898 38.92 88.6165 39.94C88.8432 40.8467 89.9198 41.3 91.8465 41.3C93.2065 41.3 94.1132 40.96 94.5665 40.28C95.0198 39.4867 95.3032 38.6933 95.4165 37.9C95.6432 36.9933 95.8132 36.2 95.9265 35.52C96.1532 34.7267 96.7198 34.33 97.6265 34.33C99.2132 34.33 100.63 34.7267 101.876 35.52C103.123 36.3133 104.71 36.71 106.636 36.71C106.636 38.8633 107.373 40.45 108.846 41.47C110.433 42.3767 112.133 43.34 113.946 44.36C115.873 45.2667 117.686 46.4567 119.386 47.93C121.086 49.4033 122.106 51.7267 122.446 54.9C120.86 54.3333 119.556 54.39 118.536 55.07C117.63 55.75 117.176 56.8267 117.176 58.3C117.176 59.32 117.403 60.2267 117.856 61.02C118.31 61.7 118.82 62.38 119.386 63.06C120.066 63.6267 120.69 64.1933 121.256 64.76C121.823 65.3267 122.22 66.0067 122.446 66.8C122.56 67.5933 122.39 68.5 121.936 69.52C121.596 70.4267 121.086 71.39 120.406 72.41C119.84 73.3167 119.216 74.2233 118.536 75.13C117.97 75.9233 117.573 76.5467 117.346 77C117.346 77 117.29 77.1133 117.176 77.34C117.176 77.5667 117.176 77.7367 117.176 77.85C117.176 78.0767 117.176 78.3033 117.176 78.53C117.29 78.6433 117.346 78.7 117.346 78.7C117.573 78.9267 118.14 79.2667 119.046 79.72C119.953 80.06 120.52 80.2867 120.746 80.4C120.973 80.6267 121.313 80.9667 121.766 81.42C122.22 81.76 122.446 81.9867 122.446 82.1V97.4C122.446 98.1933 121.88 99.1567 120.746 100.29C119.613 101.31 118.253 102.33 116.666 103.35C115.193 104.37 113.72 105.277 112.246 106.07C110.773 106.863 109.64 107.373 108.846 107.6H107.996H107.146L108.846 105.9C108.28 104.427 107.6 103.86 106.806 104.2C106.013 104.54 105.106 104.71 104.086 104.71C104.086 105.163 103.973 105.503 103.746 105.73C103.633 105.843 103.576 106.013 103.576 106.24C103.576 106.353 103.69 106.523 103.916 106.75C104.143 106.863 104.653 107.147 105.446 107.6C105.333 107.827 105.05 108.167 104.596 108.62C104.256 108.96 103.973 109.187 103.746 109.3H102.896H102.046C101.82 109.187 101.253 108.903 100.346 108.45C99.4398 107.883 98.8732 107.6 98.6465 107.6C98.5332 107.6 98.2498 107.883 97.7965 108.45C97.3432 109.017 97.0598 109.3 96.9465 109.3C96.8332 109.3 96.3798 109.357 95.5865 109.47C94.7932 109.47 94.1132 109.47 93.5465 109.47C92.5265 109.47 91.6198 109.3 90.8265 108.96C90.0332 108.507 89.2398 108.053 88.4465 107.6C87.7665 107.147 87.0298 106.75 86.2365 106.41C85.5565 105.957 84.8765 105.73 84.1965 105.73C83.9698 105.73 83.7432 105.787 83.5165 105.9C83.4032 105.9 83.3465 105.9 83.3465 105.9C83.1198 106.127 82.7798 106.693 82.3265 107.6C81.8732 108.393 81.6465 108.96 81.6465 109.3C78.1332 108.167 75.2432 106.523 72.9765 104.37C70.8232 102.217 69.0665 99.78 67.7065 97.06C66.4598 94.34 65.6098 91.3933 65.1565 88.22C64.7032 84.9333 64.4765 81.6467 64.4765 78.36ZM117.346 104.2C117.573 104.767 117.46 105.277 117.006 105.73C116.666 106.07 116.213 106.127 115.646 105.9C115.42 105.787 115.306 105.617 115.306 105.39C115.42 105.05 115.59 104.767 115.816 104.54C116.156 104.2 116.44 104.03 116.666 104.03C117.006 103.917 117.233 103.973 117.346 104.2ZM76.5465 99.1V100.8H81.6465C81.3065 99.8933 80.7965 99.3833 80.1165 99.27C79.5498 99.0433 78.9265 98.93 78.2465 98.93C78.0198 98.93 77.6798 98.9867 77.2265 99.1C76.8865 99.1 76.6598 99.1 76.5465 99.1ZM96.9465 94C96.0398 94 95.5865 94.5667 95.5865 95.7C95.5865 96.8333 96.0398 97.4 96.9465 97.4C97.8532 97.4 98.3065 96.8333 98.3065 95.7C98.3065 94.5667 97.8532 94 96.9465 94ZM89.6365 83.8V86.35C89.6365 87.9367 89.8632 89.6367 90.3165 91.45C90.7698 93.2633 91.7898 94.17 93.3765 94.17C93.7165 94.17 94.1698 94.17 94.7365 94.17C95.3032 94.0567 95.8698 93.9433 96.4365 93.83C97.0032 93.7167 97.5132 93.5467 97.9665 93.32C98.4198 92.98 98.6465 92.64 98.6465 92.3V83.8H89.6365ZM52.4065 77.68C53.1998 77.68 54.1632 78.1333 55.2965 79.04C56.5432 79.8333 57.7332 80.7967 58.8665 81.93C59.9998 83.0633 60.9632 84.2533 61.7565 85.5C62.6632 86.6333 63.1165 87.4833 63.1165 88.05C63.1165 88.1633 63.0598 88.3333 62.9465 88.56C62.9465 88.7867 62.9465 88.9 62.9465 88.9C62.8332 89.1267 62.5498 89.4667 62.0965 89.92C61.7565 90.26 61.4732 90.4867 61.2465 90.6C61.2465 90.6 61.1332 90.6567 60.9065 90.77C60.6798 90.77 60.5098 90.77 60.3965 90.77C59.0365 90.77 57.8465 90.3167 56.8265 89.41C55.8065 88.39 54.9565 87.2 54.2765 85.84C53.7098 84.3667 53.2565 82.8933 52.9165 81.42C52.5765 79.9467 52.4065 78.7 52.4065 77.68ZM86.7465 87.2C86.1798 86.9733 85.8965 87.2567 85.8965 88.05C85.8965 88.73 86.1798 89.0133 86.7465 88.9C87.3132 88.7867 87.5965 88.5033 87.5965 88.05C87.5965 87.71 87.3132 87.4267 86.7465 87.2ZM95.2465 85.5C96.1532 85.5 96.6065 86.0667 96.6065 87.2C96.6065 88.3333 96.1532 88.9 95.2465 88.9C94.3398 88.9 93.8865 88.3333 93.8865 87.2C93.8865 86.0667 94.3398 85.5 95.2465 85.5ZM86.7465 75.3L85.0465 78.7C85.2732 78.5867 85.5565 78.36 85.8965 78.02C86.3498 77.5667 86.6332 77.2267 86.7465 77C86.7465 77 86.7465 76.8867 86.7465 76.66C86.8598 76.4333 86.9165 76.2633 86.9165 76.15C86.9165 76.0367 86.8598 75.9233 86.7465 75.81C86.7465 75.5833 86.7465 75.4133 86.7465 75.3ZM106.806 64.08C106.806 64.76 106.863 65.5533 106.976 66.46C107.203 67.3667 107.486 68.2733 107.826 69.18C108.28 69.9733 108.79 70.6533 109.356 71.22C109.923 71.7867 110.603 72.07 111.396 72.07C111.51 72.07 111.68 72.07 111.906 72.07C112.133 71.9567 112.246 71.9 112.246 71.9C112.586 71.6733 113.153 71.1633 113.946 70.37C114.853 69.4633 115.42 68.84 115.646 68.5C114.966 66.6867 113.72 65.4967 111.906 64.93C110.093 64.3633 108.393 64.08 106.806 64.08ZM49.3465 65.1L51.0465 66.8H49.3465V65.1ZM90.1465 60C91.0532 60 91.5065 60.5667 91.5065 61.7C91.5065 62.8333 91.0532 63.4 90.1465 63.4C89.2398 63.4 88.7865 62.8333 88.7865 61.7C88.7865 60.5667 89.2398 60 90.1465 60ZM56.1465 56.6C57.0532 56.6 57.5065 57.1667 57.5065 58.3C57.5065 59.4333 57.0532 60 56.1465 60C55.2398 60 54.7865 59.4333 54.7865 58.3C54.7865 57.1667 55.2398 56.6 56.1465 56.6ZM91.8465 49.8C91.7332 49.5733 91.5065 49.5167 91.1665 49.63C90.9398 49.63 90.6565 49.8 90.3165 50.14C90.0898 50.3667 89.9198 50.65 89.8065 50.99C89.8065 51.2167 89.9198 51.3867 90.1465 51.5C90.7132 51.7267 91.1665 51.67 91.5065 51.33C91.9598 50.8767 92.0732 50.3667 91.8465 49.8ZM90.1465 48.1C90.0332 47.8733 89.8065 47.8167 89.4665 47.93C89.2398 47.93 88.9565 48.1 88.6165 48.44C88.3898 48.6667 88.2198 48.95 88.1065 49.29C88.1065 49.5167 88.2198 49.6867 88.4465 49.8C89.0132 50.0267 89.4665 49.97 89.8065 49.63C90.2598 49.1767 90.3732 48.6667 90.1465 48.1ZM98.6465 36.2C97.7398 36.2 97.2865 36.7667 97.2865 37.9C97.2865 39.0333 97.7398 39.6 98.6465 39.6C99.5532 39.6 100.006 39.0333 100.006 37.9C100.006 36.7667 99.5532 36.2 98.6465 36.2ZM85.0465 29.4C85.2732 28.8333 84.9898 28.55 84.1965 28.55C83.5165 28.55 83.2332 28.8333 83.3465 29.4C83.4598 29.9667 83.7432 30.25 84.1965 30.25C84.5365 30.25 84.8198 29.9667 85.0465 29.4ZM141.18 70.2L136.08 58.3C136.986 57.96 137.893 57.5633 138.8 57.11C139.82 56.5433 140.613 55.8067 141.18 54.9C139.706 52.18 138.346 50.2533 137.1 49.12C135.966 47.8733 134.04 47.25 131.32 47.25C131.32 49.0633 131.603 50.65 132.17 52.01C132.736 53.37 133.02 55.0133 133.02 56.94C132.906 56.94 132.566 56.94 132 56.94C131.546 56.8267 131.206 56.7133 130.98 56.6C130.526 56.3733 129.96 56.09 129.28 55.75C128.713 55.2967 128.43 55.0133 128.43 54.9V26C127.183 25.8867 126.39 25.5467 126.05 24.98C125.823 24.3 125.71 23.5067 125.71 22.6C125.71 20.9 126.333 18.8033 127.58 16.31C128.94 13.7033 130.583 11.2667 132.51 9C134.55 6.61999 136.703 4.63666 138.97 3.04999C141.35 1.34999 143.56 0.499994 145.6 0.499994C146.506 0.499994 147.186 1.18 147.64 2.54C148.093 3.89999 148.773 4.91999 149.68 5.6C147.98 6.28 146.96 7.07333 146.62 7.98C146.28 8.88666 146.11 10.02 146.11 11.38V12.4C146.11 12.9667 146.166 13.7033 146.28 14.61C146.506 15.4033 147.073 15.8 147.98 15.8C149.34 15.8 150.756 15.5167 152.23 14.95C153.816 14.3833 155.346 13.8167 156.82 13.25C158.406 12.57 159.993 11.9467 161.58 11.38C163.166 10.8133 164.753 10.53 166.34 10.53H171.44C172.913 10.53 174.386 10.6433 175.86 10.87C177.446 11.0967 178.92 11.4933 180.28 12.06C181.64 12.6267 182.773 13.3633 183.68 14.27C184.586 15.0633 185.153 16.14 185.38 17.5L188.78 15.8C188.78 15.8 189.063 16.1967 189.63 16.99C190.196 17.67 190.82 18.5767 191.5 19.71C192.293 20.73 193.03 21.8633 193.71 23.11C194.503 24.2433 195.126 25.2067 195.58 26C196.373 27.36 196.883 29.1733 197.11 31.44C197.336 33.7067 197.45 35.69 197.45 37.39C197.45 39.2033 197.166 40.5633 196.6 41.47C196.033 42.3767 194.56 43.4533 192.18 44.7C192.406 44.8133 192.746 45.0967 193.2 45.55C193.766 46.0033 194.333 46.5133 194.9 47.08C195.466 47.6467 195.976 48.2133 196.43 48.78C196.883 49.2333 197.166 49.5733 197.28 49.8C197.96 50.48 198.3 51.0467 198.3 51.5C197.393 51.5 196.43 51.6133 195.41 51.84C194.39 52.0667 193.426 52.4633 192.52 53.03C191.726 53.4833 191.103 54.1633 190.65 55.07C190.196 55.8633 190.14 56.94 190.48 58.3C191.613 57.7333 192.463 57.96 193.03 58.98C193.71 59.8867 194.05 60.7933 194.05 61.7C194.05 62.8333 193.823 63.91 193.37 64.93C193.03 65.95 192.633 66.97 192.18 67.99C191.84 69.01 191.443 70.0867 190.99 71.22C190.65 72.24 190.48 73.3733 190.48 74.62V75.3C190.706 75.5267 191.273 75.8667 192.18 76.32C193.086 76.7733 193.653 77 193.88 77C193.313 77.34 192.633 77.9067 191.84 78.7C191.046 79.4933 190.253 80.4 189.46 81.42C188.666 82.3267 187.986 83.29 187.42 84.31C186.966 85.2167 186.74 85.9533 186.74 86.52C186.74 86.86 186.74 87.3133 186.74 87.88C186.853 88.4467 186.966 88.7867 187.08 88.9L195.58 95.7V97.4C193.653 97.2867 191.783 97.9667 189.97 99.44C188.156 100.8 186.116 102.33 183.85 104.03C181.696 105.73 179.203 107.317 176.37 108.79C173.65 110.263 170.42 111 166.68 111C165.773 111 163.96 110.377 161.24 109.13C158.52 107.883 155.63 106.41 152.57 104.71C149.623 103.01 146.96 101.31 144.58 99.61C142.313 97.91 141.18 96.6067 141.18 95.7V70.2ZM164.98 68.84V90.6C164.98 91.7333 165.546 92.8667 166.68 94C167.813 95.1333 168.946 95.7 170.08 95.7C170.76 95.7 171.326 95.3033 171.78 94.51C172.233 93.6033 172.573 92.47 172.8 91.11C173.14 89.75 173.366 88.2767 173.48 86.69C173.593 85.1033 173.65 83.63 173.65 82.27V77.68C173.65 74.3933 173.14 71.73 172.12 69.69C171.1 67.65 168.663 66.63 164.81 66.63C163.563 66.63 162.6 66.8567 161.92 67.31C161.353 67.65 160.673 68.6133 159.88 70.2C160.106 69.9733 160.673 69.69 161.58 69.35C162.486 68.8967 163.053 68.6133 163.28 68.5C163.393 68.5 163.676 68.5567 164.13 68.67C164.583 68.7833 164.866 68.84 164.98 68.84ZM178.58 88.9C178.806 90.3733 179.486 91.62 180.62 92.64C181.753 93.5467 183.056 94 184.53 94H185.38C185.606 93.8867 185.89 93.66 186.23 93.32C186.683 92.8667 186.966 92.5267 187.08 92.3C185.833 91.0533 184.756 90.1467 183.85 89.58C182.943 89.0133 181.753 88.73 180.28 88.73C180.053 88.73 179.713 88.7867 179.26 88.9C178.92 88.9 178.693 88.9 178.58 88.9ZM197.28 87.2C197.166 87.4267 196.883 87.7667 196.43 88.22C196.09 88.56 195.806 88.7867 195.58 88.9C195.58 88.9 195.466 88.9567 195.24 89.07C195.013 89.07 194.843 89.07 194.73 89.07C194.616 89.07 194.446 89.07 194.22 89.07C194.106 88.9567 193.993 88.9 193.88 88.9L197.28 87.2ZM132.68 85.5C133.586 85.5 134.04 86.0667 134.04 87.2C134.04 88.3333 133.586 88.9 132.68 88.9C131.773 88.9 131.32 88.3333 131.32 87.2C131.32 86.0667 131.773 85.5 132.68 85.5ZM181.47 73.09C181.47 73.9967 181.583 75.1867 181.81 76.66C182.15 78.1333 183.056 78.87 184.53 78.87C184.643 78.87 184.813 78.87 185.04 78.87C185.266 78.7567 185.38 78.7 185.38 78.7C185.606 78.5867 185.89 78.36 186.23 78.02C186.683 77.5667 186.966 77.2267 187.08 77C186.4 75.8667 185.606 74.96 184.7 74.28C183.793 73.4867 182.716 73.09 181.47 73.09ZM149.51 53.2C149.51 56.8267 149.453 60.2833 149.34 63.57C149.34 66.8567 150.02 70.2 151.38 73.6C151.493 73.8267 151.72 74.1667 152.06 74.62C152.513 75.0733 152.853 75.3 153.08 75.3C153.533 75.3 154.383 75.0733 155.63 74.62C156.99 74.1667 157.84 73.8267 158.18 73.6C157.84 71.3333 157.67 69.4067 157.67 67.82C157.67 66.2333 157.896 64.76 158.35 63.4C158.803 62.04 159.426 60.7367 160.22 59.49C161.013 58.13 162.033 56.6 163.28 54.9C163.053 55.1267 162.486 55.4667 161.58 55.92C160.673 56.26 160.106 56.4867 159.88 56.6C159.766 56.6 159.483 56.5433 159.03 56.43C158.576 56.3167 158.293 56.26 158.18 56.26V34.5L159.88 32.8C160.56 33.7067 161.58 34.4433 162.94 35.01C164.413 35.4633 165.15 36.1433 165.15 37.05C165.15 37.1633 165.093 37.3333 164.98 37.56C164.98 37.7867 164.98 37.9 164.98 37.9C164.866 38.1267 164.583 38.4667 164.13 38.92C163.79 39.26 163.506 39.4867 163.28 39.6L164.98 41.3C164.98 41.4133 164.98 41.7533 164.98 42.32C165.093 42.8867 165.15 43.5667 165.15 44.36C165.263 45.04 165.32 45.7767 165.32 46.57C165.32 47.25 165.32 47.76 165.32 48.1C165.32 48.44 165.32 49.2333 165.32 50.48C165.433 51.7267 165.433 53.0867 165.32 54.56C165.32 56.0333 165.15 57.45 164.81 58.81C164.583 60.0567 164.073 61.02 163.28 61.7H164.13H164.98C165.32 61.5867 165.886 61.36 166.68 61.02C167.473 60.68 168.323 60.34 169.23 60C170.136 59.66 170.986 59.32 171.78 58.98C172.573 58.64 173.14 58.4133 173.48 58.3C171.78 57.62 170.76 56.8267 170.42 55.92C170.08 55.0133 169.91 53.88 169.91 52.52C169.91 51.2733 170.08 50.14 170.42 49.12C170.873 48.1 171.326 47.08 171.78 46.06C172.233 45.04 172.63 43.9633 172.97 42.83C173.423 41.6967 173.65 40.3367 173.65 38.75C173.65 36.1433 173.423 33.48 172.97 30.76C172.516 28.04 170.986 25.8867 168.38 24.3C168.38 25.0933 167.813 25.8867 166.68 26.68C165.66 27.4733 164.47 28.2667 163.11 29.06C161.75 29.74 160.39 30.42 159.03 31.1C157.783 31.78 156.933 32.3467 156.48 32.8C156.48 32.6867 156.423 32.5733 156.31 32.46C156.31 32.2333 156.31 32.0633 156.31 31.95C156.31 31.8367 156.31 31.6667 156.31 31.44C156.423 31.2133 156.48 31.1 156.48 31.1C156.706 30.76 157.216 30.1933 158.01 29.4C158.916 28.4933 159.54 27.9267 159.88 27.7C159.653 27.4733 159.086 27.19 158.18 26.85C157.273 26.3967 156.706 26.1133 156.48 26H155.63H154.78C153.76 26.5667 152.91 27.02 152.23 27.36C151.55 27.5867 150.983 27.87 150.53 28.21C150.19 28.4367 149.906 28.7767 149.68 29.23C149.566 29.57 149.51 30.1367 149.51 30.93C149.51 31.1567 149.51 31.4967 149.51 31.95C149.623 32.4033 149.68 32.6867 149.68 32.8C149.68 32.9133 149.736 33.2533 149.85 33.82C150.076 34.2733 150.303 34.7833 150.53 35.35C150.756 35.9167 150.926 36.4833 151.04 37.05C151.266 37.5033 151.38 37.7867 151.38 37.9C151.38 38.1267 151.153 38.4667 150.7 38.92C150.246 39.3733 149.906 39.6 149.68 39.6V42.32C149.68 43.5667 149.623 44.9267 149.51 46.4C149.51 47.8733 149.51 49.29 149.51 50.65V53.2ZM153.08 70.2C153.986 70.2 154.44 70.7667 154.44 71.9C154.44 73.0333 153.986 73.6 153.08 73.6C152.173 73.6 151.72 73.0333 151.72 71.9C151.72 70.7667 152.173 70.2 153.08 70.2ZM129.28 70.2C129.053 70.7667 128.77 71.05 128.43 71.05C127.976 71.05 127.693 70.7667 127.58 70.2C127.466 69.6333 127.75 69.35 128.43 69.35C129.223 69.35 129.506 69.6333 129.28 70.2ZM186.23 58.13C186.116 58.13 185.946 58.1867 185.72 58.3C185.493 58.3 185.38 58.3 185.38 58.3C185.153 58.4133 184.813 58.6967 184.36 59.15C184.02 59.49 183.793 59.7733 183.68 60C183.793 60 183.906 60.0567 184.02 60.17C184.246 60.17 184.416 60.17 184.53 60.17C184.643 60.17 184.813 60.17 185.04 60.17C185.266 60.0567 185.38 60 185.38 60C185.606 59.8867 185.89 59.66 186.23 59.32C186.683 58.8667 186.966 58.5267 187.08 58.3C186.966 58.3 186.796 58.3 186.57 58.3C186.456 58.1867 186.343 58.13 186.23 58.13ZM181.98 56.6C181.073 56.6 180.62 57.1667 180.62 58.3C180.62 59.4333 181.073 60 181.98 60C182.886 60 183.34 59.4333 183.34 58.3C183.34 57.1667 182.886 56.6 181.98 56.6ZM125.88 53.2C126.786 53.2 127.24 53.7667 127.24 54.9C127.24 56.0333 126.786 56.6 125.88 56.6C124.973 56.6 124.52 56.0333 124.52 54.9C124.52 53.7667 124.973 53.2 125.88 53.2ZM161.58 46.4L159.88 51.5C160.786 51.16 161.296 50.7067 161.41 50.14C161.636 49.46 161.75 48.78 161.75 48.1C161.75 47.8733 161.693 47.59 161.58 47.25C161.58 46.7967 161.58 46.5133 161.58 46.4ZM185.38 43C186.06 44.36 187.193 45.04 188.78 45.04V43H185.38ZM144.58 19.2C144.466 18.9733 144.24 18.9167 143.9 19.03C143.673 19.03 143.39 19.2 143.05 19.54C142.823 19.7667 142.653 20.05 142.54 20.39C142.54 20.6167 142.653 20.7867 142.88 20.9C143.446 21.1267 143.9 21.07 144.24 20.73C144.693 20.2767 144.806 19.7667 144.58 19.2ZM147.98 19.2C147.866 18.9733 147.64 18.9167 147.3 19.03C147.073 19.03 146.79 19.2 146.45 19.54C146.223 19.7667 146.053 20.05 145.94 20.39C145.94 20.6167 146.053 20.7867 146.28 20.9C146.846 21.1267 147.3 21.07 147.64 20.73C148.093 20.2767 148.206 19.7667 147.98 19.2ZM156.48 2.19999C156.253 2.76666 155.686 3.04999 154.78 3.04999C153.873 3.04999 153.306 2.76666 153.08 2.19999C152.966 1.97333 153.08 1.80333 153.42 1.69C153.873 1.57666 154.326 1.51999 154.78 1.51999C155.233 1.51999 155.63 1.57666 155.97 1.69C156.423 1.80333 156.593 1.97333 156.48 2.19999Z" fill="#253847"/>
</svg>
