<svg width="126" height="111" viewBox="0 0 126 111" fill="none" xmlns="http://www.w3.org/2000/svg">
<path d="M24.32 61.2C24.2667 61.3067 24.2133 61.44 24.16 61.6C24.1067 61.7067 24 61.84 23.84 62C23.4667 62.64 22.8533 63.12 22 63.44C21.2 63.76 20.2133 63.9467 19.04 64C18.6667 64 18.1867 64 17.6 64C17.0133 63.9467 16.2933 63.8667 15.44 63.76C14.64 63.6 13.9467 63.4933 13.36 63.44C12.8267 63.3867 12.3467 63.36 11.92 63.36C11.3333 62.9867 10.88 62.5067 10.56 61.92C10.24 61.3333 10.08 60.6667 10.08 59.92C10.08 59.8133 10.08 59.68 10.08 59.52C10.08 59.36 10.1067 59.2267 10.16 59.12L10.56 58.64L10.4 58.4C10.4 51.4667 10.5067 46.2667 10.72 42.8C10.9333 39.28 11.0933 37.6 11.2 37.76C11.1467 36.7467 11.0133 34.72 10.8 31.68C10.64 28.64 10.4267 24.5867 10.16 19.52C10.16 19.3067 9.94667 18.96 9.52 18.48C9.09333 18.1067 8.42667 17.7867 7.52 17.52C6.61333 17.2533 5.46667 16.96 4.08 16.64C1.57333 16.16 0.32 15.2533 0.32 13.92C0.32 13.8133 0.373333 13.52 0.48 13.04C0.64 12.5067 0.853333 11.8133 1.12 10.96C1.28 10.5867 1.46667 10.2933 1.68 10.08C1.89333 9.86666 2.13333 9.73333 2.4 9.68C3.41333 9.41333 4 9.25333 4.16 9.2C4.42667 9.36 4.66667 9.44 4.88 9.44C5.52 9.44 6.34667 9.01333 7.36 8.16C7.89333 7.68 8.34667 7.33333 8.72 7.12C9.14667 6.85333 9.52 6.72 9.84 6.72C11.44 4.53333 12.9333 2.88 14.32 1.76C15.7067 0.586665 16.9867 0.0266654 18.16 0.079998C19.2267 0.0266654 20.2933 0.346664 21.36 1.04C21.4667 0.986663 21.6267 0.959996 21.84 0.959996C22.2667 0.959996 22.96 1.41333 23.92 2.32C24.08 3.38666 24.1867 4.18666 24.24 4.72C24.2933 5.2 24.3733 5.49333 24.48 5.6C24.16 11.04 23.9733 15.5733 23.92 19.2C23.92 22.7733 23.9467 25.5733 24 27.6C24 28.3467 23.9733 29.0133 23.92 29.6C23.8667 30.1867 23.76 30.72 23.6 31.2C23.76 36.4267 23.8667 40.4267 23.92 43.2C23.9733 45.92 23.9733 47.3333 23.92 47.44C23.92 47.8133 23.76 48.16 23.44 48.48L24.32 59.52C24.0533 59.6267 23.92 59.7867 23.92 60C23.92 60.16 23.9733 60.3733 24.08 60.64C24.24 60.8533 24.32 61.04 24.32 61.2ZM19.44 10.72H18.8V11.36H19.44V10.72ZM22.88 15.04H22.16V15.68H22.88V15.04ZM13.84 9.92H13.2V10.56H13.84V9.92ZM18.8 20.4H18.32L18.8 20.88V20.4ZM14.72 18.88H14V19.52H14.72V18.88ZM17.44 24.24L17.04 24.72L17.44 25.12L17.92 24.72L17.44 24.24ZM16.16 26H15.76L16.16 26.4V26ZM18.32 31.12H17.44L18.32 31.6V31.12ZM12.56 31.12C12.1867 31.12 11.9733 31.28 11.92 31.6L12.32 32H12.56C12.4533 32 12.8 31.7067 13.6 31.12H12.56ZM19.44 38.64H18.8V39.28H19.44V38.64ZM14 53.04H13.2L14 53.52V53.04ZM65.0313 43.12C65.0846 43.2267 65.0579 43.5733 64.9513 44.16C64.8979 44.7467 64.7379 45.6267 64.4713 46.8C64.2579 48.8267 63.9646 50.6667 63.5913 52.32C63.2179 53.92 62.7379 55.36 62.1513 56.64C61.6179 57.8667 60.9513 58.96 60.1513 59.92C59.3513 60.8267 58.4179 61.6 57.3513 62.24C56.8179 62.4533 56.1246 62.6667 55.2713 62.88C54.4179 63.04 53.3513 63.2533 52.0713 63.52C50.9513 63.7333 49.9379 63.8667 49.0313 63.92C48.1779 63.9733 47.4313 63.9467 46.7913 63.84C43.9646 63.9467 41.5646 63.68 39.5913 63.04C37.6713 62.4 35.9379 61.3867 34.3913 60C33.9646 59.5733 33.5379 59.04 33.1113 58.4C32.7379 57.7067 32.3379 56.8533 31.9113 55.84C31.5379 54.88 31.1646 54.0533 30.7913 53.36C30.4179 52.6667 30.0446 52.1333 29.6712 51.76C29.9379 51.3867 30.0713 51.0133 30.0713 50.64C30.0713 50.48 30.0179 50.2667 29.9113 50C29.8046 49.7333 29.6979 49.4667 29.5913 49.2C29.4846 48.88 29.3779 48.56 29.2713 48.24C29.1646 47.92 29.1113 47.6533 29.1113 47.44C29.1113 47.2267 29.1379 47.0133 29.1913 46.8C29.2979 46.5867 29.4579 46.3733 29.6712 46.16C29.3513 45.84 29.1913 45.4133 29.1913 44.88C29.1913 44.8267 29.2179 44.64 29.2713 44.32C29.3779 43.9467 29.4846 43.44 29.5913 42.8C30.6046 42.32 31.6713 41.9467 32.7913 41.68C33.9646 41.36 35.1646 41.1733 36.3913 41.12C37.8313 41.1733 39.0579 41.36 40.0713 41.68C41.1379 42 41.9913 42.48 42.6313 43.12C42.5779 43.3867 42.5246 43.6533 42.4713 43.92C42.4713 44.1867 42.4979 44.4533 42.5513 44.72C42.4446 46.4267 42.7913 47.9467 43.5913 49.28C44.0179 50.1867 44.4979 50.88 45.0313 51.36C45.5646 51.7867 46.2313 52.0267 47.0312 52.08C49.2713 52.0267 50.8179 50.7733 51.6713 48.32C51.3513 47.84 51.1913 47.3333 51.1913 46.8C51.1913 46.5867 51.2446 46.3467 51.3513 46.08C51.4579 45.76 51.5646 45.44 51.6713 45.12C51.8313 44.7467 51.9379 44.4267 51.9913 44.16C52.0979 43.84 52.1513 43.5467 52.1513 43.28C52.1513 43.28 52.1513 43.2533 52.1513 43.2C52.1513 43.0933 52.1246 42.9333 52.0713 42.72C51.7513 42.4533 51.5913 42 51.5913 41.36C51.5913 40.1333 51.6179 39.5733 51.6713 39.68H51.9113C51.8579 39.68 52.2046 39.3867 52.9513 38.8C53.0046 38.64 52.8713 38.3733 52.5513 38H51.6713C51.7779 37.5733 51.8046 37.1467 51.7513 36.72C51.8579 34.2133 50.9513 32.48 49.0313 31.52C48.6579 30.88 47.9913 30.56 47.0312 30.56C45.2179 30.56 43.9113 31.36 43.1113 32.96C42.5779 33.8133 42.1246 34.4533 41.7513 34.88C41.3779 35.2533 40.9513 35.4133 40.4713 35.36H39.7513C39.5913 35.3067 39.4579 35.28 39.3513 35.28C39.2446 35.28 39.1379 35.28 39.0313 35.28C38.8179 35.28 38.5246 35.3067 38.1513 35.36C37.8313 35.36 37.4846 35.3867 37.1113 35.44C36.7379 35.44 36.3646 35.44 35.9913 35.44C35.6179 35.44 35.3246 35.44 35.1113 35.44C34.2046 35.44 33.4046 35.3333 32.7113 35.12C32.0179 34.9067 31.5113 34.64 31.1913 34.32L31.8313 4.32C31.5113 4 31.3513 3.68 31.3513 3.36C31.3513 3.04 31.4846 2.61333 31.7513 2.08C32.0713 1.49333 32.3379 0.986664 32.5513 0.559997L53.3513 -9.53674e-07C53.5646 0.159997 53.8046 0.266662 54.0713 0.319995C54.3913 0.319995 54.6846 0.346663 54.9513 0.399999C55.3246 0.506664 55.8579 0.506664 56.5513 0.399999C57.3513 0.346663 57.8846 0.346663 58.1513 0.399999C59.6446 0.346663 60.6313 1.06666 61.1113 2.56C61.1113 2.77333 61.1113 3.28 61.1113 4.08C61.1113 4.93333 61.1113 6.16 61.1113 7.76C61.1113 8.56 61.0313 9.22666 60.8713 9.76C60.7113 10.2933 60.4446 10.7467 60.0713 11.12C59.7513 11.44 59.2979 11.68 58.7113 11.84C58.1779 12 57.5113 12.1067 56.7113 12.16L52.2313 12.08C51.0046 12.1333 49.9113 12.1333 48.9513 12.08C48.0446 11.9733 47.2446 11.8667 46.5513 11.76C45.8579 12.2933 45.2713 12.72 44.7913 13.04C44.3646 13.36 44.0179 13.52 43.7513 13.52C43.6446 13.52 43.5379 13.52 43.4313 13.52C43.3246 13.4667 43.1913 13.4133 43.0313 13.36L42.6313 12.96V13.28C42.5779 13.44 42.6046 13.68 42.7113 14C42.8179 14.2667 42.9246 14.5867 43.0313 14.96C43.1379 15.28 43.2446 15.6 43.3513 15.92C43.4579 16.24 43.5113 16.5067 43.5113 16.72C43.5113 17.2533 43.3513 17.7333 43.0313 18.16C43.9379 19.7067 45.3246 20.4533 47.1913 20.4C47.5646 20.4 48.0179 20.3733 48.5513 20.32C49.0846 20.2667 49.7513 20.16 50.5512 20C51.2979 19.84 51.9646 19.7333 52.5513 19.68C53.1379 19.5733 53.6179 19.52 53.9913 19.52C54.8979 19.52 55.5113 19.6267 55.8313 19.84C57.9113 20.6933 59.6179 21.8933 60.9513 23.44C62.3379 24.9867 63.3513 26.9867 63.9913 29.44C64.3113 30.88 64.5246 32.7467 64.6313 35.04C64.7913 37.3333 64.9246 40.0267 65.0313 43.12ZM50.1513 5.84H49.5113V6.48H50.1513V5.84ZM50.3913 9.52H50.2313C50.1779 9.52 49.9379 9.36 49.5113 9.04L49.0313 9.52C49.2446 9.78666 49.5646 9.92 49.9913 9.92H50.3913V9.52ZM44.7913 10.8C44.4713 10.8533 44.3113 11.0667 44.3113 11.44C44.3113 11.8667 44.5246 12.08 44.9513 12.08C45.0046 12.08 45.0579 12.0533 45.1113 12C45.2179 11.9467 45.3779 11.84 45.5913 11.68L44.7913 10.8ZM41.7513 9.52C41.7513 9.2 41.5646 9.04 41.1913 9.04C40.6579 9.04 40.3913 9.28 40.3913 9.76L40.4713 9.92H41.7513V9.52ZM56.3913 28.08L55.5113 28.88H55.9913C56.2579 28.56 56.3913 28.32 56.3913 28.16V28.08ZM52.9513 26.72L52.7913 26.8C52.7379 26.8 52.4979 26.64 52.0713 26.32L51.6713 26.72C51.8313 27.04 52.1246 27.2 52.5513 27.2H52.9513V26.72ZM57.2713 33.2C56.8446 32.9333 56.6046 32.8 56.5513 32.8C56.1246 32.8 55.9113 33.0133 55.9113 33.44C55.9113 33.8133 56.0713 34.0267 56.3913 34.08L57.2713 33.2ZM46.4713 22.88C46.2579 22.6667 45.9913 22.5333 45.6713 22.48C45.4046 22.3733 45.0579 22.32 44.6313 22.32C44.5246 22.32 44.3913 22.32 44.2313 22.32C44.1246 22.32 44.0179 22.3467 43.9113 22.4L44.7913 23.28C44.7379 23.3333 45.0579 23.36 45.7513 23.36C46.1779 23.36 46.4179 23.2 46.4713 22.88ZM42.6313 19.44C42.5779 19.3867 42.4446 19.3067 42.2313 19.2C42.0713 19.0933 41.8846 18.9867 41.6713 18.88C41.4579 18.7733 41.2446 18.6667 41.0313 18.56C40.8179 18.4533 40.6313 18.4 40.4713 18.4C40.4713 18.4 40.4179 18.4267 40.3113 18.48C40.2579 18.48 40.1513 18.5067 39.9913 18.56C40.6846 19.2533 41.3779 19.6 42.0713 19.6C42.2313 19.6 42.4179 19.5467 42.6313 19.44ZM64.3913 42.08H63.7513V42.72H64.3913V42.08ZM49.9113 28.08C49.8579 27.76 49.6979 27.6 49.4313 27.6C49.0046 27.6 48.6046 27.8933 48.2313 28.48H49.1913C49.6179 28.48 49.8579 28.3467 49.9113 28.08ZM59.1913 38.64H58.5513V39.28H59.1913V38.64ZM36.7913 17.04H36.1513V17.68H36.7913V17.04ZM46.7113 28.24H46.0713V28.88H46.7113V28.24ZM40.4713 22.88C40.3113 22.56 40.0713 22.4 39.7513 22.4C39.4846 22.4 39.2713 22.56 39.1113 22.88L39.5913 23.28L39.7513 23.36C39.8579 23.36 40.0979 23.2 40.4713 22.88ZM62.8713 48.56C62.8713 48.5067 62.8446 48.4533 62.7913 48.4C62.7379 48.2933 62.6313 48.1333 62.4713 47.92C62.1513 47.9733 61.9913 48.1867 61.9913 48.56C61.9913 48.8267 62.1513 49.04 62.4713 49.2L62.8713 48.8V48.56ZM38.3113 24.16H37.8313L38.3113 24.56V24.16ZM41.2713 29.76C41.0579 29.2267 40.7113 28.96 40.2313 28.96C39.7513 28.96 39.3779 29.2267 39.1113 29.76L39.5913 30.24H40.6313C41.0046 30.24 41.2179 30.08 41.2713 29.76ZM53.8313 43.6L53.6713 43.52C53.1913 43.52 52.9513 43.7867 52.9513 44.32V44.48H53.3513C53.6713 44.1067 53.8313 43.8667 53.8313 43.76V43.6ZM35.6713 29.76C35.5113 29.44 35.2179 29.28 34.7913 29.28C34.4179 29.28 34.1513 29.44 33.9913 29.76L34.3913 30.24H34.9513C35.3246 30.24 35.5646 30.08 35.6713 29.76ZM54.2313 54.4C53.8046 54.08 53.5646 53.92 53.5113 53.92H53.3513L53.8313 54.8L54.2313 54.4ZM51.1913 51.36H50.7913C50.3646 51.2533 50.0713 51.3867 49.9113 51.76C50.2846 52.08 50.5246 52.24 50.6313 52.24H50.7913C51.1113 51.8667 51.2713 51.6267 51.2713 51.52L51.1913 51.36ZM55.5113 56.56L55.1113 56.96L55.5113 57.36L55.9913 56.96L55.5113 56.56ZM49.5113 55.68L49.0313 56.56H49.2713C49.3246 56.56 49.3779 56.5333 49.4313 56.48C49.5379 56.3733 49.6979 56.24 49.9113 56.08L49.5113 55.68ZM43.5113 55.52C43.5113 55.4667 43.3513 55.2267 43.0313 54.8L42.6313 55.2C42.9513 55.52 43.1913 55.68 43.3513 55.68H43.4313L43.5113 55.52ZM36.1513 51.76H35.2713L36.5513 52.24L36.1513 51.76ZM104.868 38.4C104.868 38.9333 104.788 39.7333 104.628 40.8C104.468 41.8133 104.254 43.0133 103.988 44.4L104.308 44.8C104.201 45.44 104.068 46.1333 103.908 46.88C103.801 47.5733 103.668 48.3733 103.508 49.28C103.401 50.1333 103.268 51.0933 103.108 52.16C102.948 53.1733 102.788 54.2933 102.628 55.52C102.468 56.0533 102.174 56.72 101.748 57.52C101.321 58.2667 100.628 59.0933 99.6675 60C98.7608 60.8533 97.9342 61.5467 97.1875 62.08C96.4408 62.56 95.7742 62.9333 95.1875 63.2C94.1742 63.4133 93.0008 63.6 91.6675 63.76C90.3875 63.92 88.9208 64.0533 87.2675 64.16C83.7475 64.16 80.7875 63.68 78.3875 62.72C76.0408 61.7067 74.2808 60.16 73.1075 58.08C72.1475 56.16 71.4008 53.9467 70.8675 51.44C70.3342 48.88 69.9875 45.9467 69.8275 42.64C69.8808 42.6933 70.0142 42.72 70.2275 42.72C70.3875 42.72 70.5742 42.6667 70.7875 42.56C71.0008 42.4 71.2408 42.16 71.5075 41.84L70.7075 40.96L70.1475 41.12C70.2008 37.6533 70.1742 34.64 70.0675 32.08C70.0142 29.52 69.9608 27.36 69.9075 25.6C69.8542 23.84 69.8008 22.5333 69.7475 21.68C69.7475 20.7733 69.8275 20.2933 69.9875 20.24C69.7742 15.1733 70.4408 11.0667 71.9875 7.92C73.5875 4.72 75.9608 2.50666 79.1075 1.28C80.2275 0.853329 81.5075 0.533329 82.9475 0.319995C84.4408 0.106664 86.0675 0.0266654 87.8275 0.079998C90.8142 0.0266654 93.4008 0.479998 95.5875 1.43999C97.8275 2.4 99.6408 3.81333 101.028 5.68C101.774 6.64 102.174 7.30666 102.228 7.68C102.494 8.48 102.761 9.41333 103.028 10.48C103.294 11.5467 103.508 12.7733 103.668 14.16C103.774 16.2933 103.934 19.3067 104.148 23.2C104.361 27.0933 104.574 32.0267 104.788 38L104.868 38.48V38.4ZM92.2275 2.32H91.5875V2.96H92.2275V2.32ZM96.7075 12.24C96.7075 12.1867 96.5742 11.9467 96.3075 11.52L95.8275 11.92C96.2008 12.24 96.4408 12.4 96.5475 12.4H96.7075V12.24ZM92.8675 10.24C92.6542 9.92 92.4675 9.76 92.3075 9.76C92.0408 9.76 91.6675 10.0533 91.1875 10.64H92.8675V10.24ZM99.9075 17.68H99.2675V18.32H99.9075V17.68ZM95.8275 14.48C95.7208 14.16 95.4542 14 95.0275 14C94.6008 14 94.3075 14.16 94.1475 14.48C94.2008 14.8 94.4408 14.96 94.8675 14.96H95.8275V14.48ZM86.2275 5.36H85.5875V6H86.2275V5.36ZM95.4275 18.8V19.2L95.8275 18.8H95.4275ZM86.5475 9.36H86.3875C86.0142 9.36 85.7475 9.52 85.5875 9.84L86.0675 10.24L86.8675 9.36H86.5475ZM96.9475 22.4H96.3075V23.04H96.9475V22.4ZM100.548 28.88C100.548 28.88 100.414 28.64 100.148 28.16L99.6675 28.56C100.094 28.88 100.334 29.04 100.388 29.04H100.548V28.88ZM79.1875 7.68C79.0808 7.36 78.8142 7.2 78.3875 7.2C77.9608 7.2 77.6675 7.36 77.5075 7.68L77.9075 8.08H78.4675C78.8408 8.08 79.0808 7.94666 79.1875 7.68ZM81.3475 13.2L80.9475 13.68L81.3475 14.08L81.7475 13.68L81.3475 13.2ZM98.3875 32H97.9875L98.3875 32.4V32ZM101.428 36.24L100.948 36.72L101.428 37.12L101.828 36.72L101.428 36.24ZM100.308 35.6H99.6675V36.24H100.308V35.6ZM81.7475 22.64H81.3475L81.7475 23.04V22.64ZM75.5875 18.96H74.9475V19.6H75.5875V18.96ZM92.4675 20.08C91.5075 19.4933 90.9742 18.5067 90.8675 17.12C90.7608 16.16 90.6542 15.3867 90.5475 14.8C90.4942 14.2133 90.4408 13.84 90.3875 13.68C89.2675 12.5067 88.3342 11.92 87.5875 11.92C86.8408 11.92 86.0408 12.24 85.1875 12.88C84.8142 13.1467 84.4408 13.4133 84.0675 13.68C83.7475 13.8933 83.4008 14.16 83.0275 14.48C83.2942 14.5867 83.5075 14.7467 83.6675 14.96C83.8275 15.12 83.9075 15.3067 83.9075 15.52C83.9075 15.6267 83.8542 15.7867 83.7475 16C83.6942 16.2133 83.5875 16.4533 83.4275 16.72C83.3208 16.9333 83.2142 17.1467 83.1075 17.36C83.0542 17.5733 83.0275 17.76 83.0275 17.92C83.0275 18.6667 83.1075 19.52 83.2675 20.48C83.3742 21.7067 83.4542 22.56 83.5075 23.04C83.4008 23.2533 83.2942 23.4667 83.1875 23.68C83.1342 23.84 83.1075 24.0267 83.1075 24.24C83.1075 24.5067 83.1608 24.88 83.2675 25.36C83.4275 25.7867 83.5075 26.16 83.5075 26.48C83.5075 26.96 83.3475 27.3867 83.0275 27.76C83.3475 28.3467 83.5075 28.88 83.5075 29.36C83.5075 29.2 83.4542 29.36 83.3475 29.84C83.2942 30.32 83.1875 31.04 83.0275 32L83.5075 32.4C83.4542 32.6133 83.4542 33.4933 83.5075 35.04C83.5075 36.2133 83.0808 36.9067 82.2275 37.12H82.9475C83.4275 37.28 83.6408 38.32 83.5875 40.24C83.5875 40.4533 83.5608 40.72 83.5075 41.04C83.4542 41.36 83.3742 41.7067 83.2675 42.08C83.2142 42.4533 83.1342 42.8267 83.0275 43.2C82.9742 43.52 82.9475 43.7867 82.9475 44C83.0008 44.32 83.1075 44.9333 83.2675 45.84C83.4275 46.6933 83.6408 47.76 83.9075 49.04C84.1208 49.1467 84.3608 49.4133 84.6275 49.84C84.8942 50.2133 85.1608 50.6933 85.4275 51.28C85.9608 52.5067 86.5208 53.12 87.1075 53.12C87.4808 53.12 87.9875 52.9067 88.6275 52.48L88.1475 52.08C89.0008 51.0667 89.6142 50.16 89.9875 49.36C90.4142 48.5067 90.6542 47.7067 90.7075 46.96V46.8C90.7075 46.64 90.8675 46.4 91.1875 46.08C90.8675 45.76 90.7075 45.4133 90.7075 45.04C90.7075 44.7733 90.7875 44.4 90.9475 43.92C91.1075 43.44 91.1875 43.0933 91.1875 42.88C91.1875 42.4533 91.0275 42.1067 90.7075 41.84C90.7608 41.6267 90.7875 41.3867 90.7875 41.12C90.8408 40.8533 90.8675 40.5867 90.8675 40.32C90.8675 40.16 90.8408 39.92 90.7875 39.6C90.7875 39.28 90.7608 38.96 90.7075 38.64C90.7075 38.32 90.7075 38.0267 90.7075 37.76C90.7075 37.44 90.7075 37.1733 90.7075 36.96C90.7075 35.7867 91.0008 34.9867 91.5875 34.56L90.7075 33.68V31.44C90.7075 30.48 91.1342 29.9467 91.9875 29.84C91.1342 29.5733 90.7075 29.0933 90.7075 28.4C90.7075 28.1867 90.7342 27.84 90.7875 27.36C90.8942 26.88 90.9475 26.5067 90.9475 26.24C90.9475 25.8667 90.8675 25.52 90.7075 25.2C91.0808 24.8267 91.2675 24.3733 91.2675 23.84C91.2675 23.68 91.2408 23.4933 91.1875 23.28C91.1342 23.0133 91.0542 22.7733 90.9475 22.56C90.8942 22.2933 90.8408 22.0533 90.7875 21.84C90.7342 21.5733 90.7075 21.36 90.7075 21.2C90.7075 20.56 91.0008 20.0267 91.5875 19.6C91.9608 19.92 92.2008 20.08 92.3075 20.08H92.4675ZM92.6275 37.36H91.9875V38H92.6275V37.36ZM75.3475 21.76L74.9475 22.64L75.3475 22.16V21.76ZM95.4275 42.64H94.5475L95.4275 43.12V42.64ZM96.0675 48H95.4275V48.64H96.0675V48ZM79.1875 33.68V34.16L79.6675 33.68H79.1875ZM92.8675 50.8H92.4675L92.8675 51.2V50.8ZM81.3475 39.68C80.7075 39.0933 80.2542 38.8 79.9875 38.8H79.6675L80.9475 40.08L81.3475 39.68ZM91.3475 50.16H90.7075V50.8H91.3475V50.16ZM95.0275 55.44C94.8675 55.1733 94.6542 55.04 94.3875 55.04C94.0142 55.04 93.8008 55.1733 93.7475 55.44L94.1475 55.92H94.3075C94.3608 55.92 94.6008 55.76 95.0275 55.44ZM71.7475 32.64H71.1075V33.28H71.7475V32.64ZM90.5475 54H89.9075V54.64H90.5475V54ZM76.2275 40.96L75.8275 41.84L76.6275 40.96H76.2275ZM80.9475 46.48H80.4675C80.2542 46.48 80.0675 46.5333 79.9075 46.64C79.8008 46.6933 79.7208 46.8 79.6675 46.96C79.8808 47.12 80.0142 47.2267 80.0675 47.28C80.1742 47.3333 80.2542 47.36 80.3075 47.36H80.4675C80.7875 46.9867 80.9475 46.7467 80.9475 46.64V46.48ZM87.3475 55.04H86.8675C86.6542 55.04 86.4675 55.0933 86.3075 55.2C86.2008 55.2533 86.1208 55.3333 86.0675 55.44C86.4942 55.76 86.7075 55.92 86.7075 55.92H86.8675C87.1875 55.5467 87.3475 55.3067 87.3475 55.2V55.04ZM88.6275 59.28H88.1475L88.6275 59.76V59.28ZM86.2275 56.96H85.5875V57.6H86.2275V56.96ZM82.6275 54.16L82.2275 53.76L82.6275 54.64V54.16ZM77.9075 50.8C77.6408 50.48 77.3208 50.32 76.9475 50.32C76.0942 50.32 75.5608 50.6133 75.3475 51.2H76.7875C77.0542 51.2 77.2675 51.1733 77.4275 51.12C77.5875 51.0133 77.7475 50.9067 77.9075 50.8Z" fill="#3189E4"/>
<path d="M27.64 85.904C27.6187 86.16 27.5867 86.512 27.544 86.96C27.5227 87.3867 27.48 87.8987 27.416 88.496C27.352 89.072 27.2987 89.5733 27.256 90C27.2133 90.4267 27.2027 90.7893 27.224 91.088C27.224 91.4507 27.2347 91.792 27.256 92.112C27.2987 92.4107 27.3413 92.7093 27.384 93.008C27.192 93.1147 27.096 93.2427 27.096 93.392C27.096 93.4987 27.128 93.5947 27.192 93.68C27.256 93.7653 27.4053 93.8507 27.64 93.936L27.576 107.184C27.5333 107.269 27.5013 107.355 27.48 107.44C27.4587 107.504 27.4373 107.589 27.416 107.696C27.3947 107.803 27.3947 107.963 27.416 108.176C27.4373 108.304 27.448 108.411 27.448 108.496C27.448 108.581 27.4587 108.645 27.48 108.688C27.48 109.328 27.1813 109.712 26.584 109.84C26.5413 109.861 26.3813 109.883 26.104 109.904C25.848 109.925 25.496 109.925 25.048 109.904C24.92 109.904 24.8027 109.915 24.696 109.936C24.6107 109.936 24.5253 109.947 24.44 109.968C24.2693 109.861 23.896 109.808 23.32 109.808C22.9787 109.808 22.7013 109.627 22.488 109.264C22.552 108.965 22.6053 108.656 22.648 108.336C22.6907 107.995 22.712 107.664 22.712 107.344C22.6907 107.131 22.6693 106.864 22.648 106.544C22.648 106.224 22.616 105.861 22.552 105.456C22.5307 105.029 22.5093 104.667 22.488 104.368C22.4667 104.048 22.4667 103.781 22.488 103.568C22.4667 103.205 22.4667 102.864 22.488 102.544C22.5307 102.224 22.5947 101.904 22.68 101.584H22.776C22.7973 101.584 22.8187 101.605 22.84 101.648C22.8827 101.669 22.9467 101.701 23.032 101.744L23.384 101.392C23.3627 101.221 23.2773 101.093 23.128 101.008C22.9787 100.901 22.7653 100.859 22.488 100.88L23.192 100.176H23.096C22.7333 100.197 22.5307 99.9627 22.488 99.472C22.4667 98.96 22.2747 98.7253 21.912 98.768H21.816C21.7093 98.832 21.592 98.9493 21.464 99.12C21.3573 99.2693 21.24 99.4293 21.112 99.6C20.984 99.7493 20.856 99.8987 20.728 100.048C20.6 100.197 20.4933 100.304 20.408 100.368C20.536 100.475 20.6213 100.528 20.664 100.528H20.76L20.92 100.368C20.8773 100.539 20.8347 100.709 20.792 100.88C20.7493 101.029 20.7067 101.189 20.664 101.36C20.6 101.573 20.536 101.755 20.472 101.904C20.408 102.032 20.3227 102.16 20.216 102.288C20.28 102.437 20.3227 102.597 20.344 102.768C20.344 102.875 20.3227 103.013 20.28 103.184C20.2587 103.355 20.2267 103.536 20.184 103.728C20.1413 103.899 20.0987 104.069 20.056 104.24C20.0347 104.389 20.024 104.517 20.024 104.624C20.024 104.709 20.0347 104.827 20.056 104.976C20.0773 105.125 20.088 105.243 20.088 105.328C20.088 105.605 20.0347 105.872 19.928 106.128C19.8427 106.384 19.704 106.619 19.512 106.832C19.576 106.96 19.6187 107.152 19.64 107.408C19.6187 107.728 19.5653 108.027 19.48 108.304C19.416 108.56 19.288 108.827 19.096 109.104C18.7333 109.701 18.2533 110 17.656 110C17.5707 110 17.4853 109.968 17.4 109.904C17.3147 109.84 17.2293 109.776 17.144 109.712C17.0587 109.648 16.984 109.584 16.92 109.52C16.856 109.456 16.792 109.424 16.728 109.424C16.7067 109.424 16.6853 109.424 16.664 109.424C16.6427 109.424 16.6213 109.445 16.6 109.488C16.4293 108.827 16.2693 108.176 16.12 107.536C15.992 106.875 15.8747 106.203 15.768 105.52C15.6187 104.731 15.5013 104.016 15.416 103.376C15.3307 102.715 15.2453 102.117 15.16 101.584H15.224C15.2027 101.584 15.352 101.467 15.672 101.232C15.5227 101.125 15.4053 101.04 15.32 100.976C15.2347 100.912 15.2027 100.88 15.224 100.88H15.16L14.968 101.104C14.968 100.571 14.8507 100.091 14.616 99.664C14.3813 99.216 14.04 98.8107 13.592 98.448C13.6347 98.4267 13.3467 98.416 12.728 98.416C12.3653 98.416 12.184 98.5653 12.184 98.864C12.184 98.8427 12.2053 98.8747 12.248 98.96C12.312 99.024 12.408 99.1413 12.536 99.312H13.4C13.2507 100.016 13.1973 100.485 13.24 100.72H13.144C13.1013 100.72 13.016 100.656 12.888 100.528C12.6533 100.848 12.536 100.997 12.536 100.976V101.072L12.888 101.392L12.984 101.264L13.048 105.072C13.176 105.328 13.24 105.68 13.24 106.128V106.64H13.144C13.1653 106.64 13.144 106.672 13.08 106.736C13.016 106.779 12.888 106.864 12.696 106.992C13.08 107.099 13.272 107.397 13.272 107.888C13.272 107.931 13.2613 108.005 13.24 108.112C13.24 108.219 13.2293 108.379 13.208 108.592C13.1867 108.741 13.176 108.869 13.176 108.976C13.1973 109.083 13.2187 109.179 13.24 109.264L12.696 109.808C12.5893 109.787 12.4827 109.776 12.376 109.776C12.2907 109.755 12.1947 109.744 12.088 109.744C11.96 109.744 11.7893 109.765 11.576 109.808C11.3627 109.829 11.1387 109.861 10.904 109.904C10.6907 109.925 10.4773 109.947 10.264 109.968C10.072 109.968 9.90133 109.968 9.752 109.968C9.24 109.968 8.856 109.893 8.6 109.744C8.344 109.573 8.216 109.339 8.216 109.04C8.216 108.933 8.23733 108.795 8.28 108.624C8.32267 108.453 8.344 108.325 8.344 108.24C8.344 108.048 8.28 107.867 8.152 107.696C8.28 107.653 8.344 107.589 8.344 107.504C8.344 107.44 8.312 107.355 8.248 107.248C8.184 107.141 8.12 107.067 8.056 107.024L8.344 101.584L8.44 101.296C8.44 99.8027 8.41867 98.5867 8.376 97.648C8.35467 96.688 8.33333 95.9733 8.312 95.504C8.33333 95.184 8.35467 94.9173 8.376 94.704C8.39733 94.4693 8.472 94.288 8.6 94.16L8.152 85.488C8.28 85.1253 8.49333 84.8587 8.792 84.688C9.112 84.496 9.496 84.4 9.944 84.4C10.0507 84.4 10.1787 84.4 10.328 84.4C10.4773 84.4 10.6587 84.4107 10.872 84.432H11.832C11.96 84.4533 12.12 84.4747 12.312 84.496C12.5253 84.496 12.7707 84.5173 13.048 84.56C13.5387 84.624 13.9653 84.6453 14.328 84.624C14.5413 84.7947 14.7227 85.0293 14.872 85.328C15.0213 85.6053 15.128 85.968 15.192 86.416C15.2987 86.7573 15.384 87.1093 15.448 87.472C15.512 87.8133 15.5867 88.144 15.672 88.464H15.608C15.6507 88.464 15.5013 88.3467 15.16 88.112L15 88.304C15.704 88.6667 16.088 89.3493 16.152 90.352C16.1947 90.992 16.2587 91.5253 16.344 91.952C16.4507 92.3573 16.5787 92.656 16.728 92.848C16.7067 92.8053 16.696 93.0827 16.696 93.68C16.696 93.936 16.824 94.1173 17.08 94.224H17.176C17.1333 94.2453 17.0587 94.256 16.952 94.256C16.7173 94.256 16.5893 94.192 16.568 94.064C16.44 94.0853 16.376 94.1707 16.376 94.32C16.376 94.4693 16.44 94.5547 16.568 94.576C16.6107 94.704 16.6853 94.8107 16.792 94.896C16.8987 94.96 17.0267 95.0133 17.176 95.056C17.6027 95.1627 17.8587 95.2373 17.944 95.28L18.488 94.768L18.136 94.448C18.1573 94.3413 18.2107 94.256 18.296 94.192C18.4027 94.1067 18.5093 94.032 18.616 93.968C18.744 93.904 18.8613 93.84 18.968 93.776C19.0747 93.6907 19.1493 93.6053 19.192 93.52C18.936 93.328 18.808 93.1253 18.808 92.912C18.808 92.8267 18.8293 92.7307 18.872 92.624C18.936 92.496 18.9893 92.368 19.032 92.24C19.0747 92.0907 19.1173 91.952 19.16 91.824C19.224 91.6747 19.256 91.5573 19.256 91.472C19.256 91.408 19.2453 91.344 19.224 91.28C19.224 91.216 19.2133 91.152 19.192 91.088H19.352C19.5013 91.1093 19.6507 91.0773 19.8 90.992C19.9707 90.9067 20.056 90.7893 20.056 90.64C20.056 90.6187 19.992 90.5333 19.864 90.384H19.512C19.6613 89.9787 19.7253 89.6907 19.704 89.52C19.7253 89.5413 19.7467 89.552 19.768 89.552C19.7893 89.552 19.8107 89.552 19.832 89.552C19.9173 89.552 20.1093 89.424 20.408 89.168C20.3013 88.9973 20.216 88.816 20.152 88.624C20.088 88.4107 20.056 88.1973 20.056 87.984C20.056 87.5573 20.1627 87.0453 20.376 86.448C20.4613 86.2133 20.5467 85.968 20.632 85.712C20.7387 85.456 20.8347 85.2107 20.92 84.976C21.1333 84.784 21.3893 84.6453 21.688 84.56C21.9867 84.4747 22.3493 84.432 22.776 84.432C22.8187 84.432 22.936 84.4427 23.128 84.464C23.32 84.464 23.5973 84.4747 23.96 84.496C24.1947 84.5173 24.408 84.528 24.6 84.528C24.792 84.5067 24.952 84.4747 25.08 84.432C25.3573 84.496 25.6347 84.5493 25.912 84.592C26.1893 84.6347 26.456 84.6667 26.712 84.688C27.288 84.9013 27.5867 85.296 27.608 85.872L27.64 85.904ZM27.064 87.76C26.936 87.632 26.7973 87.568 26.648 87.568C26.584 87.568 26.4667 87.632 26.296 87.76C26.1467 87.888 25.9333 88.0693 25.656 88.304C25.7413 88.048 25.9333 87.92 26.232 87.92C26.68 87.92 26.9573 87.8667 27.064 87.76ZM24.6 87.76C24.4293 87.8027 24.1947 87.92 23.896 88.112C24.0667 88.0693 24.3013 87.952 24.6 87.76ZM21.976 88.112C22.0827 88.24 22.168 88.304 22.232 88.304C22.296 88.304 22.3493 88.272 22.392 88.208C22.456 88.144 22.52 88.0907 22.584 88.048C22.648 87.984 22.7013 87.92 22.744 87.856C22.7867 87.792 22.8187 87.76 22.84 87.76L21.976 88.112ZM23.224 90C23.224 89.9573 23.16 89.8507 23.032 89.68C22.904 89.744 22.84 89.8293 22.84 89.936C22.84 90.064 22.904 90.16 23.032 90.224L23.192 90.032L23.224 90ZM25.112 91.952C25.0053 91.8453 24.9093 91.76 24.824 91.696C24.7387 91.632 24.6747 91.6 24.632 91.6C24.5253 91.6 24.4613 91.664 24.44 91.792C24.696 92.048 24.8773 92.176 24.984 92.176C25.0053 92.176 25.0267 92.176 25.048 92.176C25.0693 92.176 25.0907 92.1653 25.112 92.144V91.952ZM25.752 92.752H25.464V93.008H25.752V92.752ZM24.088 92.144L23.736 92.496L23.896 92.656C24.024 92.6347 24.088 92.5387 24.088 92.368V92.272V92.144ZM24.76 94.224C24.6533 94.288 24.6 94.384 24.6 94.512C24.6 94.6827 24.6853 94.768 24.856 94.768C24.8773 94.768 24.9627 94.704 25.112 94.576L24.76 94.224ZM22.328 91.952L22.136 92.144L22.328 92.304L22.488 92.144L22.328 91.952ZM21.112 91.184C21.112 90.992 20.9947 90.896 20.76 90.896C20.5893 90.896 20.472 90.96 20.408 91.088L20.92 91.44C21.048 91.2907 21.112 91.2053 21.112 91.184ZM23.192 93.872C23.128 93.8933 23.064 93.8827 23 93.84C22.936 93.776 22.8613 93.712 22.776 93.648C22.712 93.5627 22.648 93.4987 22.584 93.456C22.52 93.392 22.4667 93.36 22.424 93.36C22.3387 93.36 22.2427 93.4133 22.136 93.52C22.2 93.52 22.264 93.552 22.328 93.616C22.4133 93.6587 22.488 93.7227 22.552 93.808C22.6373 93.872 22.712 93.936 22.776 94C22.84 94.0427 22.8933 94.064 22.936 94.064C23 94.064 23.0853 94 23.192 93.872ZM20.312 91.344H20.056V91.6H20.312V91.344ZM23.224 94.832C23.224 94.6613 23.1387 94.576 22.968 94.576C22.904 94.576 22.744 94.6933 22.488 94.928C22.552 95.056 22.6587 95.12 22.808 95.12H23.032C23.16 94.9493 23.224 94.8533 23.224 94.832ZM21.976 94.128C21.976 93.9573 21.9013 93.872 21.752 93.872C21.5387 93.872 21.432 93.9787 21.432 94.192L21.464 94.224C21.6133 94.352 21.6987 94.416 21.72 94.416H21.816C21.9227 94.224 21.976 94.128 21.976 94.128ZM27.128 99.408H26.872V99.664H27.128V99.408ZM23.896 95.632C23.8107 95.5467 23.7147 95.504 23.608 95.504C23.5653 95.504 23.5013 95.536 23.416 95.6C23.352 95.6427 23.2667 95.696 23.16 95.76C23.0747 95.824 22.9893 95.888 22.904 95.952C22.8187 95.9947 22.744 96.0053 22.68 95.984L22.84 96.144C22.8827 96.1013 22.9467 96.0693 23.032 96.048C23.1387 96.0267 23.2453 96.0053 23.352 95.984C23.48 95.9413 23.5867 95.8987 23.672 95.856C23.7787 95.792 23.8533 95.7173 23.896 95.632ZM20.92 92.496C20.9627 92.4747 20.92 92.464 20.792 92.464C20.6427 92.464 20.3973 92.464 20.056 92.464C19.6507 92.464 19.3627 92.528 19.192 92.656L19.704 93.008C19.7893 92.9013 20.024 92.8373 20.408 92.816C20.728 92.7733 20.8987 92.6667 20.92 92.496ZM24.952 97.552C24.888 97.424 24.8027 97.36 24.696 97.36C24.5467 97.36 24.4613 97.424 24.44 97.552L24.6 97.744H24.664C24.7067 97.744 24.8027 97.68 24.952 97.552ZM21.112 93.872C20.8133 93.6373 20.6213 93.52 20.536 93.52C20.3227 93.52 20.216 93.616 20.216 93.808C20.216 93.9147 20.28 94 20.408 94.064H20.792C20.9413 94.064 21.048 94 21.112 93.872ZM21.816 95.824L21.624 95.984L21.816 96.144L21.976 95.984L21.816 95.824ZM24.088 98.608V98.768L24.248 98.608H24.088ZM21.272 95.632C21.2293 95.6107 21.176 95.5893 21.112 95.568C21.0693 95.5253 21.016 95.4827 20.952 95.44C20.9093 95.3973 20.856 95.3653 20.792 95.344C20.728 95.3013 20.6853 95.28 20.664 95.28C20.5573 95.28 20.472 95.344 20.408 95.472L20.76 95.824H20.888C21.08 95.824 21.208 95.76 21.272 95.632ZM13.592 88.112C13.2933 88.112 13.112 88.0587 13.048 87.952L12.888 88.112C12.9307 88.24 13.0267 88.304 13.176 88.304H13.592V88.112ZM22.84 96.688C22.7973 96.6667 22.7547 96.656 22.712 96.656C22.6907 96.656 22.6587 96.656 22.616 96.656C22.5307 96.656 22.392 96.6773 22.2 96.72C22.0293 96.7413 21.9013 96.752 21.816 96.752C21.6667 96.752 21.528 96.72 21.4 96.656C21.2933 96.592 21.1973 96.4853 21.112 96.336C21.0693 96.4427 21.048 96.496 21.048 96.496C21.048 96.6027 21.0907 96.688 21.176 96.752C21.2613 96.816 21.3573 96.8907 21.464 96.976C21.5707 97.04 21.6667 97.1147 21.752 97.2C21.8587 97.264 21.9333 97.328 21.976 97.392C22.0187 97.4133 22.0613 97.424 22.104 97.424C22.1253 97.424 22.1467 97.424 22.168 97.424C22.232 97.424 22.2853 97.392 22.328 97.328C22.392 97.264 22.4453 97.1893 22.488 97.104C22.552 97.0187 22.6053 96.9333 22.648 96.848C22.712 96.7627 22.776 96.7093 22.84 96.688ZM23.384 97.904C23.3413 97.84 23.2773 97.7973 23.192 97.776C23.128 97.7333 23.0427 97.712 22.936 97.712C22.7227 97.712 22.5733 97.776 22.488 97.904L22.68 98.096H23.064C23.192 98.096 23.2987 98.032 23.384 97.904ZM24.504 99.216H24.248V99.472H24.504V99.216ZM25.752 100.784H25.464V101.072H25.752V100.784ZM20.056 94.576C19.9707 94.8107 19.8107 94.928 19.576 94.928C19.128 94.928 18.8827 95.0453 18.84 95.28L19.192 95.632H19.288C19.3947 95.6533 19.4907 95.632 19.576 95.568C19.6613 95.504 19.7467 95.4187 19.832 95.312C20.0453 94.9707 20.1733 94.7893 20.216 94.768L20.056 94.576ZM13.048 88.976L12.888 89.168L13.048 89.328L13.24 89.168L13.048 88.976ZM24.248 100.176L24.088 100.368L24.248 100.528L24.44 100.368L24.248 100.176ZM20.568 96.496C20.184 96.6027 19.9493 96.8373 19.864 97.2L20.056 97.392C20.1413 97.3067 20.216 97.1893 20.28 97.04C20.3653 96.8907 20.4613 96.7093 20.568 96.496ZM14.616 91.44V91.6L14.808 91.44H14.616ZM16.056 92.784C16.056 92.7627 15.992 92.6667 15.864 92.496L15.512 92.848L15.672 93.008H15.736C15.7573 93.008 15.7893 92.9973 15.832 92.976C15.8747 92.9333 15.9387 92.8907 16.024 92.848L16.056 92.784ZM13.048 89.872H12.888L13.048 90.032V89.872ZM25.464 102.288L25.304 102.448L25.464 102.64L25.656 102.448L25.464 102.288ZM19 96.048C19 95.8773 18.8827 95.792 18.648 95.792C18.4773 95.792 18.36 95.856 18.296 95.984C18.3173 95.984 18.3387 96.0053 18.36 96.048C18.4027 96.0693 18.4453 96.112 18.488 96.176C18.5307 96.2187 18.5733 96.2613 18.616 96.304C18.68 96.3253 18.7333 96.336 18.776 96.336H18.84C18.9467 96.144 19 96.048 19 96.048ZM11.32 88.944C11.32 88.88 11.256 88.7733 11.128 88.624L10.968 88.816C11.0533 88.88 11.1067 88.9333 11.128 88.976C11.1707 88.9973 11.2027 89.008 11.224 89.008L11.32 88.976V88.944ZM14.968 92.848C14.8187 92.72 14.7333 92.656 14.712 92.656H14.616L14.808 93.008L14.968 92.848ZM15.864 93.616C15.864 93.4453 15.7893 93.36 15.64 93.36C15.4267 93.36 15.32 93.456 15.32 93.648V93.712C15.4907 93.84 15.5867 93.904 15.608 93.904L15.672 93.872C15.8 93.744 15.864 93.6587 15.864 93.616ZM21.624 98.608C21.5387 98.1813 21.3573 97.968 21.08 97.968C20.9733 97.968 20.824 97.9893 20.632 98.032C20.44 98.0747 20.3013 98.096 20.216 98.096C20.0027 98.096 19.832 98.032 19.704 97.904L20.056 98.608L19.384 98.96C19.704 99.0453 19.96 99.1093 20.152 99.152C20.3653 99.1733 20.5147 99.184 20.6 99.184C21.112 99.1627 21.4533 98.9707 21.624 98.608ZM11.992 90.384L12.184 90.576L12.344 90.384H11.992ZM14.328 92.144C14.328 91.9733 14.2533 91.888 14.104 91.888C14.0827 91.888 14.008 91.9093 13.88 91.952C13.7733 91.9947 13.6133 92.0587 13.4 92.144L13.944 92.656L14.008 92.688C14.0507 92.688 14.1467 92.624 14.296 92.496C14.3173 92.4107 14.328 92.3467 14.328 92.304C14.328 92.24 14.328 92.1867 14.328 92.144ZM17.592 95.984L17.24 96.336L17.432 96.496H17.592C17.7413 96.5387 17.8587 96.4853 17.944 96.336L17.592 95.984ZM15.608 94.32H15.32V94.576H15.608V94.32ZM12.728 91.568C12.728 91.5253 12.664 91.4187 12.536 91.248L12.184 91.6L12.344 91.792H12.408C12.4293 91.792 12.5253 91.728 12.696 91.6L12.728 91.568ZM18.328 97.104C18.328 96.9333 18.2427 96.848 18.072 96.848C17.9653 96.848 17.8053 96.9653 17.592 97.2C17.656 97.328 17.7627 97.392 17.912 97.392H18.136C18.264 97.2427 18.328 97.1467 18.328 97.104ZM10.616 89.68L10.424 90.032C10.7867 90.2453 10.9573 90.352 10.936 90.352C11.0213 90.352 11.0853 90.3093 11.128 90.224L10.616 89.68ZM23.192 102.288L23.032 102.448L23.192 102.64L23.384 102.448L23.192 102.288ZM14.808 94.064C14.808 93.936 14.7333 93.872 14.584 93.872C14.3707 93.872 14.264 93.9787 14.264 94.192L14.296 94.224H14.808V94.064ZM16.92 95.824C16.728 95.4613 16.504 95.28 16.248 95.28C16.0347 95.28 15.7787 95.3973 15.48 95.632C15.3733 95.7173 15.2667 95.8027 15.16 95.888C15.0533 95.9733 14.936 96.0587 14.808 96.144L14.968 96.336H15.128C15.32 96.336 15.448 96.272 15.512 96.144C15.576 96.144 15.6507 96.1227 15.736 96.08C15.8213 96.0373 15.9067 96.0053 15.992 95.984C16.0987 95.9413 16.1947 95.8987 16.28 95.856C16.3653 95.8133 16.44 95.792 16.504 95.792C16.6533 95.792 16.792 95.856 16.92 95.984V95.824ZM18.84 98.256C18.8187 98.1067 18.7333 98.032 18.584 98.032C18.52 98.032 18.4453 98.0533 18.36 98.096C18.2747 98.1387 18.1787 98.192 18.072 98.256C17.9653 98.2987 17.8693 98.3413 17.784 98.384C17.6987 98.4267 17.6347 98.448 17.592 98.448L17.944 98.768C17.9653 98.704 18.0187 98.6507 18.104 98.608C18.2107 98.5653 18.3067 98.5227 18.392 98.48C18.4773 98.4373 18.5627 98.4053 18.648 98.384C18.7333 98.3413 18.7973 98.2987 18.84 98.256ZM24.248 104.016C24.2053 104.016 24.1307 104.005 24.024 103.984C23.9387 103.941 23.8533 103.899 23.768 103.856C23.6827 103.792 23.5867 103.749 23.48 103.728C23.3947 103.685 23.32 103.664 23.256 103.664C23.1067 103.664 22.968 103.728 22.84 103.856C23.0533 103.941 23.2453 104.005 23.416 104.048C23.5867 104.091 23.736 104.112 23.864 104.112C24.0347 104.112 24.1627 104.08 24.248 104.016ZM10.968 91.44H10.904C10.904 91.44 10.808 91.4933 10.616 91.6L10.776 91.792C10.904 91.6213 10.968 91.5253 10.968 91.504V91.44ZM20.408 101.072L19.864 100.88L20.408 101.232V101.072ZM14.808 94.928C14.744 94.9493 14.68 94.9707 14.616 94.992C14.552 94.992 14.488 94.992 14.424 94.992C14.168 94.992 13.848 94.896 13.464 94.704C13.1013 94.4907 12.8667 94.3947 12.76 94.416H12.696C12.76 94.48 12.8453 94.5547 12.952 94.64C13.0587 94.704 13.208 94.7787 13.4 94.864C13.72 95.0347 13.9013 95.2373 13.944 95.472H14.264C14.4347 95.472 14.584 95.4507 14.712 95.408C14.84 95.344 14.9253 95.248 14.968 95.12L14.808 94.928ZM23.992 105.168H23.736V105.424H23.992V105.168ZM16.728 97.744C16.6213 97.488 16.44 97.36 16.184 97.36C15.8853 97.36 15.5973 97.488 15.32 97.744L15.672 98.096C15.736 98.1173 15.7787 98.128 15.8 98.128C15.8427 98.128 15.864 98.128 15.864 98.128C15.928 98.128 16.0027 98.1067 16.088 98.064C16.1733 98.0213 16.2587 97.9787 16.344 97.936C16.4293 97.8933 16.504 97.8613 16.568 97.84C16.6533 97.7973 16.7067 97.7653 16.728 97.744ZM12.344 93.2C12.0453 93.264 11.8213 93.3067 11.672 93.328C11.544 93.3493 11.48 93.36 11.48 93.36C11.2667 93.36 11.096 93.3067 10.968 93.2L10.776 93.36C10.8827 93.5947 11.0853 93.712 11.384 93.712H11.992C11.992 93.712 12.0133 93.6907 12.056 93.648C12.0987 93.6053 12.1413 93.5627 12.184 93.52C12.248 93.4773 12.2907 93.4347 12.312 93.392C12.3547 93.3493 12.376 93.3067 12.376 93.264L12.344 93.2ZM9.72 91.952L9.56 91.792L9.72 92.144V91.952ZM19 100.368C18.9573 100.347 18.9147 100.336 18.872 100.336C18.8293 100.336 18.776 100.336 18.712 100.336C18.6267 100.336 18.5307 100.347 18.424 100.368C18.3173 100.389 18.2 100.421 18.072 100.464C17.9013 100.549 17.7627 100.613 17.656 100.656C17.5707 100.677 17.496 100.699 17.432 100.72L17.592 100.88L17.88 100.848C18.1573 100.869 18.3813 100.837 18.552 100.752C18.744 100.667 18.8933 100.539 19 100.368ZM19.704 101.584C19.64 101.456 19.512 101.392 19.32 101.392H18.84C18.712 101.456 18.648 101.552 18.648 101.68C18.648 101.851 18.776 101.936 19.032 101.936C19.3307 101.936 19.5547 101.819 19.704 101.584ZM14.296 96.848C14.04 96.976 13.912 97.1147 13.912 97.264C13.912 97.5627 14.1467 97.712 14.616 97.712C14.7867 97.712 14.904 97.6587 14.968 97.552L14.296 96.848ZM15.512 98.512C15.512 98.3413 15.4373 98.256 15.288 98.256C15.0747 98.256 14.968 98.352 14.968 98.544V98.608C15.1173 98.736 15.2133 98.8 15.256 98.8L15.32 98.768C15.448 98.64 15.512 98.5547 15.512 98.512ZM13.4 95.824C13.2933 95.568 13.144 95.44 12.952 95.44C12.696 95.44 12.44 95.6213 12.184 95.984L11.992 95.824C11.928 95.8027 11.8853 95.792 11.864 95.792C11.7787 95.792 11.5973 95.9093 11.32 96.144C11.3627 96.1653 11.3947 96.1867 11.416 96.208C11.4373 96.208 11.448 96.208 11.448 96.208C11.512 96.208 11.5867 96.1973 11.672 96.176C11.7573 96.1333 11.8427 96.1013 11.928 96.08C12.0347 96.0373 12.1307 96.0053 12.216 95.984C12.3013 95.9627 12.3653 95.952 12.408 95.952C12.472 95.952 12.5147 95.9627 12.536 95.984H13.016C13.1867 95.984 13.3147 95.9307 13.4 95.824ZM15.512 99.632C15.7467 100.187 16.0987 100.475 16.568 100.496C16.7813 100.496 16.952 100.389 17.08 100.176L15.512 99.632ZM19.864 103.664L19.704 103.856L19.864 104.016L20.056 103.856L19.864 103.664ZM9.304 93.264H9.048V93.52H9.304V93.264ZM18.136 102.288C17.9653 101.989 17.7733 101.755 17.56 101.584C17.368 101.413 17.1547 101.296 16.92 101.232L17.592 101.744L17.432 101.936C17.7093 102.192 17.8907 102.32 17.976 102.32C18.04 102.32 18.0933 102.309 18.136 102.288ZM16.376 101.168C16.376 101.083 16.3227 100.987 16.216 100.88C16.1093 100.773 16.0453 100.72 16.024 100.72L15.864 101.072C15.8853 101.136 15.9173 101.179 15.96 101.2C16.024 101.221 16.0987 101.232 16.184 101.232H16.28H16.376V101.168ZM13.048 97.744L12.696 98.096L12.888 98.256L13.24 97.904L13.048 97.744ZM12.536 97.296C12.536 96.9973 12.3653 96.848 12.024 96.848C11.768 96.848 11.5867 96.9653 11.48 97.2C11.6293 97.4773 11.864 97.6053 12.184 97.584L12.344 97.552C12.472 97.4027 12.536 97.3173 12.536 97.296ZM18.84 103.664C18.7973 103.6 18.7547 103.557 18.712 103.536C18.6693 103.515 18.6267 103.504 18.584 103.504C18.4987 103.504 18.392 103.557 18.264 103.664C18.136 103.771 18.0293 103.835 17.944 103.856L18.136 104.016C18.2 104.037 18.232 104.048 18.232 104.048C18.2533 104.048 18.264 104.048 18.264 104.048C18.3493 104.048 18.5413 103.92 18.84 103.664ZM17.688 103.248H17.432V103.504H17.688V103.248ZM18.936 104.72C18.7867 104.72 18.6907 104.784 18.648 104.912L18.84 105.072C19.0107 105.051 19.1387 105.008 19.224 104.944C19.3307 104.88 19.3733 104.805 19.352 104.72H18.936ZM15.864 101.744L15.672 101.936L15.864 102.096L16.024 101.936L15.864 101.744ZM9.4 96.144H9.048L9.4 96.336V96.144ZM11.32 98.768L11.128 99.12L11.32 98.96V98.768ZM12.344 101.392C12.3227 101.285 12.2373 101.232 12.088 101.232C11.9387 101.232 11.8533 101.285 11.832 101.392L11.992 101.584H12.056C12.12 101.584 12.216 101.52 12.344 101.392ZM9.816 99.216H9.56V99.472H9.816V99.216ZM10.616 101.392L10.584 101.456C10.584 101.563 10.6587 101.616 10.808 101.616C10.9787 101.616 11.0853 101.541 11.128 101.392H10.616ZM11.736 102.896H11.48V103.152H11.736V102.896ZM11.032 103.6H10.776V103.856H11.032V103.6ZM11.736 104.304H11.48V104.56H11.736V104.304ZM43.4708 108.08C43.4068 108.72 43.3001 109.147 43.1508 109.36C42.9161 109.787 42.5641 110 42.0948 110C41.9028 110 41.6681 109.989 41.3908 109.968C41.1348 109.947 40.8148 109.925 40.4308 109.904C39.6628 109.84 39.0868 109.808 38.7028 109.808L37.0068 109.84C36.8148 109.861 36.5801 109.861 36.3028 109.84C36.0254 109.819 35.7054 109.797 35.3428 109.776C34.9588 109.733 34.6281 109.701 34.3508 109.68C34.0734 109.659 33.8494 109.637 33.6788 109.616C33.5508 109.616 33.3908 109.637 33.1988 109.68C33.0068 109.701 32.8041 109.733 32.5908 109.776C32.3988 109.819 32.2068 109.861 32.0148 109.904C31.8228 109.925 31.6628 109.925 31.5348 109.904C31.1294 109.904 30.7561 109.808 30.4148 109.616C29.9881 109.381 29.7747 109.083 29.7747 108.72C29.7747 108.635 29.8068 108.517 29.8708 108.368C29.9561 108.219 29.9988 108.101 29.9988 108.016C29.9988 107.973 29.9774 107.941 29.9348 107.92C29.9134 107.877 29.8708 107.877 29.8068 107.92C29.8708 104.208 29.9241 101.445 29.9668 99.632C30.0308 97.7973 30.0628 96.88 30.0628 96.88C30.1268 96.8587 30.1481 96.6027 30.1268 96.112C30.1268 95.6213 30.1054 94.9067 30.0628 93.968C30.0201 93.0293 29.9668 91.856 29.9028 90.448C29.8601 89.0187 29.8281 87.3547 29.8068 85.456L31.0548 84.368L39.8228 84.592C39.8868 84.592 39.9828 84.5813 40.1108 84.56C40.2388 84.5387 40.3668 84.5173 40.4948 84.496C40.6441 84.4747 40.7828 84.4533 40.9108 84.432C41.0601 84.4107 41.1774 84.4 41.2628 84.4C41.8388 84.4 42.2441 84.464 42.4788 84.592C42.9481 84.8907 43.2041 85.6053 43.2468 86.736C43.2254 87.5467 43.0761 88.4107 42.7988 89.328L41.9668 89.808L37.3588 89.68C37.3161 89.68 37.2521 89.6693 37.1667 89.648C37.1028 89.6053 37.0494 89.584 37.0068 89.584C36.7294 89.584 36.4628 89.7867 36.2068 90.192C36.1001 90.4053 35.9934 90.5653 35.8868 90.672C35.7801 90.7787 35.6841 90.8533 35.5988 90.896C35.6628 90.9813 35.6948 91.12 35.6948 91.312C35.6948 91.4827 35.6841 91.664 35.6628 91.856C35.6628 92.0267 35.6628 92.208 35.6628 92.4C35.6841 92.5707 35.7268 92.7093 35.7908 92.816C35.7908 92.816 35.7268 92.8373 35.5988 92.88C35.4921 92.9227 35.3321 92.9867 35.1188 93.072C34.8628 93.1573 34.6708 93.3067 34.5428 93.52C34.6494 93.776 34.8734 93.904 35.2148 93.904C35.4708 93.904 35.7161 93.84 35.9508 93.712C35.9294 93.7333 35.9188 93.7547 35.9188 93.776C35.9188 93.7973 35.9188 93.8187 35.9188 93.84C35.9188 93.904 35.9401 93.9787 35.9828 94.064C36.0468 94.1493 36.1321 94.256 36.2388 94.384L41.2308 94.416C41.4654 94.5867 41.6361 94.768 41.7428 94.96C41.8708 95.152 41.9348 95.3333 41.9348 95.504C41.9348 95.6747 41.8708 95.8347 41.7428 95.984C41.8281 96.5173 41.8814 96.9333 41.9028 97.232C41.9454 97.5093 41.9668 97.6907 41.9668 97.776C41.9881 98.1173 41.9454 98.416 41.8388 98.672C41.7321 98.928 41.6041 99.152 41.4548 99.344L36.3028 99.664C36.2388 99.728 36.1641 99.76 36.0788 99.76C35.9934 99.76 35.8761 99.728 35.7268 99.664C35.5774 99.5787 35.4601 99.536 35.3748 99.536C35.2254 99.536 35.1294 99.696 35.0868 100.016L35.4388 100.368C35.4601 100.24 35.5668 100.176 35.7588 100.176H35.9508C35.8654 100.368 35.8014 100.613 35.7588 100.912C35.7801 101.04 35.7908 101.179 35.7908 101.328C35.7908 101.435 35.7908 101.563 35.7908 101.712V101.936C35.7481 101.915 35.7161 101.904 35.6948 101.904C35.6734 101.904 35.6521 101.904 35.6308 101.904C35.5241 101.904 35.3428 102.032 35.0868 102.288C35.1081 102.352 35.1614 102.416 35.2468 102.48C35.3321 102.523 35.4174 102.576 35.5028 102.64C35.5881 102.683 35.6628 102.736 35.7268 102.8C35.7908 102.843 35.8228 102.896 35.8228 102.96C35.8228 102.981 35.8228 103.003 35.8228 103.024C35.8228 103.067 35.8121 103.109 35.7908 103.152L35.2468 103.696C35.5241 103.845 35.7588 104.027 35.9508 104.24C36.1428 104.432 36.3241 104.645 36.4948 104.88C36.6868 104.965 36.9108 105.029 37.1667 105.072C37.4228 105.093 37.7001 105.104 37.9988 105.104C38.1481 105.125 38.3508 105.125 38.6068 105.104C38.8841 105.061 39.2041 105.019 39.5668 104.976C39.9294 104.912 40.2494 104.869 40.5268 104.848C40.8254 104.827 41.0601 104.827 41.2308 104.848C41.3801 104.848 41.5294 104.859 41.6788 104.88C41.8281 104.88 41.9668 104.891 42.0948 104.912C42.1801 104.784 42.2761 104.72 42.3828 104.72C42.4468 104.72 42.5108 104.741 42.5748 104.784C42.6601 104.805 42.7348 104.848 42.7988 104.912C42.8628 104.955 42.9268 104.997 42.9908 105.04C43.0548 105.083 43.1081 105.104 43.1508 105.104C43.3854 105.381 43.4921 105.723 43.4708 106.128C43.4708 106.213 43.4601 106.32 43.4388 106.448C43.4388 106.555 43.4388 106.672 43.4388 106.8C43.4388 106.928 43.4281 107.056 43.4068 107.184C43.4068 107.291 43.4068 107.387 43.4068 107.472C43.4068 107.728 43.4388 107.931 43.5028 108.08H43.4708ZM39.5348 86.768H39.2788V87.024H39.5348V86.768ZM38.0628 88.784H37.8708L38.0628 88.976V88.784ZM35.5028 87.472H35.2468V87.728H35.5028V87.472ZM36.2068 88.176H35.9508V88.432H36.2068V88.176ZM35.2468 88.976C35.2254 88.848 35.1401 88.784 34.9908 88.784C34.8414 88.784 34.7561 88.848 34.7348 88.976L34.8948 89.136L34.9908 89.168C34.9908 89.168 35.0761 89.104 35.2468 88.976ZM34.8948 90.896L34.7348 91.248H34.7988C34.8201 91.248 34.9161 91.184 35.0868 91.056L34.8948 90.896ZM33.6788 90.384H33.5188L33.8388 90.544L33.6788 90.384ZM34.1268 91.152H33.8388V91.408H34.1268V91.152ZM31.3108 88.72H31.0548V88.976H31.3108V88.72ZM38.0628 96.496L37.8708 96.688L38.0628 96.848L38.2228 96.688L38.0628 96.496ZM34.0308 93.36L33.8388 93.52L34.0308 93.712L34.1908 93.52L34.0308 93.36ZM37.0068 96.688H36.8468L37.0068 96.848V96.688ZM33.1668 93.104C33.1668 93.0613 33.1028 92.9653 32.9748 92.816L32.8148 93.008C32.9641 93.136 33.0601 93.2 33.1028 93.2L33.1668 93.168V93.104ZM34.1908 94.736L34.0308 94.928L34.1908 95.088L34.3828 94.928L34.1908 94.736ZM33.5188 94.416L33.4227 94.384C33.3801 94.384 33.2948 94.448 33.1668 94.576L33.3268 94.736C33.4548 94.608 33.5188 94.512 33.5188 94.448V94.416ZM34.8948 95.632C34.8521 95.6107 34.7774 95.6 34.6708 95.6C34.5001 95.6 34.1694 95.728 33.6788 95.984L34.0308 96.336C34.1161 96.2933 34.2014 96.2507 34.2868 96.208C34.3934 96.1653 34.4894 96.1227 34.5748 96.08C34.6601 96.016 34.7348 95.952 34.7988 95.888C34.8628 95.8027 34.8948 95.7173 34.8948 95.632ZM36.6548 98.416L36.4948 98.608L36.6548 98.768L36.8468 98.608L36.6548 98.416ZM32.8148 94.736L32.4628 95.28L32.9748 94.928L32.8148 94.736ZM35.0868 97.552C34.9161 97.424 34.8201 97.36 34.7988 97.36L34.7348 97.392L35.0868 97.744V97.552ZM35.4388 98.416L35.2468 98.768L35.3108 98.8C35.3534 98.8 35.4494 98.736 35.5988 98.608L35.4388 98.416ZM33.6788 97.392C33.3374 97.0933 32.9854 96.9653 32.6228 97.008L32.4628 97.04C32.5054 97.0613 32.5588 97.0933 32.6228 97.136C32.7081 97.1787 32.7934 97.232 32.8788 97.296C32.9854 97.3387 33.0814 97.392 33.1668 97.456C33.2521 97.4987 33.3268 97.52 33.3908 97.52C33.4974 97.52 33.5934 97.4773 33.6788 97.392ZM32.7188 98H32.4628V98.256H32.7188V98ZM31.5668 97.904L31.4068 98.256L31.7588 97.904H31.5668ZM32.9748 100.016C32.8468 100.037 32.7828 100.123 32.7828 100.272C32.7828 100.421 32.8468 100.507 32.9748 100.528H33.1988C33.3268 100.528 33.4334 100.475 33.5188 100.368L32.9748 100.016ZM38.1588 105.712H37.8708V105.968H38.1588V105.712ZM36.3028 105.264L36.1428 105.616H36.1748C36.2388 105.616 36.3134 105.648 36.3988 105.712C36.5054 105.776 36.5801 105.808 36.6228 105.808C36.7081 105.808 36.7828 105.744 36.8468 105.616L36.3028 105.264ZM34.1908 103.344C34.2121 103.195 34.0414 103.077 33.6788 102.992V103.024C33.6788 103.237 33.8068 103.344 34.0628 103.344H34.1908ZM35.2468 104.752H35.0868L35.2468 104.912V104.752ZM33.0708 103.088H32.8148V103.344H33.0708V103.088ZM32.1108 102C32.1108 101.829 32.0041 101.744 31.7908 101.744C31.5348 101.744 31.3428 101.872 31.2148 102.128C31.3001 102.235 31.4068 102.288 31.5348 102.288H31.9188C32.0468 102.117 32.1108 102.021 32.1108 102ZM36.1428 106.672C36.0788 106.544 35.9614 106.48 35.7908 106.48H35.5988L35.9508 106.832L36.1428 106.672ZM33.8708 106.8C33.8708 106.736 33.8068 106.629 33.6788 106.48L33.5188 106.672C33.6468 106.8 33.7428 106.864 33.8068 106.864L33.8388 106.832L33.8708 106.8ZM33.4227 107.12H33.1668V107.376H33.4227V107.12ZM34.8948 108.784C34.7454 108.656 34.6494 108.592 34.6068 108.592H34.5428L34.7348 108.944L34.8948 108.784ZM31.5028 106.416H31.2148V106.672H31.5028V106.416ZM60.3065 86.608C60.2852 86.5227 60.2638 86.672 60.2425 87.056C60.2212 87.4187 60.1785 88.048 60.1145 88.944C59.8372 89.392 59.4532 89.616 58.9625 89.616C58.8772 89.616 58.7598 89.6053 58.6105 89.584C58.4612 89.5627 58.3012 89.5413 58.1305 89.52C57.9812 89.4987 57.8318 89.4773 57.6825 89.456C57.5332 89.4347 57.4052 89.4347 57.2985 89.456C56.8292 89.4347 56.4345 89.5947 56.1145 89.936C55.8158 90.2773 55.5918 90.8107 55.4425 91.536C55.5705 91.6 55.6345 91.7173 55.6345 91.888L55.6025 92.08L55.2825 92.432C55.3892 92.5813 55.4638 92.7733 55.5065 93.008C55.5705 93.2213 55.6132 93.4667 55.6345 93.744C55.6345 93.936 55.6132 94.16 55.5705 94.416C55.5492 94.672 55.5065 94.9387 55.4425 95.216C55.5065 95.408 55.5492 95.6213 55.5705 95.856C55.6132 96.0907 55.6345 96.336 55.6345 96.592C55.6345 96.656 55.6238 96.7627 55.6025 96.912C55.5812 97.04 55.5598 97.1787 55.5385 97.328C55.5172 97.456 55.4958 97.5947 55.4745 97.744C55.4745 97.872 55.4852 97.968 55.5065 98.032L55.7945 108.56C55.6665 108.688 55.5705 108.816 55.5065 108.944C55.4425 109.072 55.3892 109.2 55.3465 109.328C55.3038 109.435 55.2612 109.531 55.2185 109.616C55.1972 109.701 55.1545 109.755 55.0905 109.776C55.0052 109.84 54.8665 109.883 54.6745 109.904C54.4825 109.904 54.2372 109.893 53.9385 109.872C53.8105 109.893 53.6505 109.915 53.4585 109.936C53.2878 109.936 53.1065 109.947 52.9145 109.968C52.7225 109.989 52.5412 110 52.3705 110C52.1998 110 52.0612 110 51.9545 110C51.0158 109.979 50.3225 109.755 49.8745 109.328L49.8425 105.744C49.8638 105.253 49.8745 104.816 49.8745 104.432C49.8958 104.027 49.9065 103.653 49.9065 103.312C49.9705 102.8 50.0132 102.448 50.0345 102.256C50.0558 102.064 50.0985 102.043 50.1625 102.192C50.1412 100.805 50.1092 99.5893 50.0665 98.544C50.0238 97.4987 49.9812 96.6133 49.9385 95.888C49.9172 95.1627 49.8958 94.5973 49.8745 94.192C49.8532 93.7653 49.8532 93.4987 49.8745 93.392C49.8745 92.944 49.9385 92.624 50.0665 92.432C49.9385 92.1547 49.8745 91.8347 49.8745 91.472C49.8745 91.0667 49.9385 90.7573 50.0665 90.544C49.7252 90.0107 49.1918 89.68 48.4665 89.552C48.4025 89.5733 48.2105 89.5733 47.8905 89.552C47.5705 89.5307 47.1012 89.5093 46.4825 89.488L46.0665 89.424C45.7678 89.296 45.5332 89.0933 45.3625 88.816C45.1918 88.5387 45.1172 88.1653 45.1385 87.696C45.1598 87.5467 45.1705 87.3653 45.1705 87.152C45.1705 86.9387 45.1918 86.704 45.2345 86.448C45.2772 86.1493 45.3092 85.904 45.3305 85.712C45.3518 85.4987 45.3625 85.328 45.3625 85.2C45.3625 84.9227 45.5225 84.7413 45.8425 84.656C46.3118 84.528 46.5572 84.4533 46.5785 84.432L57.0105 84.624C57.0745 84.624 57.1705 84.6133 57.2985 84.592C57.4478 84.5707 57.5972 84.5493 57.7465 84.528C57.8958 84.5067 58.0452 84.4853 58.1945 84.464C58.3438 84.4213 58.4612 84.4 58.5465 84.4C59.1438 84.4213 59.6132 84.5387 59.9545 84.752C60.0612 85.0507 60.1358 85.3493 60.1785 85.648C60.2425 85.9467 60.2852 86.2667 60.3065 86.608ZM57.7145 88.432C57.5865 88.304 57.4692 88.24 57.3625 88.24C57.2132 88.24 57.0532 88.336 56.8825 88.528C56.7545 88.656 56.6585 88.752 56.5945 88.816C56.5518 88.88 56.5198 88.9227 56.4985 88.944C56.5625 88.7093 56.7332 88.592 57.0105 88.592C57.3732 88.592 57.6078 88.5387 57.7145 88.432ZM54.7385 88.784L54.9305 88.944C55.1438 88.7733 55.3678 88.4853 55.6025 88.08L54.7385 88.784ZM53.3625 87.216L53.2025 87.376L53.3625 87.568L53.5225 87.376L53.3625 87.216ZM54.2265 88.432C54.0772 88.2827 53.9278 88.208 53.7785 88.208C53.7145 88.208 53.6292 88.2293 53.5225 88.272C53.4372 88.3147 53.3412 88.368 53.2345 88.432C53.1492 88.496 53.0638 88.5493 52.9785 88.592C52.8932 88.6347 52.8185 88.656 52.7545 88.656C52.6052 88.656 52.4558 88.5813 52.3065 88.432C52.3918 88.7733 52.5518 88.944 52.7865 88.944C52.8505 88.944 52.9358 88.9227 53.0425 88.88C53.1705 88.816 53.2985 88.752 53.4265 88.688C53.5545 88.624 53.6718 88.56 53.7785 88.496C53.9065 88.432 54.0132 88.4 54.0985 88.4C54.1198 88.4 54.1412 88.4 54.1625 88.4C54.1838 88.4 54.2052 88.4107 54.2265 88.432ZM53.7145 89.456H53.5225L53.7145 89.648V89.456ZM53.8745 90.352H53.7145L54.0665 90.512L53.8745 90.352ZM51.7945 89.232C51.7945 89.2107 51.7732 89.1787 51.7305 89.136C51.7092 89.0933 51.6772 89.0293 51.6345 88.944L51.4425 89.136C51.6132 89.2427 51.7092 89.296 51.7305 89.296H51.7945V89.232ZM51.0905 89.808C50.9838 89.5733 50.8025 89.456 50.5465 89.456C50.3545 89.456 50.1945 89.52 50.0665 89.648C50.1092 89.648 50.1625 89.6693 50.2265 89.712C50.2905 89.7333 50.3545 89.776 50.4185 89.84C50.5038 89.8827 50.5785 89.9253 50.6425 89.968C50.7065 89.9893 50.7598 90 50.8025 90C50.8878 90 50.9838 89.936 51.0905 89.808ZM51.7945 91.728C51.7732 91.6 51.6878 91.536 51.5385 91.536C51.3892 91.536 51.3038 91.6 51.2825 91.728L51.4425 91.888L51.5065 91.92C51.5278 91.92 51.6238 91.856 51.7945 91.728ZM50.7705 91.216C50.6212 91.088 50.5252 91.024 50.4825 91.024C50.3118 91.024 50.2265 91.1093 50.2265 91.28C50.2265 91.408 50.2905 91.4933 50.4185 91.536L50.7705 91.216ZM53.8745 95.536C53.7892 95.472 53.7252 95.4293 53.6825 95.408C53.6612 95.3867 53.6398 95.376 53.6185 95.376H53.5225L53.7145 95.728L53.8745 95.536ZM50.5785 93.104L50.4185 93.456L50.4505 93.488C50.5145 93.488 50.6212 93.424 50.7705 93.296L50.5785 93.104ZM51.5385 94.256H51.2825V94.512H51.5385V94.256ZM51.8905 98.576H51.6345V98.832H51.8905V98.576ZM51.0905 99.376L50.9305 99.536L51.0905 99.696L51.2825 99.536L51.0905 99.376ZM54.5785 104.4C54.2585 104.4 54.0878 104.347 54.0665 104.24L53.8745 104.4C53.8958 104.528 53.9918 104.592 54.1625 104.592C54.4612 104.592 54.5998 104.581 54.5785 104.56V104.4ZM51.7945 104.528C51.7945 104.507 51.7732 104.475 51.7305 104.432C51.7092 104.368 51.6772 104.304 51.6345 104.24L51.4425 104.4C51.5918 104.528 51.6878 104.592 51.7305 104.592L51.7945 104.56V104.528ZM76.587 91.984C76.523 92.0693 76.4697 92.368 76.427 92.88C76.3843 93.392 76.299 94.1387 76.171 95.12C76.107 95.632 75.9683 96.112 75.755 96.56C75.5417 97.008 75.211 97.4667 74.763 97.936C74.4217 98.3413 74.027 98.6933 73.579 98.992C73.1523 99.2907 72.683 99.5147 72.171 99.664C71.979 99.7067 71.7123 99.7493 71.371 99.792C71.0297 99.8133 70.5817 99.824 70.027 99.824C69.003 99.824 68.3203 100.133 67.979 100.752C67.8937 100.859 67.8297 100.965 67.787 101.072C67.7443 101.157 67.691 101.243 67.627 101.328L68.139 108.752C68.1603 109.115 67.7977 109.531 67.051 110C66.795 109.851 66.379 109.787 65.803 109.808C65.6963 109.808 65.5363 109.819 65.323 109.84C65.131 109.84 64.9283 109.851 64.715 109.872C64.5017 109.872 64.2883 109.883 64.075 109.904C63.883 109.925 63.7123 109.936 63.563 109.936C63.0083 109.915 62.603 109.776 62.347 109.52C62.1123 109.243 62.0377 108.827 62.123 108.272L62.187 99.312C62.2083 99.3333 62.2723 99.344 62.379 99.344C62.5497 99.344 62.827 99.152 63.211 98.768V98.672C63.211 98.6293 63.147 98.544 63.019 98.416L62.187 98.608L62.155 96.336C62.155 95.9307 62.1763 95.5573 62.219 95.216C62.2617 94.8533 62.2937 94.5227 62.315 94.224C62.2297 94.1813 62.187 94.0853 62.187 93.936V93.52L62.315 93.2L61.995 85.584C61.995 85.4133 62.0697 85.232 62.219 85.04C62.3897 84.848 62.635 84.656 62.955 84.464L70.763 84.56C70.9123 84.7307 71.115 84.816 71.371 84.816C71.4777 84.816 71.627 84.8053 71.819 84.784C72.011 84.7627 72.1603 84.752 72.267 84.752C72.5657 84.752 72.843 84.8907 73.099 85.168C73.3977 85.424 73.6323 85.52 73.803 85.456C74.6137 86.0533 75.211 86.7573 75.595 87.568C76.0003 88.3787 76.203 89.3707 76.203 90.544C76.2883 90.736 76.363 90.96 76.427 91.216C76.491 91.4507 76.523 91.7173 76.523 92.016L76.587 91.984ZM74.443 91.376C74.443 91.3333 74.379 91.2267 74.251 91.056C74.1443 91.12 74.091 91.2053 74.091 91.312C74.091 91.44 74.1443 91.536 74.251 91.6L74.411 91.408L74.443 91.376ZM69.867 87.024L69.675 86.864L69.867 87.024ZM72.875 88.752C72.5123 88.6027 72.235 88.4747 72.043 88.368C71.851 88.2613 71.7657 88.2187 71.787 88.24C71.3603 88.048 70.955 87.9413 70.571 87.92C70.4857 88.048 70.3897 88.112 70.283 88.112C70.219 88.112 70.1123 88.08 69.963 88.016C69.8137 87.9307 69.707 87.888 69.643 87.888C69.5577 87.888 69.4723 87.952 69.387 88.08L70.059 88.432C70.251 88.304 70.4857 88.24 70.763 88.24C70.9763 88.24 71.2963 88.336 71.723 88.528C71.9577 88.6133 72.1497 88.688 72.299 88.752C72.4697 88.7947 72.619 88.8053 72.747 88.784H72.875V88.752ZM72.939 92.368H72.715V92.656H72.939V92.368ZM71.531 91.152H71.275V91.408H71.531V91.152ZM72.491 93.328L72.331 93.68L72.363 93.712C72.4057 93.712 72.4483 93.7013 72.491 93.68C72.555 93.6373 72.6297 93.584 72.715 93.52L72.491 93.328ZM66.891 88.08C66.8483 87.952 66.731 87.888 66.539 87.888C66.283 87.888 66.1763 87.984 66.219 88.176V88.272H66.571C66.763 88.272 66.8697 88.208 66.891 88.08ZM72.331 95.984H72.491L73.035 95.44L72.331 95.984ZM71.275 95.088C71.1683 95.0667 71.0403 95.0347 70.891 94.992C70.763 94.928 70.5923 94.832 70.379 94.704C70.8057 94.0427 71.019 93.2107 71.019 92.208C70.9977 91.6107 70.9443 91.0987 70.859 90.672C70.795 90.224 70.6883 89.8933 70.539 89.68C70.347 89.4027 69.9843 89.2213 69.451 89.136C68.747 89.008 68.2563 88.8373 67.979 88.624L67.755 88.944H68.139C68.2457 89.0293 68.299 89.1467 68.299 89.296V89.488C68.2137 89.7227 68.0857 89.84 67.915 89.84C67.8723 89.84 67.8083 89.8293 67.723 89.808C67.6377 89.7653 67.5523 89.7227 67.467 89.68C67.403 89.616 67.3283 89.5733 67.243 89.552C67.179 89.5093 67.115 89.488 67.051 89.488C67.0937 89.6587 67.2003 89.8187 67.371 89.968C67.499 90.096 67.595 90.192 67.659 90.256C67.723 90.32 67.755 90.352 67.755 90.352C67.7763 90.416 67.787 90.4693 67.787 90.512C67.787 90.5333 67.787 90.5547 67.787 90.576C67.787 90.7467 67.6697 91.088 67.435 91.6C67.6483 91.8133 67.755 92.0907 67.755 92.432C67.755 92.496 67.7443 92.5813 67.723 92.688C67.723 92.7733 67.7123 92.88 67.691 93.008C67.691 93.1147 67.6803 93.2213 67.659 93.328C67.659 93.4133 67.659 93.4987 67.659 93.584C67.659 93.84 67.7017 94.0853 67.787 94.32C67.8937 94.5333 68.0323 94.7253 68.203 94.896C68.3737 95.0667 68.5657 95.2053 68.779 95.312C69.0137 95.3973 69.2697 95.44 69.547 95.44C69.419 95.5893 69.355 95.6853 69.355 95.728L69.387 95.792H69.515C69.6857 95.792 69.803 95.7387 69.867 95.632L69.387 95.28C69.4937 95.0027 69.6537 94.8533 69.867 94.832C69.931 94.832 70.0057 94.8747 70.091 94.96C70.1763 95.024 70.2723 95.0987 70.379 95.184C70.4857 95.248 70.5817 95.312 70.667 95.376C70.7737 95.44 70.8483 95.472 70.891 95.472C71.0617 95.472 71.1897 95.344 71.275 95.088ZM72.939 97.296H72.715V97.552H72.939V97.296ZM67.051 92.112C67.0297 92.0907 66.987 92.0693 66.923 92.048C66.859 92.0053 66.7737 91.9627 66.667 91.92C66.5817 91.856 66.4963 91.8027 66.411 91.76C66.3257 91.7173 66.2617 91.696 66.219 91.696C66.1763 91.696 66.1123 91.7173 66.027 91.76C66.3043 92.0587 66.5817 92.208 66.859 92.208C66.9657 92.208 67.0297 92.176 67.051 92.112ZM64.651 91.408C64.5657 91.28 64.459 91.216 64.331 91.216C64.2457 91.216 64.171 91.28 64.107 91.408L64.267 91.6H64.299C64.3417 91.6 64.459 91.536 64.651 91.408ZM67.531 94.672H67.243V94.928H67.531V94.672ZM66.219 93.52C66.155 93.392 66.059 93.328 65.931 93.328C65.803 93.328 65.707 93.392 65.643 93.52L65.835 93.68L65.899 93.712C65.9417 93.712 66.0483 93.648 66.219 93.52ZM68.459 95.952C68.2883 95.952 68.1817 96.016 68.139 96.144L68.299 96.336L68.683 95.984L68.459 95.952ZM69.003 97.104C69.003 96.9333 68.939 96.848 68.811 96.848C68.5763 96.848 68.459 96.944 68.459 97.136V97.2C68.6297 97.328 68.7363 97.392 68.779 97.392L68.843 97.36C68.9497 97.232 69.003 97.1467 69.003 97.104ZM65.131 93.872L64.971 94.032L65.355 94.384L65.515 94.224L65.131 93.872ZM70.379 98.768C70.2937 98.64 70.1443 98.576 69.931 98.576C69.5257 98.576 69.3443 98.5867 69.387 98.608C69.2377 98.6507 69.163 98.736 69.163 98.864C69.163 99.0133 69.2377 99.0987 69.387 99.12H69.739C70.059 99.12 70.2723 99.0027 70.379 98.768ZM67.659 96.592H67.435V96.848H67.659V96.592ZM66.731 96.144C66.539 96.016 66.3257 95.952 66.091 95.952C65.7923 95.952 65.6003 96.08 65.515 96.336L65.643 96.496C65.7283 96.5173 65.7923 96.528 65.835 96.528C65.8563 96.528 65.867 96.528 65.867 96.528C65.9523 96.528 66.027 96.5173 66.091 96.496C66.155 96.4747 66.219 96.432 66.283 96.368C66.411 96.304 66.507 96.2613 66.571 96.24C66.6563 96.1973 66.7097 96.1653 66.731 96.144ZM64.971 94.928C64.907 94.8 64.811 94.736 64.683 94.736H64.587H64.427L64.811 95.088L64.971 94.928ZM67.147 97.104H66.891V97.36H67.147V97.104ZM68.139 98.768H67.979V99.12C68.107 98.9493 68.171 98.864 68.171 98.864L68.139 98.768ZM66.379 98.032C66.379 97.9893 66.3257 97.8827 66.219 97.712C66.091 97.776 66.027 97.872 66.027 98C66.027 98.1067 66.091 98.192 66.219 98.256L66.347 98.064L66.379 98.032ZM64.971 96.688L64.811 97.04L65.131 96.688H64.971ZM64.107 96.144C64.0643 96.08 63.979 96.048 63.851 96.048C63.6803 96.048 63.467 96.144 63.211 96.336L63.403 96.496C63.4457 96.5173 63.4777 96.528 63.499 96.528C63.5203 96.528 63.531 96.528 63.531 96.528C63.6163 96.528 63.8083 96.4 64.107 96.144ZM66.731 99.472C66.6457 99.408 66.5817 99.3653 66.539 99.344C66.4963 99.3013 66.4643 99.28 66.443 99.28C66.2937 99.28 66.219 99.376 66.219 99.568C66.219 99.7173 66.2617 99.8027 66.347 99.824L66.731 99.472ZM67.595 101.424H67.435L67.595 101.584V101.424ZM65.579 99.376H65.355V99.664H65.579V99.376ZM65.131 101.232L64.971 101.424L65.131 101.584L65.355 101.424L65.131 101.232ZM63.915 102.64H63.723L63.915 102.8V102.64ZM64.651 105.264C64.5657 105.243 64.459 105.179 64.331 105.072C64.203 104.965 64.0963 104.912 64.011 104.912C63.9257 104.912 63.8297 104.976 63.723 105.104C63.7657 105.104 63.819 105.125 63.883 105.168C63.947 105.211 64.0003 105.253 64.043 105.296C64.107 105.317 64.1603 105.349 64.203 105.392C64.267 105.435 64.3203 105.456 64.363 105.456C64.427 105.456 64.4697 105.445 64.491 105.424C64.5337 105.381 64.587 105.328 64.651 105.264ZM92.4903 101.68C92.2983 101.787 92.2023 101.904 92.2023 102.032C92.2023 102.117 92.2343 102.245 92.2983 102.416C92.3623 102.587 92.3943 102.715 92.3943 102.8C92.3943 102.821 92.3836 102.864 92.3623 102.928C92.3623 102.971 92.3729 103.024 92.3943 103.088C92.2023 104.24 91.9463 105.243 91.6263 106.096C91.3063 106.928 90.9543 107.589 90.5703 108.08C89.9729 108.784 89.2689 109.285 88.4583 109.584C87.6689 109.861 86.6876 109.989 85.5143 109.968C84.5116 109.989 83.6156 109.893 82.8263 109.68C82.0369 109.445 81.3756 109.157 80.8423 108.816C80.5009 108.56 80.1703 108.229 79.8503 107.824C79.5303 107.419 79.2529 106.971 79.0182 106.48C78.7623 105.968 78.5596 105.477 78.4103 105.008C78.2609 104.517 78.1543 104.069 78.0903 103.664C77.9836 101.317 77.9196 99.568 77.8983 98.416C77.8983 97.264 77.8663 96.656 77.8023 96.592C77.8236 96.592 77.8449 96.112 77.8663 95.152C77.9089 94.192 78.0049 92.6987 78.1543 90.672C78.2183 89.968 78.3356 89.3813 78.5063 88.912C78.6983 88.4427 78.9756 88.016 79.3383 87.632C79.5089 87.0347 79.7756 86.5333 80.1383 86.128C80.5223 85.7013 81.0556 85.36 81.7383 85.104C82.7836 84.6133 83.9889 84.368 85.3542 84.368C86.5703 84.368 87.6476 84.5493 88.5863 84.912C89.5463 85.2747 90.3463 85.8613 90.9863 86.672C90.9649 86.7147 90.9436 86.7573 90.9223 86.8C90.9223 86.8213 90.9223 86.864 90.9223 86.928C90.9223 86.992 90.9543 87.0773 91.0183 87.184C91.0823 87.2907 91.1569 87.3973 91.2423 87.504C91.3276 87.5893 91.4129 87.6853 91.4983 87.792C91.5836 87.8773 91.6369 87.952 91.6583 88.016C91.7436 88.2933 91.8183 88.6133 91.8823 88.976C91.9676 89.3387 92.0423 89.7653 92.1063 90.256C92.1916 91.3867 92.2663 92.4747 92.3303 93.52C92.4156 94.5653 92.4796 95.5787 92.5223 96.56L92.4903 101.68ZM89.4823 89.296C89.4823 89.2533 89.4183 89.168 89.2903 89.04L89.1303 89.2C89.3009 89.328 89.3863 89.392 89.3863 89.392L89.4503 89.36L89.4823 89.296ZM88.1063 88.528C88.0849 88.4 88.0209 88.336 87.9143 88.336C87.8716 88.336 87.8183 88.3573 87.7543 88.4C87.7116 88.4427 87.6689 88.4853 87.6263 88.528C87.5836 88.5707 87.5409 88.6133 87.4983 88.656C87.4769 88.6773 87.4556 88.688 87.4343 88.688H88.1063V88.528ZM90.7303 91.312H90.4743V91.568H90.7303V91.312ZM89.1303 90.224C89.0876 90.096 89.0023 90.032 88.8743 90.032C88.7463 90.032 88.6609 90.096 88.6183 90.224C88.7036 90.3307 88.7996 90.384 88.9063 90.384H89.1303V90.224ZM85.3223 86.416H85.0663V86.672H85.3223V86.416ZM88.9703 91.568L88.7783 91.728L88.9703 91.888L89.1303 91.728L88.9703 91.568ZM86.9223 89.712L86.7623 89.552L86.9223 89.872V89.712ZM85.7383 88.176C85.6956 88.0907 85.6423 88.048 85.5783 88.048C85.5783 88.048 85.5356 88.08 85.4503 88.144C85.3649 88.1867 85.2369 88.2613 85.0663 88.368C85.0876 88.4533 85.1516 88.496 85.2583 88.496C85.2583 88.496 85.4183 88.3893 85.7383 88.176ZM89.5463 93.168H89.2903V93.424H89.5463V93.168ZM84.3303 88.272H84.0743V88.528H84.3303V88.272ZM88.1063 92.08C88.0209 92.1013 87.9356 92.0693 87.8503 91.984C87.7649 91.8987 87.6796 91.8133 87.5943 91.728L87.4343 91.888C87.6903 92.144 87.8716 92.272 87.9783 92.272C87.9996 92.272 88.0209 92.272 88.0423 92.272C88.0636 92.272 88.0849 92.2613 88.1063 92.24V92.08ZM90.9863 95.888C90.9863 95.888 90.9329 95.792 90.8263 95.6L90.6343 95.792C90.7196 95.856 90.7729 95.8987 90.7943 95.92C90.8369 95.9413 90.8689 95.952 90.8903 95.952H90.9863V95.888ZM82.5383 87.504C82.4316 87.376 82.2929 87.312 82.1223 87.312C81.9516 87.312 81.8129 87.376 81.7063 87.504C81.7703 87.632 81.8769 87.696 82.0263 87.696C82.3889 87.696 82.5596 87.6853 82.5383 87.664V87.504ZM83.5623 90C83.5623 89.9573 83.5089 89.8613 83.4023 89.712L83.2103 89.872C83.3809 90 83.4663 90.064 83.4663 90.064L83.5623 90.032V90ZM90.1543 97.136H89.9623L90.1543 97.296V97.136ZM82.6983 90.224V90.384L82.8903 90.224H82.6983ZM91.4983 98.832C91.4343 98.704 91.3169 98.64 91.1463 98.64H90.6343C90.6983 98.8107 90.9009 98.896 91.2423 98.896C91.3703 98.896 91.4556 98.8747 91.4983 98.832ZM87.8503 97.712H87.5943V97.968H87.8503V97.712ZM91.4023 101.264H91.1463V101.52H91.4023V101.264ZM81.1943 92.24C81.1089 92.176 81.0449 92.1333 81.0023 92.112C80.9809 92.0693 80.9596 92.048 80.9383 92.048L80.8423 92.08L81.0343 92.4L81.1943 92.24ZM81.7063 92.752C81.5143 92.7733 81.2903 92.912 81.0343 93.168V93.264C81.0556 93.2213 81.0983 93.1893 81.1623 93.168C81.2476 93.1253 81.3329 93.0933 81.4183 93.072C81.5036 93.0293 81.5676 92.9973 81.6102 92.976C81.6743 92.9333 81.7063 92.88 81.7063 92.816V92.752ZM87.7863 96.304C87.7436 96.24 87.7009 96.1973 87.6583 96.176C87.6156 96.1333 87.5729 96.112 87.5303 96.112C87.4663 96.112 87.3809 96.1333 87.2743 96.176C87.1889 96.2187 87.1143 96.24 87.0503 96.24C86.8583 96.24 86.7623 96.1227 86.7623 95.888C86.7623 95.888 86.8156 95.792 86.9223 95.6C86.8156 95.4293 86.7729 95.248 86.7943 95.056C86.7943 94.9707 86.8049 94.864 86.8263 94.736C86.8689 94.5867 86.9009 94.4373 86.9223 94.288C86.9649 94.1387 87.0076 94 87.0503 93.872C87.0929 93.744 87.1143 93.648 87.1143 93.584L87.2743 93.744L87.4343 93.584L87.2743 93.424L87.1143 93.584C86.8796 93.3493 86.7623 93.0827 86.7623 92.784C86.7623 92.6987 86.7729 92.6027 86.7943 92.496C86.8156 92.368 86.8369 92.24 86.8583 92.112C86.8796 91.9627 86.9009 91.824 86.9223 91.696C86.9436 91.568 86.9543 91.472 86.9543 91.408C86.9543 91.1947 86.8903 90.9813 86.7623 90.768C86.6556 90.5333 86.5063 90.3307 86.3142 90.16C86.1436 89.968 85.9516 89.8187 85.7383 89.712C85.5249 89.584 85.3009 89.52 85.0663 89.52C84.5543 89.5413 84.1809 89.872 83.9463 90.512C83.8396 90.6187 83.7116 91.1413 83.5623 92.08V92.112C83.5623 92.1973 83.5836 92.3253 83.6263 92.496C83.6903 92.6453 83.7223 92.7627 83.7223 92.848C83.7223 93.04 83.6156 93.1787 83.4023 93.264C83.6156 93.4347 83.7223 93.6587 83.7223 93.936C83.7223 94.0427 83.7009 94.2027 83.6583 94.416C83.6156 94.6293 83.5943 94.8 83.5943 94.928C83.5943 95.1413 83.6369 95.312 83.7223 95.44C83.5943 95.504 83.5303 95.5787 83.5303 95.664C83.5303 95.7067 83.5623 95.7707 83.6263 95.856C83.7116 95.9413 83.7543 96.016 83.7543 96.08C83.7543 96.1653 83.6903 96.24 83.5623 96.304C83.6903 96.5387 83.7436 96.8693 83.7223 97.296C83.6796 97.7867 83.6796 98.128 83.7223 98.32C83.5943 98.4267 83.5303 98.5547 83.5303 98.704C83.5303 98.8107 83.5623 98.96 83.6263 99.152C83.6903 99.3227 83.7223 99.4507 83.7223 99.536C83.7223 99.7493 83.6156 99.9093 83.4023 100.016C83.2529 99.888 83.1356 99.792 83.0503 99.728C82.9649 99.664 82.9009 99.632 82.8583 99.632C82.8369 99.632 82.8156 99.632 82.7943 99.632C82.7729 99.632 82.7409 99.6427 82.6983 99.664V99.824C82.8689 99.952 82.9969 100.037 83.0823 100.08C83.1676 100.123 83.2103 100.144 83.2103 100.144C83.3169 100.144 83.3809 100.101 83.4023 100.016L83.7223 100.336V100.528C83.7223 100.656 83.6689 100.763 83.5623 100.848C83.6689 100.976 83.7223 101.2 83.7223 101.52V102.192C83.5943 102.363 83.5303 102.512 83.5303 102.64C83.5303 102.704 83.5516 102.789 83.5943 102.896C83.6583 103.003 83.7223 103.12 83.7863 103.248C83.8716 103.376 83.9356 103.504 83.9783 103.632C84.0423 103.739 84.0743 103.835 84.0743 103.92L84.1063 104.048C84.2983 104.453 84.5436 104.763 84.8423 104.976C85.1409 105.168 85.5036 105.264 85.9303 105.264C85.9943 105.264 86.0476 105.264 86.0903 105.264C86.1543 105.264 86.2076 105.253 86.2503 105.232C86.1436 105.061 86.0903 104.912 86.0903 104.784C86.1116 104.699 86.1543 104.592 86.2183 104.464C86.3036 104.315 86.3996 104.165 86.5063 104.016C86.6129 103.845 86.7089 103.664 86.7943 103.472C86.8796 103.28 86.9329 103.088 86.9543 102.896C86.9116 102.085 86.8903 101.456 86.8903 101.008C86.8903 100.56 86.8476 100.229 86.7623 100.016C86.8903 99.9307 86.9543 99.824 86.9543 99.696C86.9543 99.6107 86.9223 99.504 86.8583 99.376C86.8156 99.248 86.7943 99.152 86.7943 99.088C86.7943 98.96 86.8369 98.8747 86.9223 98.832L86.7623 98.64V98.512C86.7623 98.2987 86.8156 98.1813 86.9223 98.16L86.7623 97.968C86.7409 97.904 86.7303 97.84 86.7303 97.776C86.7303 97.712 86.7303 97.6373 86.7303 97.552C86.7516 97.104 86.8263 96.784 86.9543 96.592C87.0823 96.3787 87.2849 96.272 87.5623 96.272C87.5836 96.272 87.6156 96.272 87.6583 96.272C87.7009 96.272 87.7436 96.2827 87.7863 96.304ZM88.9703 101.2H88.7783L88.9703 101.36V101.2ZM83.1463 95.696H82.8903V95.952H83.1463V95.696ZM88.7143 102.128H88.4583V102.352H88.7143V102.128ZM80.6823 94.384C80.6823 94.3627 80.6289 94.2667 80.5223 94.096C80.3943 94.1173 80.3303 94.2027 80.3303 94.352C80.3303 94.4587 80.3943 94.544 80.5223 94.608L80.6823 94.416V94.384ZM89.2263 103.472H88.9703V103.728H89.2263V103.472ZM82.5383 97.808V97.968L82.6983 97.808H82.5383ZM87.2743 104.56L87.1143 104.912L88.1063 104.56H87.2743ZM88.6183 106.064L88.4583 106.256L88.6183 106.416L88.7783 106.256L88.6183 106.064ZM82.6343 100.592H82.3783V100.848H82.6343V100.592ZM79.6583 97.808C79.5303 97.68 79.4449 97.616 79.4023 97.616L79.3383 97.648L79.4983 97.968L79.6583 97.808ZM87.1783 105.648H86.9223V105.904H87.1783V105.648ZM80.6183 99.408H80.3623V99.664H80.6183V99.408ZM81.7063 100.496H81.6423C81.4503 100.496 81.3543 100.592 81.3543 100.784V100.848H81.5463C81.6529 100.677 81.7063 100.581 81.7063 100.56V100.496ZM83.2103 102.864C83.1676 102.885 83.0609 102.832 82.8903 102.704L82.6983 103.056C82.8689 103.163 82.9649 103.216 82.9863 103.216H83.0503C83.1783 103.067 83.2423 102.971 83.2423 102.928L83.2103 102.864ZM86.0903 106.256C86.0049 106.128 85.8663 106.064 85.6743 106.064C85.5036 106.064 85.3649 106.128 85.2583 106.256L85.4183 106.416H85.8023C85.9729 106.416 86.0689 106.363 86.0903 106.256ZM81.0343 101.872H80.8423L81.0343 102.032V101.872ZM79.6583 100.848C79.6156 100.72 79.5089 100.656 79.3383 100.656C79.1676 100.656 79.0503 100.72 78.9863 100.848L79.1783 101.008H79.3063C79.4983 101.008 79.6156 100.955 79.6583 100.848ZM86.4423 107.76H86.0903L86.4423 107.952V107.76ZM84.0743 105.744C84.0103 105.787 83.8929 105.733 83.7223 105.584L84.0743 105.904V105.744ZM85.1623 106.832H84.9062V107.088H85.1623V106.832ZM79.0823 101.776H78.8263V102.032H79.0823V101.776ZM82.9543 105.648H82.6983V105.904H82.9543V105.648ZM82.0263 104.56C81.9409 104.432 81.7809 104.368 81.5463 104.368C81.3116 104.368 81.1943 104.475 81.1943 104.688C81.1943 104.837 81.2796 104.912 81.4503 104.912H81.8663C81.9943 104.741 82.0583 104.645 82.0583 104.624L82.0263 104.56ZM109.438 102.96C109.438 103.877 109.374 104.709 109.246 105.456C109.139 106.203 108.958 106.832 108.702 107.344C108.467 107.856 108.062 108.304 107.486 108.688C106.91 109.072 106.142 109.392 105.182 109.648C105.16 109.605 105.128 109.584 105.086 109.584C105.043 109.563 105 109.552 104.958 109.552C104.851 109.552 104.744 109.573 104.638 109.616C104.531 109.637 104.424 109.669 104.318 109.712L98.6855 109.68C98.6215 109.723 98.4082 109.755 98.0455 109.776C97.7042 109.776 97.2348 109.787 96.6375 109.808H96.4135C96.2855 109.936 96.1468 110 95.9975 110C95.9122 110 95.8162 109.989 95.7095 109.968C95.6028 109.925 95.4962 109.883 95.3895 109.84C95.2828 109.776 95.1762 109.733 95.0695 109.712C94.9842 109.669 94.9095 109.648 94.8455 109.648C94.6535 109.477 94.5575 109.275 94.5575 109.04C94.5575 108.955 94.5788 108.827 94.6215 108.656C94.6642 108.464 94.6855 108.325 94.6855 108.24C94.6855 108.133 94.6748 108.059 94.6535 108.016C94.6535 107.952 94.6962 107.963 94.7815 108.048L94.6535 86.672C94.5468 86.5013 94.4935 86.32 94.4935 86.128C94.4935 86.0427 94.5042 85.936 94.5255 85.808C94.5682 85.68 94.6108 85.552 94.6535 85.424C94.6962 85.296 94.7282 85.1787 94.7495 85.072C94.7922 84.944 94.8242 84.8373 94.8455 84.752L95.5175 84.368L102.366 84.56L102.558 84.752C102.664 84.688 102.76 84.656 102.845 84.656C102.952 84.6347 103.07 84.624 103.198 84.624C103.134 84.624 103.24 84.6453 103.518 84.688C103.795 84.7307 104.232 84.8053 104.83 84.912C105.619 85.0613 106.291 85.328 106.846 85.712C107.422 86.0747 107.859 86.5333 108.158 87.088C108.435 87.5147 108.616 88.0587 108.702 88.72C108.787 89.3813 108.84 90.16 108.862 91.056C108.883 92.1653 108.744 93.1467 108.446 94C108.168 94.8533 107.72 95.568 107.102 96.144C107.059 96.2507 107.027 96.3467 107.006 96.432C107.006 96.5387 107.048 96.6347 107.134 96.72C107.24 96.8053 107.347 96.8907 107.454 96.976C107.582 97.0613 107.699 97.136 107.806 97.2C107.912 97.2427 107.987 97.264 108.03 97.264C108.456 97.9893 108.787 98.832 109.022 99.792C109.256 100.731 109.395 101.776 109.438 102.928V102.96ZM104.478 86.16H104.126L104.478 86.32V86.16ZM105.438 87.824H105.182V88.08H105.438V87.824ZM103.518 86.768H103.262V87.024H103.518V86.768ZM104.318 87.568L104.222 87.536C104.2 87.536 104.115 87.6 103.966 87.728L104.126 87.92C104.254 87.7707 104.318 87.664 104.318 87.6V87.568ZM104.67 89.488H104.158C104.03 89.488 103.902 89.5413 103.774 89.648C103.838 89.776 103.944 89.84 104.094 89.84H104.478C104.606 89.6907 104.67 89.5947 104.67 89.552V89.488ZM100.638 85.968C100.574 85.84 100.456 85.776 100.286 85.776C100.115 85.776 99.9975 85.84 99.9335 85.968L100.094 86.16H100.318C100.467 86.16 100.574 86.096 100.638 85.968ZM105.374 91.056C105.31 90.928 105.214 90.864 105.086 90.864C104.979 90.864 104.894 90.928 104.83 91.056L105.022 91.248H105.086C105.128 91.248 105.224 91.184 105.374 91.056ZM105.726 95.28C105.662 95.152 105.566 95.088 105.438 95.088C105.331 95.088 105.246 95.152 105.182 95.28L105.374 95.44H105.438C105.438 95.44 105.534 95.3867 105.726 95.28ZM103.806 92.24C103.72 91.3653 103.539 90.6293 103.262 90.032C102.984 89.4347 102.632 89.0187 102.206 88.784C102.291 88.656 102.387 88.592 102.494 88.592C102.558 88.592 102.622 88.6133 102.686 88.656C102.75 88.6987 102.814 88.7413 102.878 88.784C102.963 88.8267 103.038 88.8693 103.102 88.912C103.166 88.9547 103.23 88.976 103.294 88.976C103.294 88.976 103.304 88.976 103.326 88.976C103.347 88.976 103.379 88.9653 103.422 88.944L103.454 88.88C103.454 88.8373 103.39 88.7413 103.262 88.592C103.219 88.592 103.134 88.5813 103.006 88.56C102.899 88.5387 102.782 88.5173 102.654 88.496C102.547 88.4533 102.43 88.4213 102.302 88.4C102.195 88.3573 102.099 88.336 102.014 88.336C101.758 88.336 101.544 88.432 101.374 88.624C100.968 88.752 100.659 89.0933 100.446 89.648C100.211 90.3307 99.9762 90.7467 99.7415 90.896C100.147 90.9387 100.328 91.2907 100.286 91.952C100.307 91.9947 100.318 92.0373 100.318 92.08C100.318 92.1013 100.318 92.1333 100.318 92.176C100.296 92.688 100.04 93.0187 99.5495 93.168C100.126 93.168 100.542 93.5733 100.798 94.384L99.9335 94.736L99.9015 94.832C99.9015 94.8747 99.9655 94.96 100.094 95.088C100.136 95.1093 100.2 95.12 100.286 95.12C100.35 95.12 100.424 95.1093 100.51 95.088C100.595 95.0453 100.68 95.0027 100.766 94.96C100.851 94.896 100.926 94.8427 100.99 94.8C101.075 94.7573 101.128 94.736 101.15 94.736H101.342C101.96 94.7573 102.504 94.512 102.974 94C103.08 93.8507 103.219 93.6373 103.39 93.36C103.56 93.0613 103.752 92.7093 103.966 92.304L103.806 92.24ZM104.574 94.992H104.318V95.28H104.574V94.992ZM98.6855 89.136C98.6642 89.008 98.5468 88.944 98.3335 88.944C98.1628 88.944 98.0562 89.008 98.0135 89.136L98.1735 89.296H98.3975C98.5682 89.296 98.6642 89.2427 98.6855 89.136ZM105.374 95.984C105.31 95.8987 105.224 95.8453 105.118 95.824C105.032 95.7813 104.936 95.76 104.83 95.76C104.723 95.76 104.616 95.7813 104.51 95.824C104.424 95.8453 104.36 95.8987 104.318 95.984L104.478 96.144H104.99C105.139 96.144 105.267 96.0907 105.374 95.984ZM97.2135 88.176H96.9575V88.432H97.2135V88.176ZM103.262 95.088H103.166C103.144 95.088 103.059 95.152 102.91 95.28L103.07 95.44C103.198 95.2907 103.262 95.1947 103.262 95.152V95.088ZM102.814 95.184H102.558V95.44H102.814V95.184ZM108.158 101.04H107.646L108.158 101.232V101.04ZM104.926 98H104.67V98.256H104.926V98ZM99.0695 92.368C99.0695 92.176 98.9202 92.08 98.6215 92.08C98.4082 92.08 98.2588 92.1547 98.1735 92.304C98.3228 92.4107 98.4402 92.496 98.5255 92.56C98.6108 92.624 98.6748 92.656 98.7175 92.656C98.7175 92.656 98.7282 92.656 98.7495 92.656C98.7708 92.656 98.8135 92.6453 98.8775 92.624C99.0055 92.496 99.0695 92.4107 99.0695 92.368ZM103.422 97.36C103.4 97.3813 103.336 97.4027 103.23 97.424C103.123 97.4453 102.974 97.4667 102.782 97.488C102.504 97.5093 102.366 97.6267 102.366 97.84V97.904C102.515 98.0533 102.632 98.128 102.718 98.128C102.782 98.128 102.846 98.096 102.91 98.032C102.974 97.9467 103.027 97.8613 103.07 97.776C103.134 97.6693 103.198 97.5733 103.262 97.488C103.326 97.4027 103.379 97.36 103.422 97.36ZM103.966 98.608H103.806H103.678C103.379 98.608 103.24 98.704 103.262 98.896V98.96C103.326 99.0667 103.454 99.12 103.646 99.12H103.774C103.902 99.056 103.966 98.9493 103.966 98.8V98.608ZM97.6615 92.816C97.6188 92.7093 97.5442 92.656 97.4375 92.656C97.2242 92.656 97.1175 92.752 97.1175 92.944V92.976H97.3415C97.4695 92.976 97.5762 92.9227 97.6615 92.816ZM99.0375 94.384C98.8882 94.256 98.7922 94.192 98.7495 94.192L98.6855 94.224L98.8775 94.576L99.0375 94.384ZM105.534 101.04C105.491 100.933 105.406 100.88 105.278 100.88C105.128 100.88 105.043 100.933 105.022 101.04C105.043 101.168 105.16 101.232 105.374 101.232H105.534V101.04ZM99.7415 95.44H99.5815L99.7415 95.632V95.44ZM101.502 97.264C101.502 97.0933 101.427 97.008 101.278 97.008C101.064 97.008 100.958 97.1147 100.958 97.328L100.99 97.36C101.16 97.488 101.256 97.552 101.278 97.552H101.342C101.448 97.3813 101.502 97.2853 101.502 97.264ZM100.638 96.848C100.574 96.72 100.456 96.656 100.286 96.656H100.094L100.638 97.2V96.848ZM100.99 98.256L100.446 97.904L100.99 98.416V98.256ZM96.6055 94.224H96.4135L96.6055 94.384V94.224ZM98.1735 95.984C98.0242 95.8347 97.8215 95.76 97.5655 95.76C97.3095 95.76 97.1068 95.8347 96.9575 95.984L97.1175 96.144H97.6935C97.9068 96.144 98.0668 96.0907 98.1735 95.984ZM98.8775 97.008C98.8135 96.9013 98.7282 96.848 98.6215 96.848C98.4935 96.848 98.3975 96.9013 98.3335 97.008L98.5255 97.2H98.5895C98.6322 97.2 98.7282 97.136 98.8775 97.008ZM99.9335 98.416C99.8695 98.3093 99.7842 98.256 99.6775 98.256C99.5495 98.256 99.4535 98.3093 99.3895 98.416L99.5815 98.608H99.6455C99.6668 98.608 99.7628 98.544 99.9335 98.416ZM105.534 104.4H105.47C105.427 104.4 105.331 104.336 105.182 104.208L105.022 104.4C105.043 104.507 105.16 104.56 105.374 104.56H105.534V104.4ZM99.3895 99.312C99.3682 99.184 99.2935 99.12 99.1655 99.12C99.0802 99.12 98.9202 99.2373 98.6855 99.472H99.1015C99.2722 99.472 99.3682 99.4187 99.3895 99.312ZM104.478 103.952C104.499 103.888 104.478 103.845 104.414 103.824C104.35 103.781 104.275 103.749 104.19 103.728C104.104 103.685 104.019 103.653 103.934 103.632C103.848 103.589 103.795 103.536 103.774 103.472C104.03 103.173 104.158 102.789 104.158 102.32C104.136 101.915 104.126 101.605 104.126 101.392C104.126 101.179 104.126 101.061 104.126 101.04L104.318 101.232L104.478 101.04L104.318 100.88L104.126 101.04C103.976 100.784 103.816 100.549 103.646 100.336C103.496 100.101 103.358 99.8667 103.23 99.632C103.016 99.376 102.792 99.1733 102.558 99.024C102.323 98.8747 102.088 98.7893 101.854 98.768L102.046 98.608C101.896 98.48 101.8 98.416 101.758 98.416H101.694L101.854 98.96C101.79 98.96 101.715 98.9813 101.63 99.024C101.544 99.0453 101.448 99.088 101.342 99.152C101.256 99.1947 101.171 99.2373 101.086 99.28C101 99.3013 100.926 99.312 100.862 99.312C100.691 99.312 100.552 99.1947 100.446 98.96L100.286 99.12C100.52 99.4187 100.638 99.6107 100.638 99.696L100.67 99.824C100.542 99.952 100.446 100.197 100.382 100.56C100.318 100.901 100.286 101.36 100.286 101.936C100.264 102.427 100.158 102.789 99.9655 103.024C99.7735 103.259 99.4642 103.365 99.0375 103.344L99.2295 103.504C99.5068 103.184 99.7522 103.024 99.9655 103.024C100.179 103.024 100.339 103.131 100.446 103.344C100.446 103.557 100.328 103.749 100.094 103.92C99.9442 104.027 99.8268 104.123 99.7415 104.208C99.6562 104.293 99.6028 104.357 99.5815 104.4C99.9228 104.443 100.243 104.667 100.542 105.072C100.904 105.584 101.171 105.883 101.342 105.968H101.47C101.982 105.989 102.462 105.744 102.91 105.232L103.966 103.856L104.478 104.048V103.952ZM97.8215 98.608L97.4695 98.96L97.6615 99.12H97.8855C98.0135 99.12 98.1095 99.0667 98.1735 98.96L97.8215 98.608ZM103.614 106.128H103.422C103.251 106.128 103.134 106.192 103.07 106.32C103.24 106.448 103.336 106.512 103.358 106.512L103.422 106.48C103.55 106.309 103.614 106.213 103.614 106.192V106.128ZM97.9175 100.624H97.6615V100.88H97.9175V100.624ZM98.1735 102.096H97.9815C97.8962 102.096 97.8215 102.117 97.7575 102.16C97.7148 102.181 97.6828 102.224 97.6615 102.288C97.8322 102.416 97.9175 102.48 97.9175 102.48L98.0135 102.448C98.1202 102.256 98.1735 102.16 98.1735 102.16V102.096ZM99.0375 105.264C98.9948 105.136 98.9095 105.072 98.7815 105.072C98.6535 105.072 98.5682 105.136 98.5255 105.264L98.6855 105.424L98.7815 105.456C98.7815 105.456 98.8668 105.392 99.0375 105.264ZM97.4695 103.856L97.3095 104.048L97.4695 104.208L97.6615 104.048L97.4695 103.856ZM99.2295 107.184L99.0375 107.024L99.2295 107.376V107.184ZM97.9175 107.792H97.6615V108.08H97.9175V107.792Z" fill="#3F3F3F"/>
</svg>
