<svg width="75" height="65" viewBox="0 0 75 65" fill="none" xmlns="http://www.w3.org/2000/svg">
<path d="M34.8 18C34.8533 20.1867 34.6133 22.3733 34.08 24.56C33.5467 26.7467 32.5867 28.8267 31.2 30.8C30.7733 31.8133 29.92 33.2267 28.64 35.04C27.36 36.8 25.7067 39.1733 23.68 42.16C23.6267 42.2133 23.4133 42.3733 23.04 42.64C22.72 42.8533 22.2133 43.2267 21.52 43.76C20.6667 44.4533 19.8133 44.7733 18.96 44.72C19.3333 45.0933 19.52 45.44 19.52 45.76C19.52 46.1867 19.1467 46.72 18.4 47.36C18.0267 47.68 17.76 47.9733 17.6 48.24C17.44 48.5067 17.3333 48.7467 17.28 48.96C17.76 50.5067 18.88 51.2533 20.64 51.2C20.8 51.2 20.96 51.2 21.12 51.2C21.28 51.2 21.44 51.1733 21.6 51.12C21.8133 51.9733 22.16 52.3733 22.64 52.32C22.8 52.32 23.0133 52.2667 23.28 52.16C23.5467 52.0533 23.84 51.92 24.16 51.76C24.48 51.5467 24.7733 51.3867 25.04 51.28C25.36 51.12 25.6267 51.04 25.84 51.04C26.0533 51.04 26.3733 51.0933 26.8 51.2C27.2267 51.2533 27.5467 51.28 27.76 51.28C27.92 51.28 28.16 51.28 28.48 51.28C28.8533 51.2267 29.2 51.1733 29.52 51.12C29.8933 51.0667 30.24 51.04 30.56 51.04C30.9333 50.9867 31.2 50.96 31.36 50.96C33.0133 50.96 34.0267 51.7333 34.4 53.28C34.08 53.92 33.92 54.72 33.92 55.68C33.92 55.8933 33.9467 56.24 34 56.72C34.1067 57.1467 34.1867 57.6 34.24 58.08C34.2933 58.5067 34.3467 58.9333 34.4 59.36C34.4533 59.7867 34.48 60.1333 34.48 60.4C34.4267 61.7867 33.8667 62.8533 32.8 63.6C27.84 63.3333 24.1067 63.1733 21.6 63.12C19.0933 63.0667 17.7867 63.0133 17.68 62.96C17.6267 63.1733 16.3733 63.3333 13.92 63.44C11.52 63.4933 7.89333 63.68 3.04 64C2.13333 63.5733 1.46667 63.0933 1.04 62.56C0.613333 61.9733 0.4 61.3867 0.4 60.8C0.4 60.5867 0.48 60.2667 0.64 59.84C0.853333 59.4133 0.96 59.0933 0.96 58.88C0.96 58.6133 0.826667 58.32 0.56 58C0.506667 57.6267 0.453333 57.2533 0.4 56.88C0.4 56.5067 0.426667 56.1333 0.48 55.76C0.373333 53.7333 0.72 51.8133 1.52 50C2.37333 48.1333 3.6 46.2133 5.2 44.24C5.57333 44.0267 5.97333 43.7067 6.4 43.28C6.88 42.8 7.38667 42.32 7.92 41.84L16 30.16C16.0533 30.1067 16.1333 30 16.24 29.84C16.3467 29.68 16.56 29.4667 16.88 29.2C17.2533 28.9333 17.44 28.5867 17.44 28.16C17.44 28 17.3867 27.7867 17.28 27.52C17.6533 26.9867 18 26.4533 18.32 25.92C18.64 25.3867 18.9867 24.8267 19.36 24.24C19.52 23.92 19.7067 23.4133 19.92 22.72C20.1333 21.9733 20.4 21.0133 20.72 19.84C21.68 20.16 22.2667 20.32 22.48 20.32L22.88 20.24L23.28 19.84C22.7467 19.7333 22.2933 19.44 21.92 18.96C21.6 18.4267 21.3867 17.7067 21.28 16.8C21.1733 15.8933 20.96 15.1733 20.64 14.64C20.3733 14.0533 19.9733 13.6533 19.44 13.44C17.9467 12.8 17.1467 12.48 17.04 12.48C16.4 12.48 15.8133 12.6667 15.28 13.04C14.8 13.4133 14.4267 13.9733 14.16 14.72C13.9467 15.36 13.76 16 13.6 16.64C13.44 17.28 13.28 17.9733 13.12 18.72C12.5867 20 11.68 20.5067 10.4 20.24C9.54667 20.6667 8.61333 21.0133 7.6 21.28C6.64 21.4933 5.6 21.6 4.48 21.6C4.26667 21.6 4.02667 21.6 3.76 21.6C3.54667 21.6 3.33333 21.5733 3.12 21.52C2.64 21.0933 2.13333 20.6133 1.6 20.08C1.12 19.4933 0.88 18.9333 0.88 18.4C0.88 18.08 0.88 17.8667 0.88 17.76C0.773333 15.1467 0.88 12.9333 1.2 11.12C1.57333 9.25333 2.10667 7.86666 2.8 6.96C3.49333 5.78666 4.4 4.77333 5.52 3.92C6.69333 3.06666 8.02667 2.32 9.52 1.68C10.8533 1.04 12.1867 0.613332 13.52 0.399999C14.8533 0.133332 16.2933 -9.53674e-07 17.84 -9.53674e-07C18.16 -9.53674e-07 18.5867 0.0533317 19.12 0.159997C19.6533 0.21333 20.1867 0.266662 20.72 0.319995C21.3067 0.373331 21.84 0.426665 22.32 0.479998C22.8533 0.53333 23.28 0.559997 23.6 0.559997C23.76 0.559997 23.9467 0.639997 24.16 0.799998C24.3733 0.959996 24.5867 1.12 24.8 1.28C25.0133 1.44 25.2267 1.6 25.44 1.76C25.7067 1.92 25.92 2 26.08 2C26.24 2 26.3467 1.97333 26.4 1.92C26.5067 1.86667 26.64 1.73333 26.8 1.52C29.4133 3.49333 31.36 5.86666 32.64 8.64C33.9733 11.4133 34.72 14.5867 34.88 18.16L34.8 18ZM31.2 10.16H30.56V10.8H31.2V10.16ZM21.36 3.76H20.72V4.39999H21.36V3.76ZM25.84 12.96C25.5733 12.6933 25.12 12.56 24.48 12.56H22.88L25.44 13.84C25.7067 13.4133 25.84 13.1733 25.84 13.12V12.96ZM27.6 18C27.6 17.8933 27.44 17.6533 27.12 17.28L26.72 17.68C27.1467 18 27.3867 18.16 27.44 18.16H27.6V18ZM24.96 16.4H24.8C24.7467 16.4 24.6667 16.4533 24.56 16.56C24.4533 16.6133 24.32 16.6933 24.16 16.8L24.56 17.28C24.88 16.9067 25.04 16.6667 25.04 16.56L24.96 16.4ZM23.28 15.12C23.12 14.8 22.8267 14.64 22.4 14.64C21.92 14.64 21.6533 14.8 21.6 15.12L22 15.52H22.56C22.8267 15.52 23.0667 15.3867 23.28 15.12ZM25.84 21.52H25.44H25.12C24.4267 21.52 24.1067 21.7867 24.16 22.32V22.4H25.44C25.7067 21.9733 25.84 21.7333 25.84 21.68V21.52ZM12.16 10.8L15.12 12.96L15.52 12.56L12.16 10.8ZM23.28 24.16C23.12 23.84 22.8267 23.68 22.4 23.68C21.92 23.68 21.6533 23.84 21.6 24.16L22 24.56H22.56C22.8267 24.56 23.0667 24.4267 23.28 24.16ZM24.32 27.76H23.68V28.4H24.32V27.76ZM15.76 33.36H15.12V34H15.76V33.36ZM17.92 39.76H17.28V40.4H17.92V39.76ZM25.6 55.2H24.96V55.84H25.6V55.2ZM12.56 44.72L12.32 44.64C12.32 44.64 12.1067 44.8 11.68 45.12L12.16 45.6C12.4267 45.1733 12.56 44.9333 12.56 44.88V44.72ZM18.96 51.6L18.56 52L18.96 52.4L19.44 52L18.96 51.6ZM22.88 58.4C22.88 57.92 22.4533 57.6533 21.6 57.6L21.52 57.68C21.52 58.2133 21.8667 58.48 22.56 58.48L22.88 58.4ZM23.52 61.2H22.88V61.84H23.52V61.2ZM9.76 48.32H9.12V48.96H9.76V48.32ZM14.24 53.68C13.7067 53.8933 13.28 54.1067 12.96 54.32C12.64 54.5333 12.3733 54.7467 12.16 54.96L12.56 55.44L14.24 53.68ZM10 52H9.52C9.09333 52 8.82667 52.1333 8.72 52.4C9.14667 52.72 9.36 52.88 9.36 52.88H9.52C9.84 52.5067 10 52.2667 10 52.16V52ZM17.68 60.56H17.28L17.68 60.96V60.56ZM14.72 57.6L14.32 57.52H14.16C13.7333 57.52 13.4933 57.68 13.44 58L14.24 58.88C14.56 58.72 14.72 58.4267 14.72 58V57.6ZM8.72 56.96C8.72 56.9067 8.56 56.6933 8.24 56.32C7.97333 56.3733 7.84 56.5867 7.84 56.96C7.84 57.2267 7.97333 57.44 8.24 57.6L8.72 57.12V56.96ZM74.8988 38.4C74.8988 38.9333 74.8188 39.7333 74.6588 40.8C74.4988 41.8133 74.2854 43.0133 74.0188 44.4L74.3388 44.8C74.2321 45.44 74.0988 46.1333 73.9388 46.88C73.8321 47.5733 73.6988 48.3733 73.5388 49.28C73.4321 50.1333 73.2988 51.0933 73.1388 52.16C72.9788 53.1733 72.8188 54.2933 72.6588 55.52C72.4988 56.0533 72.2054 56.72 71.7788 57.52C71.3521 58.2667 70.6588 59.0933 69.6988 60C68.7921 60.8533 67.9654 61.5467 67.2188 62.08C66.4721 62.56 65.8054 62.9333 65.2188 63.2C64.2054 63.4133 63.0321 63.6 61.6988 63.76C60.4188 63.92 58.9521 64.0533 57.2988 64.16C53.7788 64.16 50.8188 63.68 48.4188 62.72C46.0721 61.7067 44.3121 60.16 43.1388 58.08C42.1788 56.16 41.4321 53.9467 40.8988 51.44C40.3654 48.88 40.0188 45.9467 39.8587 42.64C39.9121 42.6933 40.0454 42.72 40.2588 42.72C40.4188 42.72 40.6054 42.6667 40.8188 42.56C41.0321 42.4 41.2721 42.16 41.5388 41.84L40.7388 40.96L40.1788 41.12C40.2321 37.6533 40.2054 34.64 40.0988 32.08C40.0454 29.52 39.9921 27.36 39.9388 25.6C39.8854 23.84 39.8321 22.5333 39.7788 21.68C39.7788 20.7733 39.8588 20.2933 40.0188 20.24C39.8054 15.1733 40.4721 11.0667 42.0188 7.92C43.6188 4.72 45.9921 2.50666 49.1388 1.28C50.2588 0.853329 51.5388 0.533329 52.9788 0.319995C54.4721 0.106664 56.0988 0.0266654 57.8588 0.079998C60.8454 0.0266654 63.4321 0.479998 65.6188 1.43999C67.8588 2.4 69.6721 3.81333 71.0588 5.68C71.8054 6.64 72.2054 7.30666 72.2588 7.68C72.5254 8.48 72.7921 9.41333 73.0588 10.48C73.3254 11.5467 73.5388 12.7733 73.6988 14.16C73.8054 16.2933 73.9654 19.3067 74.1788 23.2C74.3921 27.0933 74.6054 32.0267 74.8188 38L74.8988 38.48V38.4ZM62.2588 2.32H61.6188V2.96H62.2588V2.32ZM66.7388 12.24C66.7388 12.1867 66.6054 11.9467 66.3388 11.52L65.8588 11.92C66.2321 12.24 66.4721 12.4 66.5788 12.4H66.7388V12.24ZM62.8988 10.24C62.6854 9.92 62.4988 9.76 62.3388 9.76C62.0721 9.76 61.6988 10.0533 61.2188 10.64H62.8988V10.24ZM69.9388 17.68H69.2988V18.32H69.9388V17.68ZM65.8588 14.48C65.7521 14.16 65.4854 14 65.0588 14C64.6321 14 64.3388 14.16 64.1788 14.48C64.2321 14.8 64.4721 14.96 64.8988 14.96H65.8588V14.48ZM56.2588 5.36H55.6188V6H56.2588V5.36ZM65.4588 18.8V19.2L65.8588 18.8H65.4588ZM56.5788 9.36H56.4188C56.0454 9.36 55.7788 9.52 55.6188 9.84L56.0988 10.24L56.8988 9.36H56.5788ZM66.9788 22.4H66.3388V23.04H66.9788V22.4ZM70.5788 28.88C70.5788 28.88 70.4454 28.64 70.1788 28.16L69.6988 28.56C70.1254 28.88 70.3654 29.04 70.4188 29.04H70.5788V28.88ZM49.2188 7.68C49.1121 7.36 48.8454 7.2 48.4188 7.2C47.9921 7.2 47.6988 7.36 47.5388 7.68L47.9388 8.08H48.4988C48.8721 8.08 49.1121 7.94666 49.2188 7.68ZM51.3788 13.2L50.9788 13.68L51.3788 14.08L51.7788 13.68L51.3788 13.2ZM68.4188 32H68.0188L68.4188 32.4V32ZM71.4588 36.24L70.9788 36.72L71.4588 37.12L71.8588 36.72L71.4588 36.24ZM70.3388 35.6H69.6988V36.24H70.3388V35.6ZM51.7788 22.64H51.3788L51.7788 23.04V22.64ZM45.6188 18.96H44.9788V19.6H45.6188V18.96ZM62.4988 20.08C61.5388 19.4933 61.0054 18.5067 60.8988 17.12C60.7921 16.16 60.6854 15.3867 60.5788 14.8C60.5254 14.2133 60.4721 13.84 60.4188 13.68C59.2988 12.5067 58.3654 11.92 57.6188 11.92C56.8721 11.92 56.0721 12.24 55.2188 12.88C54.8454 13.1467 54.4721 13.4133 54.0988 13.68C53.7788 13.8933 53.4321 14.16 53.0588 14.48C53.3254 14.5867 53.5388 14.7467 53.6988 14.96C53.8588 15.12 53.9388 15.3067 53.9388 15.52C53.9388 15.6267 53.8854 15.7867 53.7788 16C53.7254 16.2133 53.6188 16.4533 53.4588 16.72C53.3521 16.9333 53.2454 17.1467 53.1388 17.36C53.0854 17.5733 53.0588 17.76 53.0588 17.92C53.0588 18.6667 53.1388 19.52 53.2988 20.48C53.4054 21.7067 53.4854 22.56 53.5388 23.04C53.4321 23.2533 53.3254 23.4667 53.2188 23.68C53.1654 23.84 53.1388 24.0267 53.1388 24.24C53.1388 24.5067 53.1921 24.88 53.2988 25.36C53.4588 25.7867 53.5388 26.16 53.5388 26.48C53.5388 26.96 53.3788 27.3867 53.0588 27.76C53.3788 28.3467 53.5388 28.88 53.5388 29.36C53.5388 29.2 53.4854 29.36 53.3788 29.84C53.3254 30.32 53.2188 31.04 53.0588 32L53.5388 32.4C53.4854 32.6133 53.4854 33.4933 53.5388 35.04C53.5388 36.2133 53.1121 36.9067 52.2588 37.12H52.9788C53.4588 37.28 53.6721 38.32 53.6188 40.24C53.6188 40.4533 53.5921 40.72 53.5388 41.04C53.4854 41.36 53.4054 41.7067 53.2988 42.08C53.2454 42.4533 53.1654 42.8267 53.0588 43.2C53.0054 43.52 52.9788 43.7867 52.9788 44C53.0321 44.32 53.1388 44.9333 53.2988 45.84C53.4588 46.6933 53.6721 47.76 53.9388 49.04C54.1521 49.1467 54.3921 49.4133 54.6588 49.84C54.9254 50.2133 55.1921 50.6933 55.4588 51.28C55.9921 52.5067 56.5521 53.12 57.1388 53.12C57.5121 53.12 58.0188 52.9067 58.6588 52.48L58.1788 52.08C59.0321 51.0667 59.6454 50.16 60.0188 49.36C60.4454 48.5067 60.6854 47.7067 60.7387 46.96V46.8C60.7387 46.64 60.8988 46.4 61.2188 46.08C60.8988 45.76 60.7387 45.4133 60.7387 45.04C60.7387 44.7733 60.8188 44.4 60.9788 43.92C61.1388 43.44 61.2188 43.0933 61.2188 42.88C61.2188 42.4533 61.0588 42.1067 60.7387 41.84C60.7921 41.6267 60.8188 41.3867 60.8188 41.12C60.8721 40.8533 60.8988 40.5867 60.8988 40.32C60.8988 40.16 60.8721 39.92 60.8188 39.6C60.8188 39.28 60.7921 38.96 60.7387 38.64C60.7387 38.32 60.7387 38.0267 60.7387 37.76C60.7387 37.44 60.7387 37.1733 60.7387 36.96C60.7387 35.7867 61.0321 34.9867 61.6188 34.56L60.7387 33.68V31.44C60.7387 30.48 61.1654 29.9467 62.0188 29.84C61.1654 29.5733 60.7387 29.0933 60.7387 28.4C60.7387 28.1867 60.7654 27.84 60.8188 27.36C60.9254 26.88 60.9788 26.5067 60.9788 26.24C60.9788 25.8667 60.8988 25.52 60.7387 25.2C61.1121 24.8267 61.2988 24.3733 61.2988 23.84C61.2988 23.68 61.2721 23.4933 61.2188 23.28C61.1654 23.0133 61.0854 22.7733 60.9788 22.56C60.9254 22.2933 60.8721 22.0533 60.8188 21.84C60.7654 21.5733 60.7387 21.36 60.7387 21.2C60.7387 20.56 61.0321 20.0267 61.6188 19.6C61.9921 19.92 62.2321 20.08 62.3388 20.08H62.4988ZM62.6588 37.36H62.0188V38H62.6588V37.36ZM45.3788 21.76L44.9788 22.64L45.3788 22.16V21.76ZM65.4588 42.64H64.5788L65.4588 43.12V42.64ZM66.0988 48H65.4588V48.64H66.0988V48ZM49.2188 33.68V34.16L49.6988 33.68H49.2188ZM62.8988 50.8H62.4988L62.8988 51.2V50.8ZM51.3788 39.68C50.7388 39.0933 50.2854 38.8 50.0188 38.8H49.6988L50.9788 40.08L51.3788 39.68ZM61.3788 50.16H60.7387V50.8H61.3788V50.16ZM65.0588 55.44C64.8988 55.1733 64.6854 55.04 64.4188 55.04C64.0454 55.04 63.8321 55.1733 63.7788 55.44L64.1788 55.92H64.3388C64.3921 55.92 64.6321 55.76 65.0588 55.44ZM41.7788 32.64H41.1388V33.28H41.7788V32.64ZM60.5788 54H59.9388V54.64H60.5788V54ZM46.2588 40.96L45.8588 41.84L46.6588 40.96H46.2588ZM50.9788 46.48H50.4988C50.2854 46.48 50.0988 46.5333 49.9388 46.64C49.8321 46.6933 49.7521 46.8 49.6988 46.96C49.9121 47.12 50.0454 47.2267 50.0988 47.28C50.2054 47.3333 50.2854 47.36 50.3388 47.36H50.4988C50.8188 46.9867 50.9788 46.7467 50.9788 46.64V46.48ZM57.3788 55.04H56.8988C56.6854 55.04 56.4988 55.0933 56.3388 55.2C56.2321 55.2533 56.1521 55.3333 56.0988 55.44C56.5254 55.76 56.7388 55.92 56.7388 55.92H56.8988C57.2188 55.5467 57.3788 55.3067 57.3788 55.2V55.04ZM58.6588 59.28H58.1788L58.6588 59.76V59.28ZM56.2588 56.96H55.6188V57.6H56.2588V56.96ZM52.6588 54.16L52.2588 53.76L52.6588 54.64V54.16ZM47.9388 50.8C47.6721 50.48 47.3521 50.32 46.9788 50.32C46.1254 50.32 45.5921 50.6133 45.3788 51.2H46.8188C47.0854 51.2 47.2988 51.1733 47.4588 51.12C47.6188 51.0133 47.7788 50.9067 47.9388 50.8Z" fill="#3189E4"/>
</svg>
