<svg width="156" height="112" viewBox="0 0 156 112" fill="none" xmlns="http://www.w3.org/2000/svg">
<path d="M17 105.9C17.1133 104.993 17.2267 103.973 17.34 102.84C17.5667 101.593 17.6233 100.46 17.51 99.44C17.3967 98.3067 17.0567 97.4 16.49 96.72C15.9233 95.9267 14.96 95.53 13.6 95.53C13.3733 95.53 13.0333 95.5867 12.58 95.7C12.1267 95.7 11.9 95.7 11.9 95.7C11.7867 95.7 11.4467 95.87 10.88 96.21C10.4267 96.55 9.91667 96.9467 9.35 97.4C8.78333 97.74 8.21667 98.08 7.65 98.42C7.19667 98.76 6.91333 98.9867 6.8 99.1C6.8 99.1 6.68667 99.1567 6.46 99.27C6.23333 99.27 6.06333 99.27 5.95 99.27C5.83667 99.27 5.66667 99.27 5.44 99.27C5.32667 99.1567 5.21333 99.1 5.1 99.1C5.32667 98.76 5.72333 98.3067 6.29 97.74C6.97 97.06 7.65 96.38 8.33 95.7C9.12333 94.9067 9.80333 94.2267 10.37 93.66C11.05 92.98 11.56 92.5267 11.9 92.3C12.24 91.96 13.09 90.94 14.45 89.24C15.81 87.4267 17.34 85.2733 19.04 82.78C20.8533 80.2867 22.7233 77.6233 24.65 74.79C26.69 71.9567 28.5033 69.35 30.09 66.97C31.79 64.4767 33.15 62.4367 34.17 60.85C35.3033 59.15 35.87 58.3 35.87 58.3C35.87 58.0733 35.8133 57.79 35.7 57.45C35.7 56.9967 35.7 56.7133 35.7 56.6L34 60C33.7733 59.7733 33.4333 59.2633 32.98 58.47C32.5267 57.5633 32.3 56.94 32.3 56.6C32.3 56.3733 32.5267 55.8067 32.98 54.9C33.5467 53.9933 33.8867 53.4267 34 53.2V52.35V51.5C33.8867 51.2733 33.6033 50.7067 33.15 49.8C32.81 48.8933 32.5267 48.3267 32.3 48.1C29.0133 48.44 26.35 48.6667 24.31 48.78C22.27 48.8933 20.57 48.6667 19.21 48.1C17.9633 47.5333 16.8867 46.4567 15.98 44.87C15.1867 43.2833 14.3933 40.96 13.6 37.9C13.3733 37.3333 13.09 36.4267 12.75 35.18C12.41 33.82 12.1267 33.0267 11.9 32.8C11.7867 32.6867 11.4467 32.4033 10.88 31.95C10.4267 31.4967 10.2 31.2133 10.2 31.1C10.2 28.9467 11.2767 26.68 13.43 24.3C15.6967 21.92 18.3033 19.71 21.25 17.67C24.1967 15.63 27.2 13.9867 30.26 12.74C33.32 11.38 35.7 10.7 37.4 10.7C41.5933 10.7 45.56 11.4367 49.3 12.91C53.04 14.3833 56.3267 16.4233 59.16 19.03C61.9933 21.5233 64.2033 24.5833 65.79 28.21C67.49 31.7233 68.34 35.52 68.34 39.6V41.3C68.34 42.4333 68.2833 43.7367 68.17 45.21C68.0567 46.57 68 47.5333 68 48.1C67.4333 48.8933 66.6967 49.8567 65.79 50.99C64.9967 52.1233 64.2033 53.3133 63.41 54.56C62.6167 55.6933 61.9367 56.8833 61.37 58.13C60.9167 59.3767 60.69 60.51 60.69 61.53C58.4233 61.53 56.5533 62.4933 55.08 64.42C53.6067 66.2333 52.8133 68.16 52.7 70.2L51 68.5C50.0933 68.7267 49.47 69.4067 49.13 70.54C48.9033 71.6733 48.7333 72.9767 48.62 74.45C48.5067 75.81 48.3367 77.2267 48.11 78.7C47.8833 80.1733 47.43 81.3067 46.75 82.1V75.3C46.41 75.3 45.6733 75.5267 44.54 75.98C43.4067 76.4333 42.7267 76.7733 42.5 77C42.5 77 42.4433 77.1133 42.33 77.34C42.33 77.4533 42.33 77.6233 42.33 77.85C42.33 78.9833 42.67 79.7767 43.35 80.23C44.03 80.57 44.37 81.4767 44.37 82.95C44.37 84.8767 44.1433 86.4633 43.69 87.71C43.2367 88.8433 42.2733 90.3733 40.8 92.3C40.8 92.5267 41.0267 92.8667 41.48 93.32C41.9333 93.7733 42.2733 94 42.5 94C42.7267 94 43.2933 93.7733 44.2 93.32C45.1067 92.7533 45.6733 92.4133 45.9 92.3H46.75C48.3367 92.3 49.8667 92.64 51.34 93.32C52.8133 93.8867 54.4 94.17 56.1 94.17C57.46 94.17 58.65 94.1133 59.67 94C60.8033 93.8867 61.88 93.32 62.9 92.3V99.1H66.3C65.8467 100.347 65.11 101.423 64.09 102.33C63.07 103.123 62.1067 103.973 61.2 104.88C60.2933 105.673 59.6133 106.58 59.16 107.6C58.7067 108.507 58.82 109.64 59.5 111C59.16 110.887 58.5933 110.717 57.8 110.49C57.0067 110.263 56.1567 110.093 55.25 109.98C54.3433 109.753 53.4933 109.583 52.7 109.47C51.9067 109.357 51.34 109.3 51 109.3C50.7733 109.3 50.2067 109.413 49.3 109.64C48.5067 109.753 47.6567 109.923 46.75 110.15C45.8433 110.377 44.9367 110.603 44.03 110.83C43.2367 110.943 42.7267 111 42.5 111C41.9333 111 41.0833 111 39.95 111C38.8167 111.113 38.25 111.17 38.25 111.17V105.22C38.25 105.22 37.91 104.993 37.23 104.54C36.6633 103.973 36.1533 103.86 35.7 104.2C35.4733 104.427 34.9067 105.277 34 106.75C33.0933 108.223 32.5267 109.073 32.3 109.3C31.62 110.207 30.94 110.83 30.26 111.17C29.58 111.51 28.7867 111.68 27.88 111.68C27.0867 111.793 26.1233 111.793 24.99 111.68C23.97 111.567 22.78 111.51 21.42 111.51C21.42 110.377 21.08 109.13 20.4 107.77C19.8333 106.41 18.7 105.787 17 105.9ZM44.2 99.95V100.8C44.4267 101.14 44.9367 101.763 45.73 102.67C46.6367 103.463 47.26 103.973 47.6 104.2V95.02C46.3533 95.02 45.4467 95.6433 44.88 96.89C44.4267 98.0233 44.2 99.0433 44.2 99.95ZM57.8 102.5C57.2333 102.273 56.95 102.557 56.95 103.35C56.95 104.143 57.2333 104.427 57.8 104.2C58.3667 103.973 58.65 103.69 58.65 103.35C58.65 103.01 58.3667 102.727 57.8 102.5ZM34 99.1C34 99.3267 34.2267 99.61 34.68 99.95C35.1333 100.29 35.4733 100.573 35.7 100.8C35.7 100.8 35.8133 100.857 36.04 100.97C36.2667 100.97 36.4367 100.97 36.55 100.97C36.6633 100.97 36.8333 100.97 37.06 100.97C37.2867 100.857 37.4 100.8 37.4 100.8C37.6267 100.687 37.91 100.46 38.25 100.12C38.7033 99.6667 38.9867 99.3267 39.1 99.1C39.1 99.1 39.1 98.9867 39.1 98.76C39.2133 98.5333 39.27 98.3633 39.27 98.25C39.27 98.1367 39.2133 97.9667 39.1 97.74C39.1 97.5133 39.1 97.4 39.1 97.4C38.9867 97.1733 38.7033 96.89 38.25 96.55C37.91 96.0967 37.6267 95.8133 37.4 95.7C37.4 95.7 37.2867 95.7 37.06 95.7C36.8333 95.5867 36.6633 95.53 36.55 95.53C36.3233 95.53 36.0967 95.5867 35.87 95.7C35.7567 95.7 35.7 95.7 35.7 95.7C35.4733 95.9267 35.1333 96.4933 34.68 97.4C34.2267 98.3067 34 98.8733 34 99.1ZM17 90.6C16.0933 90.6 15.64 91.1667 15.64 92.3C15.64 93.4333 16.0933 94 17 94C17.9067 94 18.36 93.4333 18.36 92.3C18.36 91.1667 17.9067 90.6 17 90.6ZM11.9 85.5H13.94C13.94 87.0867 13.26 88.22 11.9 88.9V85.5ZM0.68 77H3.4C3.51333 77.1133 3.74 77.68 4.08 78.7C4.53333 79.6067 5.04333 80.74 5.61 82.1C6.17667 83.46 6.57333 84.5933 6.8 85.5C6.8 85.6133 6.85667 86.01 6.97 86.69C7.08333 87.2567 7.14 87.5967 7.14 87.71C5.78 87.71 4.64667 87.37 3.74 86.69C2.94667 85.8967 2.32333 84.9333 1.87 83.8C1.41667 82.6667 1.07667 81.4767 0.85 80.23C0.736667 78.9833 0.68 77.9067 0.68 77ZM20.4 85.5C19.4933 85.5 19.04 86.0667 19.04 87.2C19.04 88.3333 19.4933 88.9 20.4 88.9C21.3067 88.9 21.76 88.3333 21.76 87.2C21.76 86.0667 21.3067 85.5 20.4 85.5ZM45.9 85.5C46.8067 85.5 47.26 86.0667 47.26 87.2C47.26 88.3333 46.8067 88.9 45.9 88.9C44.9933 88.9 44.54 88.3333 44.54 87.2C44.54 86.0667 44.9933 85.5 45.9 85.5ZM22.1 82.1C21.1933 82.1 20.74 82.6667 20.74 83.8C20.74 84.9333 21.1933 85.5 22.1 85.5C23.0067 85.5 23.46 84.9333 23.46 83.8C23.46 82.6667 23.0067 82.1 22.1 82.1ZM42.5 82.1C41.5933 82.1 41.14 82.6667 41.14 83.8C41.14 84.9333 41.5933 85.5 42.5 85.5C43.4067 85.5 43.86 84.9333 43.86 83.8C43.86 82.6667 43.4067 82.1 42.5 82.1ZM13.6 75.3C14.5067 75.3 14.96 75.8667 14.96 77C14.96 78.1333 14.5067 78.7 13.6 78.7C12.6933 78.7 12.24 78.1333 12.24 77C12.24 75.8667 12.6933 75.3 13.6 75.3ZM25.5 75.3C24.5933 75.3 24.14 75.8667 24.14 77C24.14 78.1333 24.5933 78.7 25.5 78.7C26.4067 78.7 26.86 78.1333 26.86 77C26.86 75.8667 26.4067 75.3 25.5 75.3ZM17 73.6C17.9067 73.6 18.36 74.1667 18.36 75.3C18.36 76.4333 17.9067 77 17 77C16.0933 77 15.64 76.4333 15.64 75.3C15.64 74.1667 16.0933 73.6 17 73.6ZM35.7 68.5L30.6 71.9C30.7133 71.9 30.8267 71.9567 30.94 72.07C31.1667 72.07 31.3367 72.07 31.45 72.07C31.5633 72.07 31.7333 72.07 31.96 72.07C32.1867 71.9567 32.3 71.9 32.3 71.9C32.64 71.6733 33.2067 71.1633 34 70.37C34.9067 69.4633 35.4733 68.84 35.7 68.5ZM32.3 65.1C31.3933 65.1 30.94 65.6667 30.94 66.8C30.94 67.9333 31.3933 68.5 32.3 68.5C33.2067 68.5 33.66 67.9333 33.66 66.8C33.66 65.6667 33.2067 65.1 32.3 65.1ZM49.3 61.7V66.8C49.5267 66.6867 49.81 66.46 50.15 66.12C50.6033 65.6667 50.8867 65.3267 51 65.1C51 65.1 51 64.9867 51 64.76C51.1133 64.5333 51.17 64.3633 51.17 64.25C51.17 64.1367 51.1133 63.9667 51 63.74C51 63.5133 51 63.4 51 63.4C50.8867 63.1733 50.6033 62.89 50.15 62.55C49.81 62.0967 49.5267 61.8133 49.3 61.7ZM39.1 61.7C38.5333 61.4733 38.25 61.7567 38.25 62.55C38.25 63.23 38.5333 63.5133 39.1 63.4C39.6667 63.2867 39.95 63.0033 39.95 62.55C39.95 62.21 39.6667 61.9267 39.1 61.7ZM28.9 49.8C29.4667 50.0267 29.75 50.31 29.75 50.65C29.75 50.99 29.4667 51.2733 28.9 51.5C28.3333 51.7267 28.05 51.4433 28.05 50.65C28.05 49.8567 28.3333 49.5733 28.9 49.8ZM34 39.6L42.5 48.1C42.16 46.6267 42.16 45.38 42.5 44.36C42.84 43.34 43.2367 42.4333 43.69 41.64C44.2567 40.7333 44.7667 39.8833 45.22 39.09C45.7867 38.2967 46.07 37.3333 46.07 36.2C46.07 35.52 45.9 34.7267 45.56 33.82C45.22 32.8 44.71 31.8367 44.03 30.93C43.4633 29.91 42.7833 29.1167 41.99 28.55C41.31 27.87 40.5733 27.53 39.78 27.53C39.6667 27.53 39.4967 27.5867 39.27 27.7C39.1567 27.7 39.1 27.7 39.1 27.7L35.7 34.5H34V39.6ZM66.3 46.4C65.3933 46.4 64.94 46.9667 64.94 48.1C64.94 49.2333 65.3933 49.8 66.3 49.8C67.2067 49.8 67.66 49.2333 67.66 48.1C67.66 46.9667 67.2067 46.4 66.3 46.4ZM34 43C33.4333 42.7733 33.15 43.0567 33.15 43.85C33.15 44.6433 33.4333 44.9267 34 44.7C34.5667 44.4733 34.85 44.19 34.85 43.85C34.85 43.51 34.5667 43.2267 34 43ZM44.2 41.3C43.2933 41.3 42.84 41.8667 42.84 43C42.84 44.1333 43.2933 44.7 44.2 44.7C45.1067 44.7 45.56 44.1333 45.56 43C45.56 41.8667 45.1067 41.3 44.2 41.3ZM27.2 31.1C26.2933 31.1 25.84 31.6667 25.84 32.8C25.84 33.9333 26.2933 34.5 27.2 34.5C28.1067 34.5 28.56 33.9333 28.56 32.8C28.56 31.6667 28.1067 31.1 27.2 31.1ZM32.3 31.1C31.7333 30.8733 31.45 31.1567 31.45 31.95C31.45 32.7433 31.7333 33.0267 32.3 32.8C32.8667 32.5733 33.15 32.29 33.15 31.95C33.15 31.61 32.8667 31.3267 32.3 31.1ZM15.3 27.7C15.1867 27.4733 14.96 27.4167 14.62 27.53C14.3933 27.53 14.11 27.7 13.77 28.04C13.5433 28.2667 13.3733 28.55 13.26 28.89C13.26 29.1167 13.3733 29.2867 13.6 29.4C14.1667 29.6267 14.62 29.57 14.96 29.23C15.4133 28.7767 15.5267 28.2667 15.3 27.7ZM35.7 27.7C34.7933 27.7 34.34 28.2667 34.34 29.4C34.34 30.5333 34.7933 31.1 35.7 31.1C36.6067 31.1 37.06 30.5333 37.06 29.4C37.06 28.2667 36.6067 27.7 35.7 27.7ZM79.9 5.6V7.3V9C79.7867 9.56666 79.5033 10.7 79.05 12.4C78.71 14.1 78.4267 15.2333 78.2 15.8C78.2 15.5733 78.1433 15.1767 78.03 14.61C78.03 13.93 78.03 13.4767 78.03 13.25C78.03 11.6633 78.0867 10.4167 78.2 9.51C78.4267 8.49 78.9933 7.18667 79.9 5.6ZM98.6797 70.2L93.5797 58.3C94.4864 57.96 95.393 57.5633 96.2997 57.11C97.3197 56.5433 98.113 55.8067 98.6797 54.9C97.2064 52.18 95.8464 50.2533 94.5997 49.12C93.4664 47.8733 91.5397 47.25 88.8197 47.25C88.8197 49.0633 89.103 50.65 89.6697 52.01C90.2364 53.37 90.5197 55.0133 90.5197 56.94C90.4064 56.94 90.0664 56.94 89.4997 56.94C89.0464 56.8267 88.7064 56.7133 88.4797 56.6C88.0264 56.3733 87.4597 56.09 86.7797 55.75C86.213 55.2967 85.9297 55.0133 85.9297 54.9V26C84.683 25.8867 83.8897 25.5467 83.5497 24.98C83.323 24.3 83.2097 23.5067 83.2097 22.6C83.2097 20.9 83.833 18.8033 85.0797 16.31C86.4397 13.7033 88.083 11.2667 90.0097 9C92.0497 6.61999 94.203 4.63666 96.4697 3.04999C98.8497 1.34999 101.06 0.499994 103.1 0.499994C104.006 0.499994 104.686 1.18 105.14 2.54C105.593 3.89999 106.273 4.91999 107.18 5.6C105.48 6.28 104.46 7.07333 104.12 7.98C103.78 8.88666 103.61 10.02 103.61 11.38V12.4C103.61 12.9667 103.666 13.7033 103.78 14.61C104.006 15.4033 104.573 15.8 105.48 15.8C106.84 15.8 108.256 15.5167 109.73 14.95C111.316 14.3833 112.846 13.8167 114.32 13.25C115.906 12.57 117.493 11.9467 119.08 11.38C120.666 10.8133 122.253 10.53 123.84 10.53H128.94C130.413 10.53 131.886 10.6433 133.36 10.87C134.946 11.0967 136.42 11.4933 137.78 12.06C139.14 12.6267 140.273 13.3633 141.18 14.27C142.086 15.0633 142.653 16.14 142.88 17.5L146.28 15.8C146.28 15.8 146.563 16.1967 147.13 16.99C147.696 17.67 148.32 18.5767 149 19.71C149.793 20.73 150.53 21.8633 151.21 23.11C152.003 24.2433 152.626 25.2067 153.08 26C153.873 27.36 154.383 29.1733 154.61 31.44C154.836 33.7067 154.95 35.69 154.95 37.39C154.95 39.2033 154.666 40.5633 154.1 41.47C153.533 42.3767 152.06 43.4533 149.68 44.7C149.906 44.8133 150.246 45.0967 150.7 45.55C151.266 46.0033 151.833 46.5133 152.4 47.08C152.966 47.6467 153.476 48.2133 153.93 48.78C154.383 49.2333 154.666 49.5733 154.78 49.8C155.46 50.48 155.8 51.0467 155.8 51.5C154.893 51.5 153.93 51.6133 152.91 51.84C151.89 52.0667 150.926 52.4633 150.02 53.03C149.226 53.4833 148.603 54.1633 148.15 55.07C147.696 55.8633 147.64 56.94 147.98 58.3C149.113 57.7333 149.963 57.96 150.53 58.98C151.21 59.8867 151.55 60.7933 151.55 61.7C151.55 62.8333 151.323 63.91 150.87 64.93C150.53 65.95 150.133 66.97 149.68 67.99C149.34 69.01 148.943 70.0867 148.49 71.22C148.15 72.24 147.98 73.3733 147.98 74.62V75.3C148.206 75.5267 148.773 75.8667 149.68 76.32C150.586 76.7733 151.153 77 151.38 77C150.813 77.34 150.133 77.9067 149.34 78.7C148.546 79.4933 147.753 80.4 146.96 81.42C146.166 82.3267 145.486 83.29 144.92 84.31C144.466 85.2167 144.24 85.9533 144.24 86.52C144.24 86.86 144.24 87.3133 144.24 87.88C144.353 88.4467 144.466 88.7867 144.58 88.9L153.08 95.7V97.4C151.153 97.2867 149.283 97.9667 147.47 99.44C145.656 100.8 143.616 102.33 141.35 104.03C139.196 105.73 136.703 107.317 133.87 108.79C131.15 110.263 127.92 111 124.18 111C123.273 111 121.46 110.377 118.74 109.13C116.02 107.883 113.13 106.41 110.07 104.71C107.123 103.01 104.46 101.31 102.08 99.61C99.813 97.91 98.6797 96.6067 98.6797 95.7V70.2ZM122.48 68.84V90.6C122.48 91.7333 123.046 92.8667 124.18 94C125.313 95.1333 126.446 95.7 127.58 95.7C128.26 95.7 128.826 95.3033 129.28 94.51C129.733 93.6033 130.073 92.47 130.3 91.11C130.64 89.75 130.866 88.2767 130.98 86.69C131.093 85.1033 131.15 83.63 131.15 82.27V77.68C131.15 74.3933 130.64 71.73 129.62 69.69C128.6 67.65 126.163 66.63 122.31 66.63C121.063 66.63 120.1 66.8567 119.42 67.31C118.853 67.65 118.173 68.6133 117.38 70.2C117.606 69.9733 118.173 69.69 119.08 69.35C119.986 68.8967 120.553 68.6133 120.78 68.5C120.893 68.5 121.176 68.5567 121.63 68.67C122.083 68.7833 122.366 68.84 122.48 68.84ZM136.08 88.9C136.306 90.3733 136.986 91.62 138.12 92.64C139.253 93.5467 140.556 94 142.03 94H142.88C143.106 93.8867 143.39 93.66 143.73 93.32C144.183 92.8667 144.466 92.5267 144.58 92.3C143.333 91.0533 142.256 90.1467 141.35 89.58C140.443 89.0133 139.253 88.73 137.78 88.73C137.553 88.73 137.213 88.7867 136.76 88.9C136.42 88.9 136.193 88.9 136.08 88.9ZM154.78 87.2C154.666 87.4267 154.383 87.7667 153.93 88.22C153.59 88.56 153.306 88.7867 153.08 88.9C153.08 88.9 152.966 88.9567 152.74 89.07C152.513 89.07 152.343 89.07 152.23 89.07C152.116 89.07 151.946 89.07 151.72 89.07C151.606 88.9567 151.493 88.9 151.38 88.9L154.78 87.2ZM90.1797 85.5C91.0864 85.5 91.5397 86.0667 91.5397 87.2C91.5397 88.3333 91.0864 88.9 90.1797 88.9C89.273 88.9 88.8197 88.3333 88.8197 87.2C88.8197 86.0667 89.273 85.5 90.1797 85.5ZM138.97 73.09C138.97 73.9967 139.083 75.1867 139.31 76.66C139.65 78.1333 140.556 78.87 142.03 78.87C142.143 78.87 142.313 78.87 142.54 78.87C142.766 78.7567 142.88 78.7 142.88 78.7C143.106 78.5867 143.39 78.36 143.73 78.02C144.183 77.5667 144.466 77.2267 144.58 77C143.9 75.8667 143.106 74.96 142.2 74.28C141.293 73.4867 140.216 73.09 138.97 73.09ZM107.01 53.2C107.01 56.8267 106.953 60.2833 106.84 63.57C106.84 66.8567 107.52 70.2 108.88 73.6C108.993 73.8267 109.22 74.1667 109.56 74.62C110.013 75.0733 110.353 75.3 110.58 75.3C111.033 75.3 111.883 75.0733 113.13 74.62C114.49 74.1667 115.34 73.8267 115.68 73.6C115.34 71.3333 115.17 69.4067 115.17 67.82C115.17 66.2333 115.396 64.76 115.85 63.4C116.303 62.04 116.926 60.7367 117.72 59.49C118.513 58.13 119.533 56.6 120.78 54.9C120.553 55.1267 119.986 55.4667 119.08 55.92C118.173 56.26 117.606 56.4867 117.38 56.6C117.266 56.6 116.983 56.5433 116.53 56.43C116.076 56.3167 115.793 56.26 115.68 56.26V34.5L117.38 32.8C118.06 33.7067 119.08 34.4433 120.44 35.01C121.913 35.4633 122.65 36.1433 122.65 37.05C122.65 37.1633 122.593 37.3333 122.48 37.56C122.48 37.7867 122.48 37.9 122.48 37.9C122.366 38.1267 122.083 38.4667 121.63 38.92C121.29 39.26 121.006 39.4867 120.78 39.6L122.48 41.3C122.48 41.4133 122.48 41.7533 122.48 42.32C122.593 42.8867 122.65 43.5667 122.65 44.36C122.763 45.04 122.82 45.7767 122.82 46.57C122.82 47.25 122.82 47.76 122.82 48.1C122.82 48.44 122.82 49.2333 122.82 50.48C122.933 51.7267 122.933 53.0867 122.82 54.56C122.82 56.0333 122.65 57.45 122.31 58.81C122.083 60.0567 121.573 61.02 120.78 61.7H121.63H122.48C122.82 61.5867 123.386 61.36 124.18 61.02C124.973 60.68 125.823 60.34 126.73 60C127.636 59.66 128.486 59.32 129.28 58.98C130.073 58.64 130.64 58.4133 130.98 58.3C129.28 57.62 128.26 56.8267 127.92 55.92C127.58 55.0133 127.41 53.88 127.41 52.52C127.41 51.2733 127.58 50.14 127.92 49.12C128.373 48.1 128.826 47.08 129.28 46.06C129.733 45.04 130.13 43.9633 130.47 42.83C130.923 41.6967 131.15 40.3367 131.15 38.75C131.15 36.1433 130.923 33.48 130.47 30.76C130.016 28.04 128.486 25.8867 125.88 24.3C125.88 25.0933 125.313 25.8867 124.18 26.68C123.16 27.4733 121.97 28.2667 120.61 29.06C119.25 29.74 117.89 30.42 116.53 31.1C115.283 31.78 114.433 32.3467 113.98 32.8C113.98 32.6867 113.923 32.5733 113.81 32.46C113.81 32.2333 113.81 32.0633 113.81 31.95C113.81 31.8367 113.81 31.6667 113.81 31.44C113.923 31.2133 113.98 31.1 113.98 31.1C114.206 30.76 114.716 30.1933 115.51 29.4C116.416 28.4933 117.04 27.9267 117.38 27.7C117.153 27.4733 116.586 27.19 115.68 26.85C114.773 26.3967 114.206 26.1133 113.98 26H113.13H112.28C111.26 26.5667 110.41 27.02 109.73 27.36C109.05 27.5867 108.483 27.87 108.03 28.21C107.69 28.4367 107.406 28.7767 107.18 29.23C107.066 29.57 107.01 30.1367 107.01 30.93C107.01 31.1567 107.01 31.4967 107.01 31.95C107.123 32.4033 107.18 32.6867 107.18 32.8C107.18 32.9133 107.236 33.2533 107.35 33.82C107.576 34.2733 107.803 34.7833 108.03 35.35C108.256 35.9167 108.426 36.4833 108.54 37.05C108.766 37.5033 108.88 37.7867 108.88 37.9C108.88 38.1267 108.653 38.4667 108.2 38.92C107.746 39.3733 107.406 39.6 107.18 39.6V42.32C107.18 43.5667 107.123 44.9267 107.01 46.4C107.01 47.8733 107.01 49.29 107.01 50.65V53.2ZM110.58 70.2C111.486 70.2 111.94 70.7667 111.94 71.9C111.94 73.0333 111.486 73.6 110.58 73.6C109.673 73.6 109.22 73.0333 109.22 71.9C109.22 70.7667 109.673 70.2 110.58 70.2ZM86.7797 70.2C86.553 70.7667 86.2697 71.05 85.9297 71.05C85.4764 71.05 85.193 70.7667 85.0797 70.2C84.9664 69.6333 85.2497 69.35 85.9297 69.35C86.723 69.35 87.0064 69.6333 86.7797 70.2ZM143.73 58.13C143.616 58.13 143.446 58.1867 143.22 58.3C142.993 58.3 142.88 58.3 142.88 58.3C142.653 58.4133 142.313 58.6967 141.86 59.15C141.52 59.49 141.293 59.7733 141.18 60C141.293 60 141.406 60.0567 141.52 60.17C141.746 60.17 141.916 60.17 142.03 60.17C142.143 60.17 142.313 60.17 142.54 60.17C142.766 60.0567 142.88 60 142.88 60C143.106 59.8867 143.39 59.66 143.73 59.32C144.183 58.8667 144.466 58.5267 144.58 58.3C144.466 58.3 144.296 58.3 144.07 58.3C143.956 58.1867 143.843 58.13 143.73 58.13ZM139.48 56.6C138.573 56.6 138.12 57.1667 138.12 58.3C138.12 59.4333 138.573 60 139.48 60C140.386 60 140.84 59.4333 140.84 58.3C140.84 57.1667 140.386 56.6 139.48 56.6ZM83.3797 53.2C84.2864 53.2 84.7397 53.7667 84.7397 54.9C84.7397 56.0333 84.2864 56.6 83.3797 56.6C82.473 56.6 82.0197 56.0333 82.0197 54.9C82.0197 53.7667 82.473 53.2 83.3797 53.2ZM119.08 46.4L117.38 51.5C118.286 51.16 118.796 50.7067 118.91 50.14C119.136 49.46 119.25 48.78 119.25 48.1C119.25 47.8733 119.193 47.59 119.08 47.25C119.08 46.7967 119.08 46.5133 119.08 46.4ZM142.88 43C143.56 44.36 144.693 45.04 146.28 45.04V43H142.88ZM102.08 19.2C101.966 18.9733 101.74 18.9167 101.4 19.03C101.173 19.03 100.89 19.2 100.55 19.54C100.323 19.7667 100.153 20.05 100.04 20.39C100.04 20.6167 100.153 20.7867 100.38 20.9C100.946 21.1267 101.4 21.07 101.74 20.73C102.193 20.2767 102.306 19.7667 102.08 19.2ZM105.48 19.2C105.366 18.9733 105.14 18.9167 104.8 19.03C104.573 19.03 104.29 19.2 103.95 19.54C103.723 19.7667 103.553 20.05 103.44 20.39C103.44 20.6167 103.553 20.7867 103.78 20.9C104.346 21.1267 104.8 21.07 105.14 20.73C105.593 20.2767 105.706 19.7667 105.48 19.2ZM113.98 2.19999C113.753 2.76666 113.186 3.04999 112.28 3.04999C111.373 3.04999 110.806 2.76666 110.58 2.19999C110.466 1.97333 110.58 1.80333 110.92 1.69C111.373 1.57666 111.826 1.51999 112.28 1.51999C112.733 1.51999 113.13 1.57666 113.47 1.69C113.923 1.80333 114.093 1.97333 113.98 2.19999Z" fill="#3189E4"/>
</svg>
