<svg width="74" height="64" viewBox="0 0 74 64" fill="none" xmlns="http://www.w3.org/2000/svg">
<path d="M35.16 40.08C35.1067 40.72 35.0267 42 34.92 43.92C34.8667 45.84 34.7333 48.4267 34.52 51.68C34.5733 52.6933 34.36 53.7333 33.88 54.8C33.4 55.8133 32.68 56.9333 31.72 58.16C30.6533 59.3867 29.6133 60.4267 28.6 61.28C27.64 62.08 26.68 62.6933 25.72 63.12C25.1333 63.44 24.1733 63.68 22.84 63.84C21.5067 63.9467 19.9067 64 18.04 64C16.76 64 15.48 63.9467 14.2 63.84C12.92 63.68 11.72 63.4133 10.6 63.04C10.44 62.72 10.2 62.4267 9.88 62.16C9.61333 61.8933 9.24 61.6533 8.76 61.44C8.12 61.12 7.58667 60.8533 7.16 60.64C6.73333 60.4267 6.41333 60.2667 6.2 60.16C5.72 59.4667 5.08 58.48 4.28 57.2C3.53333 55.8667 2.68 54.2933 1.72 52.48C1.77333 52.3733 1.8 52.2667 1.8 52.16C1.85333 52 1.88 51.8667 1.88 51.76C1.88 51.4933 1.82667 51.2267 1.72 50.96C1.61333 50.6933 1.48 50.4267 1.32 50.16C1.21333 49.84 1.10667 49.5467 1 49.28C0.893333 49.0133 0.84 48.7733 0.84 48.56C0.84 48.1867 1 47.8133 1.32 47.44C1 47.28 0.84 47.0933 0.84 46.88C0.84 46.72 0.92 46.5333 1.08 46.32C1.24 46.1067 1.32 45.9467 1.32 45.84C1.32 45.7333 1.18667 45.5733 0.92 45.36C0.973333 43.8667 1.26667 42.7467 1.8 42C2.33333 41.2533 3.16 40.8 4.28 40.64C4.81333 40.96 5.56 41.12 6.52 41.12C6.73333 41.12 7 41.12 7.32 41.12C7.69333 41.0667 8.06667 41.04 8.44 41.04C8.81333 40.9867 9.16 40.96 9.48 40.96C9.85333 40.9067 10.1467 40.88 10.36 40.88C11.8533 40.88 12.84 41.44 13.32 42.56C13.5333 43.04 13.6667 44.24 13.72 46.16C13.72 47.0133 13.7733 47.76 13.88 48.4C14.04 49.04 14.2267 49.5467 14.44 49.92H13.96C13.7467 49.92 13.3467 50.2133 12.76 50.8C12.92 51.3333 13.1867 51.6 13.56 51.6C13.6667 51.6 13.7733 51.5733 13.88 51.52C14.04 51.4133 14.2 51.3333 14.36 51.28C14.5733 51.1733 14.76 51.0667 14.92 50.96C15.08 50.8533 15.1867 50.8 15.24 50.8C16.1467 51.2267 16.8933 51.5467 17.48 51.76C18.0667 51.92 18.52 52 18.84 52C19.1067 52 19.3467 51.9733 19.56 51.92C19.8267 51.8667 20.0933 51.76 20.36 51.6C22.12 48.9333 22.9733 46.32 22.92 43.76C22.92 42.8 22.7333 41.8933 22.36 41.04L23.32 39.36C22.0933 38.72 21.48 38.24 21.48 37.92C21.48 37.76 21.48 37.6533 21.48 37.6C21.5333 37.4933 21.56 37.36 21.56 37.2C21.4 36.9867 20.8667 36.6933 19.96 36.32C19.1067 35.8933 17.88 35.3333 16.28 34.64C15.16 34.2667 14.3067 33.7333 13.72 33.04C13.1867 32.3467 12.8933 31.6 12.84 30.8C12.8933 28.6667 13.7467 27.0133 15.4 25.84C16.2 25.4133 17 24.9867 17.8 24.56C18.6 24.1333 19.3733 23.7067 20.12 23.28C21.6667 22.32 22.4667 20.9867 22.52 19.28C22.52 18.5333 22.4133 17.7867 22.2 17.04C21.9867 16.24 21.6933 15.4667 21.32 14.72C20.36 12.96 19.1867 12.0267 17.8 11.92C17.5333 12.1867 17.24 12.32 16.92 12.32C16.7067 12.32 16.3867 12.2667 15.96 12.16C15.5867 12 15.2667 11.92 15 11.92C14.52 11.92 14.1733 12.1867 13.96 12.72C14.5467 13.1467 14.8133 13.68 14.76 14.32C14.76 14.5333 14.7067 14.8 14.6 15.12C14.5467 15.44 14.4667 15.76 14.36 16.08C14.2533 16.4 14.1467 16.72 14.04 17.04C13.9333 17.3067 13.88 17.5467 13.88 17.76C12.4933 18.8267 10.4933 19.36 7.88 19.36C5.96 19.36 4.46667 19.12 3.4 18.64C2.38667 18.1067 1.90667 17.28 1.96 16.16C1.96 15.8933 2.01333 15.5467 2.12 15.12C2.22667 14.6933 2.33333 14.24 2.44 13.76C2.6 13.2267 2.73333 12.7467 2.84 12.32C2.94667 11.84 3 11.44 3 11.12C3 10.3733 3.16 9.6 3.48 8.8C3.8 7.94666 4.25333 7.04 4.84 6.08C5.42667 5.28 6.01333 4.56 6.6 3.92C7.24 3.22666 7.90667 2.66666 8.6 2.24C9.02667 1.86666 9.61333 1.54666 10.36 1.28C11.16 1.01333 12.1467 0.799997 13.32 0.639996C14.3333 0.426662 15.2667 0.293329 16.12 0.239996C17.0267 0.133331 17.8 0.106664 18.44 0.159997C21.48 -4.13259e-06 24.2 0.506662 26.6 1.68C28.2 2.16 29.5067 2.85333 30.52 3.76C31.5867 4.61333 32.3867 5.62666 32.92 6.8C33.5067 7.76 33.9333 9.09333 34.2 10.8C34.4667 12.5067 34.6533 14.5067 34.76 16.8C34.7067 17.76 34.6267 18.6667 34.52 19.52C34.4667 20.32 34.3867 21.1467 34.28 22H33.96C34.0133 22 33.6933 22.2933 33 22.88C33.32 23.04 33.48 23.3333 33.48 23.76L33.4 24.96C32.6533 25.92 32.04 26.8533 31.56 27.76C31.08 28.6133 30.7333 29.4667 30.52 30.32C32.0133 31.8133 33.1333 33.3867 33.88 35.04C34.6267 36.6933 35.0533 38.4267 35.16 40.24V40.08ZM33 9.76C32.8933 9.49333 32.7333 9.36 32.52 9.36C31.9867 9.36 31.72 9.6 31.72 10.08V10.16H32.28C32.6533 10.16 32.8933 10.0267 33 9.76ZM27.56 9.76C27.08 9.86666 26.4933 10.16 25.8 10.64C26.2267 10.5867 26.8133 10.2933 27.56 9.76ZM24.04 9.76C23.9867 9.70666 23.88 9.68 23.72 9.68C23.5067 9.68 23.1867 9.76 22.76 9.92C22.3867 10.08 21.8533 10.32 21.16 10.64C21.3733 10.8533 21.5867 10.96 21.8 10.96C21.9067 10.96 22.04 10.9067 22.2 10.8C22.4133 10.64 22.6267 10.48 22.84 10.32C23.1067 10.16 23.3467 10.0267 23.56 9.92C23.7733 9.76 23.9333 9.70666 24.04 9.76ZM27.96 18.64L27.56 19.52L27.72 19.44C27.7733 19.44 27.9867 19.6 28.36 19.92L28.76 19.52L27.96 18.64ZM18.84 10.8H18.2V11.44H18.84V10.8ZM26.44 19.68H25.8V20.32H26.44V19.68ZM28.6 24.8H27.96V25.44H28.6V24.8ZM23.72 26.96C23.72 26.96 23.5867 26.72 23.32 26.24C23 26.4 22.84 26.6133 22.84 26.88C22.84 27.2 23 27.4133 23.32 27.52L23.72 27.12V26.96ZM30.28 40.88H29.64V41.52H30.28V40.88ZM29.64 44.88L29.24 45.28L29.64 45.68L30.04 45.28L29.64 44.88ZM23.72 41.92H23.32L23.72 42.32V41.92ZM24.04 44.88L23.72 45.28L24.04 45.68L24.6 45.28L24.04 44.88ZM27.08 49.12C26.92 49.0667 26.7067 49.0133 26.44 48.96C26.2267 48.8533 25.9867 48.7467 25.72 48.64C25.5067 48.5333 25.2667 48.4533 25 48.4C24.7333 48.2933 24.52 48.24 24.36 48.24C23.9867 48.24 23.64 48.3733 23.32 48.64C23.4267 48.6933 23.5867 48.7733 23.8 48.88C24.0667 48.9333 24.3333 49.0133 24.6 49.12C24.8667 49.2267 25.1067 49.3333 25.32 49.44C25.5867 49.4933 25.8267 49.52 26.04 49.52C26.36 49.52 26.7067 49.3867 27.08 49.12ZM25.8 52.48C24.9467 51.8933 24.5733 51.6 24.68 51.6H24.6L24.52 51.76C24.52 52.24 24.8933 52.48 25.64 52.48H25.8ZM25 55.44C24.8933 55.44 24.7333 55.2533 24.52 54.88C24.3067 54.6667 24.12 54.56 23.96 54.56H23.72L25 55.84V55.44ZM22.2 53.92H21.64V54.56H22.2V53.92ZM13.16 48.24H12.76C12.1733 48.24 11.88 48.4533 11.88 48.88V48.96V49.12H12.76C12.8667 48.9067 12.9467 48.7733 13 48.72C13.1067 48.6133 13.16 48.5333 13.16 48.48V48.24ZM18.68 56.72H18.52C18.4667 56.72 18.2267 56.5867 17.8 56.32L17.32 56.72C17.48 56.9867 17.8 57.12 18.28 57.12H18.68V56.72ZM16.12 55.44C15.6933 55.12 15.4533 54.96 15.4 54.96L15.24 55.04L16.12 55.84V55.44ZM13.96 56.72C13.8533 56.4 13.5867 56.24 13.16 56.24L12.76 56.32L13.56 57.12L13.96 56.72ZM73.5975 40.08C73.5442 40.72 73.4642 42 73.3575 43.92C73.3042 45.84 73.1708 48.4267 72.9575 51.68C73.0108 52.6933 72.7975 53.7333 72.3175 54.8C71.8375 55.8133 71.1175 56.9333 70.1575 58.16C69.0908 59.3867 68.0508 60.4267 67.0375 61.28C66.0775 62.08 65.1175 62.6933 64.1575 63.12C63.5708 63.44 62.6108 63.68 61.2775 63.84C59.9442 63.9467 58.3442 64 56.4775 64C55.1975 64 53.9175 63.9467 52.6375 63.84C51.3575 63.68 50.1575 63.4133 49.0375 63.04C48.8775 62.72 48.6375 62.4267 48.3175 62.16C48.0508 61.8933 47.6775 61.6533 47.1975 61.44C46.5575 61.12 46.0242 60.8533 45.5975 60.64C45.1708 60.4267 44.8508 60.2667 44.6375 60.16C44.1575 59.4667 43.5175 58.48 42.7175 57.2C41.9708 55.8667 41.1175 54.2933 40.1575 52.48C40.2108 52.3733 40.2375 52.2667 40.2375 52.16C40.2908 52 40.3175 51.8667 40.3175 51.76C40.3175 51.4933 40.2642 51.2267 40.1575 50.96C40.0508 50.6933 39.9175 50.4267 39.7575 50.16C39.6508 49.84 39.5442 49.5467 39.4375 49.28C39.3308 49.0133 39.2775 48.7733 39.2775 48.56C39.2775 48.1867 39.4375 47.8133 39.7575 47.44C39.4375 47.28 39.2775 47.0933 39.2775 46.88C39.2775 46.72 39.3575 46.5333 39.5175 46.32C39.6775 46.1067 39.7575 45.9467 39.7575 45.84C39.7575 45.7333 39.6242 45.5733 39.3575 45.36C39.4108 43.8667 39.7042 42.7467 40.2375 42C40.7708 41.2533 41.5975 40.8 42.7175 40.64C43.2508 40.96 43.9975 41.12 44.9575 41.12C45.1708 41.12 45.4375 41.12 45.7575 41.12C46.1308 41.0667 46.5042 41.04 46.8775 41.04C47.2508 40.9867 47.5975 40.96 47.9175 40.96C48.2908 40.9067 48.5842 40.88 48.7975 40.88C50.2908 40.88 51.2775 41.44 51.7575 42.56C51.9708 43.04 52.1042 44.24 52.1575 46.16C52.1575 47.0133 52.2108 47.76 52.3175 48.4C52.4775 49.04 52.6642 49.5467 52.8775 49.92H52.3975C52.1842 49.92 51.7842 50.2133 51.1975 50.8C51.3575 51.3333 51.6242 51.6 51.9975 51.6C52.1042 51.6 52.2108 51.5733 52.3175 51.52C52.4775 51.4133 52.6375 51.3333 52.7975 51.28C53.0108 51.1733 53.1975 51.0667 53.3575 50.96C53.5175 50.8533 53.6242 50.8 53.6775 50.8C54.5842 51.2267 55.3308 51.5467 55.9175 51.76C56.5042 51.92 56.9575 52 57.2775 52C57.5442 52 57.7842 51.9733 57.9975 51.92C58.2642 51.8667 58.5308 51.76 58.7975 51.6C60.5575 48.9333 61.4108 46.32 61.3575 43.76C61.3575 42.8 61.1708 41.8933 60.7975 41.04L61.7575 39.36C60.5308 38.72 59.9175 38.24 59.9175 37.92C59.9175 37.76 59.9175 37.6533 59.9175 37.6C59.9708 37.4933 59.9975 37.36 59.9975 37.2C59.8375 36.9867 59.3042 36.6933 58.3975 36.32C57.5442 35.8933 56.3175 35.3333 54.7175 34.64C53.5975 34.2667 52.7442 33.7333 52.1575 33.04C51.6242 32.3467 51.3308 31.6 51.2775 30.8C51.3308 28.6667 52.1842 27.0133 53.8375 25.84C54.6375 25.4133 55.4375 24.9867 56.2375 24.56C57.0375 24.1333 57.8108 23.7067 58.5575 23.28C60.1042 22.32 60.9042 20.9867 60.9575 19.28C60.9575 18.5333 60.8508 17.7867 60.6375 17.04C60.4242 16.24 60.1308 15.4667 59.7575 14.72C58.7975 12.96 57.6242 12.0267 56.2375 11.92C55.9708 12.1867 55.6775 12.32 55.3575 12.32C55.1442 12.32 54.8242 12.2667 54.3975 12.16C54.0242 12 53.7042 11.92 53.4375 11.92C52.9575 11.92 52.6108 12.1867 52.3975 12.72C52.9842 13.1467 53.2508 13.68 53.1975 14.32C53.1975 14.5333 53.1442 14.8 53.0375 15.12C52.9842 15.44 52.9042 15.76 52.7975 16.08C52.6908 16.4 52.5842 16.72 52.4775 17.04C52.3708 17.3067 52.3175 17.5467 52.3175 17.76C50.9308 18.8267 48.9308 19.36 46.3175 19.36C44.3975 19.36 42.9042 19.12 41.8375 18.64C40.8242 18.1067 40.3442 17.28 40.3975 16.16C40.3975 15.8933 40.4508 15.5467 40.5575 15.12C40.6642 14.6933 40.7708 14.24 40.8775 13.76C41.0375 13.2267 41.1708 12.7467 41.2775 12.32C41.3842 11.84 41.4375 11.44 41.4375 11.12C41.4375 10.3733 41.5975 9.6 41.9175 8.8C42.2375 7.94666 42.6908 7.04 43.2775 6.08C43.8642 5.28 44.4508 4.56 45.0375 3.92C45.6775 3.22666 46.3442 2.66666 47.0375 2.24C47.4642 1.86666 48.0508 1.54666 48.7975 1.28C49.5975 1.01333 50.5842 0.799997 51.7575 0.639996C52.7708 0.426662 53.7042 0.293329 54.5575 0.239996C55.4642 0.133331 56.2375 0.106664 56.8775 0.159997C59.9175 -4.13259e-06 62.6375 0.506662 65.0375 1.68C66.6375 2.16 67.9442 2.85333 68.9575 3.76C70.0242 4.61333 70.8242 5.62666 71.3575 6.8C71.9442 7.76 72.3708 9.09333 72.6375 10.8C72.9042 12.5067 73.0908 14.5067 73.1975 16.8C73.1442 17.76 73.0642 18.6667 72.9575 19.52C72.9042 20.32 72.8242 21.1467 72.7175 22H72.3975C72.4508 22 72.1308 22.2933 71.4375 22.88C71.7575 23.04 71.9175 23.3333 71.9175 23.76L71.8375 24.96C71.0908 25.92 70.4775 26.8533 69.9975 27.76C69.5175 28.6133 69.1708 29.4667 68.9575 30.32C70.4508 31.8133 71.5708 33.3867 72.3175 35.04C73.0642 36.6933 73.4908 38.4267 73.5975 40.24V40.08ZM71.4375 9.76C71.3308 9.49333 71.1708 9.36 70.9575 9.36C70.4242 9.36 70.1575 9.6 70.1575 10.08V10.16H70.7175C71.0908 10.16 71.3308 10.0267 71.4375 9.76ZM65.9975 9.76C65.5175 9.86666 64.9308 10.16 64.2375 10.64C64.6642 10.5867 65.2508 10.2933 65.9975 9.76ZM62.4775 9.76C62.4242 9.70666 62.3175 9.68 62.1575 9.68C61.9442 9.68 61.6242 9.76 61.1975 9.92C60.8242 10.08 60.2908 10.32 59.5975 10.64C59.8108 10.8533 60.0242 10.96 60.2375 10.96C60.3442 10.96 60.4775 10.9067 60.6375 10.8C60.8508 10.64 61.0642 10.48 61.2775 10.32C61.5442 10.16 61.7842 10.0267 61.9975 9.92C62.2108 9.76 62.3708 9.70666 62.4775 9.76ZM66.3975 18.64L65.9975 19.52L66.1575 19.44C66.2108 19.44 66.4242 19.6 66.7975 19.92L67.1975 19.52L66.3975 18.64ZM57.2775 10.8H56.6375V11.44H57.2775V10.8ZM64.8775 19.68H64.2375V20.32H64.8775V19.68ZM67.0375 24.8H66.3975V25.44H67.0375V24.8ZM62.1575 26.96C62.1575 26.96 62.0242 26.72 61.7575 26.24C61.4375 26.4 61.2775 26.6133 61.2775 26.88C61.2775 27.2 61.4375 27.4133 61.7575 27.52L62.1575 27.12V26.96ZM68.7175 40.88H68.0775V41.52H68.7175V40.88ZM68.0775 44.88L67.6775 45.28L68.0775 45.68L68.4775 45.28L68.0775 44.88ZM62.1575 41.92H61.7575L62.1575 42.32V41.92ZM62.4775 44.88L62.1575 45.28L62.4775 45.68L63.0375 45.28L62.4775 44.88ZM65.5175 49.12C65.3575 49.0667 65.1442 49.0133 64.8775 48.96C64.6642 48.8533 64.4242 48.7467 64.1575 48.64C63.9442 48.5333 63.7042 48.4533 63.4375 48.4C63.1708 48.2933 62.9575 48.24 62.7975 48.24C62.4242 48.24 62.0775 48.3733 61.7575 48.64C61.8642 48.6933 62.0242 48.7733 62.2375 48.88C62.5042 48.9333 62.7708 49.0133 63.0375 49.12C63.3042 49.2267 63.5442 49.3333 63.7575 49.44C64.0242 49.4933 64.2642 49.52 64.4775 49.52C64.7975 49.52 65.1442 49.3867 65.5175 49.12ZM64.2375 52.48C63.3842 51.8933 63.0108 51.6 63.1175 51.6H63.0375L62.9575 51.76C62.9575 52.24 63.3308 52.48 64.0775 52.48H64.2375ZM63.4375 55.44C63.3308 55.44 63.1708 55.2533 62.9575 54.88C62.7442 54.6667 62.5575 54.56 62.3975 54.56H62.1575L63.4375 55.84V55.44ZM60.6375 53.92H60.0775V54.56H60.6375V53.92ZM51.5975 48.24H51.1975C50.6108 48.24 50.3175 48.4533 50.3175 48.88V48.96V49.12H51.1975C51.3042 48.9067 51.3842 48.7733 51.4375 48.72C51.5442 48.6133 51.5975 48.5333 51.5975 48.48V48.24ZM57.1175 56.72H56.9575C56.9042 56.72 56.6642 56.5867 56.2375 56.32L55.7575 56.72C55.9175 56.9867 56.2375 57.12 56.7175 57.12H57.1175V56.72ZM54.5575 55.44C54.1308 55.12 53.8908 54.96 53.8375 54.96L53.6775 55.04L54.5575 55.84V55.44ZM52.3975 56.72C52.2908 56.4 52.0242 56.24 51.5975 56.24L51.1975 56.32L51.9975 57.12L52.3975 56.72Z" fill="#3189E4"/>
</svg>
