<svg width="146" height="108" viewBox="0 0 146 108" fill="none" xmlns="http://www.w3.org/2000/svg">
<path d="M6.63 77.06C6.63 75.4733 6.97 73.7733 7.65 71.96C8.44333 70.1467 9.29333 68.56 10.2 67.2C10.6533 68.1067 11.73 68.9567 13.43 69.75C15.13 70.5433 16.32 70.8267 17 70.6C17.68 70.3733 18.1333 69.6933 18.36 68.56C18.7 67.3133 18.87 66.2367 18.87 65.33C18.87 64.5367 18.8133 64.0267 18.7 63.8C19.04 63.9133 19.6067 64.1967 20.4 64.65C21.1933 64.99 21.93 65.5 22.61 66.18C23.4033 66.7467 23.97 67.4267 24.31 68.22C24.65 69.0133 24.48 69.8067 23.8 70.6L27.2 68.9V70.6L30.6 68.9V70.6H34L32.3 75.7C32.0733 75.4733 31.5067 75.1333 30.6 74.68C29.8067 74.2267 29.24 74 28.9 74C27.9933 74 27.4267 74.4533 27.2 75.36C27.0867 76.1533 27.03 76.8333 27.03 77.4C27.03 78.08 27.0867 78.76 27.2 79.44C27.4267 80.0067 27.9933 80.46 28.9 80.8L27.2 82.5C28.22 83.18 28.9 83.6333 29.24 83.86C29.58 84.0867 29.8633 84.2 30.09 84.2C30.43 84.2 30.77 84.1433 31.11 84.03C31.45 83.9167 32.0733 83.86 32.98 83.86C32.98 83.52 32.8667 83.0667 32.64 82.5C32.5267 81.82 32.4133 81.14 32.3 80.46C32.1867 79.78 32.2433 79.1567 32.47 78.59C32.6967 78.0233 33.2067 77.6267 34 77.4C34 77.6267 33.8867 78.3067 33.66 79.44C33.5467 80.46 33.49 81.5933 33.49 82.84C33.49 84.0867 33.7167 85.22 34.17 86.24C34.6233 87.26 35.4167 87.77 36.55 87.77C37.91 87.77 38.8733 87.1467 39.44 85.9C40.12 84.6533 40.5733 83.2367 40.8 81.65C41.0267 79.95 41.0833 78.3633 40.97 76.89C40.97 75.4167 40.97 74.4533 40.97 74V72.3C40.97 71.5067 40.9133 70.6567 40.8 69.75C40.8 68.8433 40.8 67.9933 40.8 67.2V65.5C40.6867 64.14 40.29 63.0633 39.61 62.27C38.93 61.3633 38.08 60.74 37.06 60.4C36.04 59.9467 34.9633 59.72 33.83 59.72C32.6967 59.72 31.62 59.9467 30.6 60.4C30.4867 60.06 30.3167 59.4933 30.09 58.7C29.9767 57.9067 29.8067 57.0567 29.58 56.15C29.4667 55.2433 29.2967 54.3933 29.07 53.6C28.9567 52.8067 28.9 52.24 28.9 51.9V50.88C28.9 49.52 29.5233 48.5567 30.77 47.99C32.0167 47.4233 33.3767 46.97 34.85 46.63C36.3233 46.29 37.6833 45.8933 38.93 45.44C40.1767 44.8733 40.8 43.91 40.8 42.55V41.7C40.6867 41.4733 40.3467 40.9067 39.78 40C39.3267 39.0933 39.1 38.5267 39.1 38.3C39.1 38.1867 39.3267 37.9033 39.78 37.45C40.3467 36.9967 40.6867 36.7133 40.8 36.6C41.0267 36.3733 41.31 35.8067 41.65 34.9C42.1033 33.9933 42.3867 33.4267 42.5 33.2H41.99C41.99 32.52 41.9333 31.6133 41.82 30.48C41.82 29.2333 41.65 27.9867 41.31 26.74C41.0833 25.4933 40.63 24.36 39.95 23.34C39.3833 22.32 38.5333 21.64 37.4 21.3C37.1733 21.5267 36.8333 22.0933 36.38 23C36.04 23.9067 35.8133 24.4733 35.7 24.7C35.5867 25.2667 35.4167 26.23 35.19 27.59C35.0767 28.8367 34.9067 30.1967 34.68 31.67C34.5667 33.03 34.3967 34.39 34.17 35.75C34.0567 36.9967 34 37.8467 34 38.3C33.66 38.8667 33.2633 39.32 32.81 39.66C32.47 39.8867 31.5633 40.2267 30.09 40.68C28.5033 41.02 26.52 41.53 24.14 42.21C21.76 42.7767 19.9467 43.1733 18.7 43.4H17.68C16.66 43.4 15.81 43.1733 15.13 42.72C14.5633 42.1533 14.1667 41.53 13.94 40.85C13.7133 40.0567 13.5433 39.2067 13.43 38.3C13.43 37.3933 13.43 36.6 13.43 35.92C13.43 34.4467 13.5433 32.8033 13.77 30.99C13.9967 29.0633 14.28 27.1367 14.62 25.21C15.0733 23.17 15.64 21.2433 16.32 19.43C17 17.5033 17.7933 15.86 18.7 14.5C18.9267 14.6133 19.8333 14.2167 21.42 13.31C23.0067 12.4033 24.9333 11.44 27.2 10.42C29.4667 9.28666 31.8467 8.26666 34.34 7.36C36.9467 6.34 39.3833 5.83 41.65 5.83C45.05 5.83 47.6567 6.05667 49.47 6.51C51.2833 6.96333 52.5867 7.58666 53.38 8.38C54.2867 9.17333 54.7967 10.08 54.91 11.1C55.0233 12.0067 55.1367 12.97 55.25 13.99C55.4767 15.01 55.8733 16.03 56.44 17.05C57.0067 17.9567 58.0267 18.8067 59.5 19.6V21.3C59.5 22.0933 59.5 22.9433 59.5 23.85C59.6133 24.7567 59.67 25.6067 59.67 26.4V28.1C59.67 31.7267 59.3867 34.3333 58.82 35.92C58.2533 37.3933 57.63 38.5267 56.95 39.32C56.27 40 55.6467 40.6233 55.08 41.19C54.5133 41.6433 54.23 42.72 54.23 44.42C54.23 45.44 54.4 46.3467 54.74 47.14C55.1933 47.82 55.7033 48.5 56.27 49.18C56.95 49.7467 57.5733 50.37 58.14 51.05C58.7067 51.73 59.16 52.58 59.5 53.6C60.2933 56.32 60.8033 58.4733 61.03 60.06C61.2567 61.5333 61.37 63.3467 61.37 65.5V70.6C61.37 71.28 61.37 72.64 61.37 74.68C61.4833 76.6067 61.4267 78.7033 61.2 80.97C61.0867 83.2367 60.7467 85.3333 60.18 87.26C59.7267 89.1867 58.9333 90.4333 57.8 91C57.3467 91.2267 56.61 91.1133 55.59 90.66C54.57 90.0933 53.8333 89.81 53.38 89.81C53.38 89.9233 53.21 90.4333 52.87 91.34C52.6433 92.1333 52.5867 92.5867 52.7 92.7C52.9267 92.9267 53.4933 93.21 54.4 93.55C55.42 93.89 55.9867 94.1733 56.1 94.4C56.44 95.8733 56.27 97.12 55.59 98.14C55.0233 99.0467 54.1733 99.7833 53.04 100.35C51.9067 100.917 50.66 101.257 49.3 101.37C48.0533 101.483 46.92 101.427 45.9 101.2L47.6 104.6C44.0867 105.62 40.8567 106.47 37.91 107.15C35.0767 107.717 32.0167 108 28.73 108C25.2167 108 22.61 107.263 20.91 105.79C19.21 104.203 17.9633 102.277 17.17 100.01C16.3767 97.7433 15.8667 95.25 15.64 92.53C15.4133 89.81 15.0733 87.3167 14.62 85.05C14.1667 82.7833 13.3733 80.9133 12.24 79.44C11.1067 77.8533 9.23667 77.06 6.63 77.06ZM3.4 82.5C4.30667 82.5 4.76 83.0667 4.76 84.2C4.76 85.3333 4.30667 85.9 3.4 85.9C2.49333 85.9 2.04 85.3333 2.04 84.2C2.04 83.0667 2.49333 82.5 3.4 82.5ZM71.4 80.8C71.9667 81.0267 72.25 81.31 72.25 81.65C72.25 82.1033 71.9667 82.3867 71.4 82.5C70.8333 82.6133 70.55 82.33 70.55 81.65C70.55 80.8567 70.8333 80.5733 71.4 80.8ZM3.4 77.4C4.30667 77.4 4.76 77.9667 4.76 79.1C4.76 80.2333 4.30667 80.8 3.4 80.8C2.49333 80.8 2.04 80.2333 2.04 79.1C2.04 77.9667 2.49333 77.4 3.4 77.4ZM35.7 72.3C36.2667 72.5267 36.55 72.81 36.55 73.15C36.55 73.6033 36.2667 73.8867 35.7 74C35.1333 74.1133 34.85 73.83 34.85 73.15C34.85 72.3567 35.1333 72.0733 35.7 72.3ZM27.2 63.8C28.1067 63.8 28.56 64.3667 28.56 65.5C28.56 66.6333 28.1067 67.2 27.2 67.2C26.2933 67.2 25.84 66.6333 25.84 65.5C25.84 64.3667 26.2933 63.8 27.2 63.8ZM10.2 34.9C9.97333 35.4667 9.69 35.75 9.35 35.75C9.01 35.75 8.72667 35.4667 8.5 34.9C8.27333 34.3333 8.55667 34.05 9.35 34.05C10.1433 34.05 10.4267 34.3333 10.2 34.9ZM53.55 31.33C53.4367 31.33 53.2667 31.3867 53.04 31.5C52.8133 31.5 52.7 31.5 52.7 31.5C52.4733 31.7267 52.1333 32.2933 51.68 33.2C51.2267 34.1067 51 34.6733 51 34.9L54.4 31.5C54.2867 31.5 54.1167 31.5 53.89 31.5C53.7767 31.3867 53.6633 31.33 53.55 31.33ZM35.7 19.6C35.5867 19.3733 35.36 19.3167 35.02 19.43C34.7933 19.43 34.51 19.6 34.17 19.94C33.9433 20.1667 33.7733 20.45 33.66 20.79C33.66 21.0167 33.7733 21.1867 34 21.3C34.5667 21.5267 35.02 21.47 35.36 21.13C35.8133 20.6767 35.9267 20.1667 35.7 19.6ZM17 11.1C17.5667 11.3267 17.85 11.61 17.85 11.95C17.85 12.29 17.5667 12.5733 17 12.8C16.4333 13.0267 16.15 12.7433 16.15 11.95C16.15 11.1567 16.4333 10.8733 17 11.1ZM1.7 4.3C2.26667 4.52666 2.55 5.09333 2.55 6C2.55 6.90666 2.26667 7.47333 1.7 7.69999C1.47333 7.81333 1.24667 7.69999 1.02 7.36C0.906667 6.90666 0.85 6.45333 0.85 6C0.85 5.54666 0.906667 5.14999 1.02 4.80999C1.24667 4.35666 1.47333 4.18667 1.7 4.3ZM25.5 0.899991C26.4067 0.899991 26.86 1.46666 26.86 2.6C26.86 3.73333 26.4067 4.3 25.5 4.3C24.5933 4.3 24.14 3.73333 24.14 2.6C24.14 1.46666 24.5933 0.899991 25.5 0.899991ZM79.6769 77.06C79.6769 75.4733 80.0169 73.7733 80.6969 71.96C81.4902 70.1467 82.3402 68.56 83.2469 67.2C83.7002 68.1067 84.7769 68.9567 86.4769 69.75C88.1769 70.5433 89.3669 70.8267 90.0469 70.6C90.7269 70.3733 91.1802 69.6933 91.4069 68.56C91.7469 67.3133 91.9169 66.2367 91.9169 65.33C91.9169 64.5367 91.8602 64.0267 91.7469 63.8C92.0869 63.9133 92.6535 64.1967 93.4469 64.65C94.2402 64.99 94.9769 65.5 95.6569 66.18C96.4502 66.7467 97.0169 67.4267 97.3569 68.22C97.6969 69.0133 97.5269 69.8067 96.8469 70.6L100.247 68.9V70.6L103.647 68.9V70.6H107.047L105.347 75.7C105.12 75.4733 104.554 75.1333 103.647 74.68C102.854 74.2267 102.287 74 101.947 74C101.04 74 100.474 74.4533 100.247 75.36C100.134 76.1533 100.077 76.8333 100.077 77.4C100.077 78.08 100.134 78.76 100.247 79.44C100.474 80.0067 101.04 80.46 101.947 80.8L100.247 82.5C101.267 83.18 101.947 83.6333 102.287 83.86C102.627 84.0867 102.91 84.2 103.137 84.2C103.477 84.2 103.817 84.1433 104.157 84.03C104.497 83.9167 105.12 83.86 106.027 83.86C106.027 83.52 105.914 83.0667 105.687 82.5C105.574 81.82 105.46 81.14 105.347 80.46C105.234 79.78 105.29 79.1567 105.517 78.59C105.744 78.0233 106.254 77.6267 107.047 77.4C107.047 77.6267 106.934 78.3067 106.707 79.44C106.594 80.46 106.537 81.5933 106.537 82.84C106.537 84.0867 106.764 85.22 107.217 86.24C107.67 87.26 108.464 87.77 109.597 87.77C110.957 87.77 111.92 87.1467 112.487 85.9C113.167 84.6533 113.62 83.2367 113.847 81.65C114.074 79.95 114.13 78.3633 114.017 76.89C114.017 75.4167 114.017 74.4533 114.017 74V72.3C114.017 71.5067 113.96 70.6567 113.847 69.75C113.847 68.8433 113.847 67.9933 113.847 67.2V65.5C113.734 64.14 113.337 63.0633 112.657 62.27C111.977 61.3633 111.127 60.74 110.107 60.4C109.087 59.9467 108.01 59.72 106.877 59.72C105.744 59.72 104.667 59.9467 103.647 60.4C103.534 60.06 103.364 59.4933 103.137 58.7C103.024 57.9067 102.854 57.0567 102.627 56.15C102.514 55.2433 102.344 54.3933 102.117 53.6C102.004 52.8067 101.947 52.24 101.947 51.9V50.88C101.947 49.52 102.57 48.5567 103.817 47.99C105.064 47.4233 106.424 46.97 107.897 46.63C109.37 46.29 110.73 45.8933 111.977 45.44C113.224 44.8733 113.847 43.91 113.847 42.55V41.7C113.734 41.4733 113.394 40.9067 112.827 40C112.374 39.0933 112.147 38.5267 112.147 38.3C112.147 38.1867 112.374 37.9033 112.827 37.45C113.394 36.9967 113.734 36.7133 113.847 36.6C114.074 36.3733 114.357 35.8067 114.697 34.9C115.15 33.9933 115.434 33.4267 115.547 33.2H115.037C115.037 32.52 114.98 31.6133 114.867 30.48C114.867 29.2333 114.697 27.9867 114.357 26.74C114.13 25.4933 113.677 24.36 112.997 23.34C112.43 22.32 111.58 21.64 110.447 21.3C110.22 21.5267 109.88 22.0933 109.427 23C109.087 23.9067 108.86 24.4733 108.747 24.7C108.634 25.2667 108.464 26.23 108.237 27.59C108.124 28.8367 107.954 30.1967 107.727 31.67C107.614 33.03 107.444 34.39 107.217 35.75C107.104 36.9967 107.047 37.8467 107.047 38.3C106.707 38.8667 106.31 39.32 105.857 39.66C105.517 39.8867 104.61 40.2267 103.137 40.68C101.55 41.02 99.5669 41.53 97.1869 42.21C94.8069 42.7767 92.9935 43.1733 91.7469 43.4H90.7269C89.7069 43.4 88.8569 43.1733 88.1769 42.72C87.6102 42.1533 87.2135 41.53 86.9869 40.85C86.7602 40.0567 86.5902 39.2067 86.4769 38.3C86.4769 37.3933 86.4769 36.6 86.4769 35.92C86.4769 34.4467 86.5902 32.8033 86.8169 30.99C87.0435 29.0633 87.3269 27.1367 87.6669 25.21C88.1202 23.17 88.6869 21.2433 89.3669 19.43C90.0469 17.5033 90.8402 15.86 91.7469 14.5C91.9735 14.6133 92.8802 14.2167 94.4669 13.31C96.0535 12.4033 97.9802 11.44 100.247 10.42C102.514 9.28666 104.894 8.26666 107.387 7.36C109.994 6.34 112.43 5.83 114.697 5.83C118.097 5.83 120.704 6.05667 122.517 6.51C124.33 6.96333 125.634 7.58666 126.427 8.38C127.334 9.17333 127.844 10.08 127.957 11.1C128.07 12.0067 128.184 12.97 128.297 13.99C128.524 15.01 128.92 16.03 129.487 17.05C130.054 17.9567 131.074 18.8067 132.547 19.6V21.3C132.547 22.0933 132.547 22.9433 132.547 23.85C132.66 24.7567 132.717 25.6067 132.717 26.4V28.1C132.717 31.7267 132.434 34.3333 131.867 35.92C131.3 37.3933 130.677 38.5267 129.997 39.32C129.317 40 128.694 40.6233 128.127 41.19C127.56 41.6433 127.277 42.72 127.277 44.42C127.277 45.44 127.447 46.3467 127.787 47.14C128.24 47.82 128.75 48.5 129.317 49.18C129.997 49.7467 130.62 50.37 131.187 51.05C131.754 51.73 132.207 52.58 132.547 53.6C133.34 56.32 133.85 58.4733 134.077 60.06C134.304 61.5333 134.417 63.3467 134.417 65.5V70.6C134.417 71.28 134.417 72.64 134.417 74.68C134.53 76.6067 134.474 78.7033 134.247 80.97C134.134 83.2367 133.794 85.3333 133.227 87.26C132.774 89.1867 131.98 90.4333 130.847 91C130.394 91.2267 129.657 91.1133 128.637 90.66C127.617 90.0933 126.88 89.81 126.427 89.81C126.427 89.9233 126.257 90.4333 125.917 91.34C125.69 92.1333 125.634 92.5867 125.747 92.7C125.974 92.9267 126.54 93.21 127.447 93.55C128.467 93.89 129.034 94.1733 129.147 94.4C129.487 95.8733 129.317 97.12 128.637 98.14C128.07 99.0467 127.22 99.7833 126.087 100.35C124.954 100.917 123.707 101.257 122.347 101.37C121.1 101.483 119.967 101.427 118.947 101.2L120.647 104.6C117.134 105.62 113.904 106.47 110.957 107.15C108.124 107.717 105.064 108 101.777 108C98.2635 108 95.6569 107.263 93.9569 105.79C92.2569 104.203 91.0102 102.277 90.2169 100.01C89.4235 97.7433 88.9135 95.25 88.6869 92.53C88.4602 89.81 88.1202 87.3167 87.6669 85.05C87.2135 82.7833 86.4202 80.9133 85.2869 79.44C84.1535 77.8533 82.2835 77.06 79.6769 77.06ZM76.4469 82.5C77.3535 82.5 77.8069 83.0667 77.8069 84.2C77.8069 85.3333 77.3535 85.9 76.4469 85.9C75.5402 85.9 75.0869 85.3333 75.0869 84.2C75.0869 83.0667 75.5402 82.5 76.4469 82.5ZM144.447 80.8C145.014 81.0267 145.297 81.31 145.297 81.65C145.297 82.1033 145.014 82.3867 144.447 82.5C143.88 82.6133 143.597 82.33 143.597 81.65C143.597 80.8567 143.88 80.5733 144.447 80.8ZM76.4469 77.4C77.3535 77.4 77.8069 77.9667 77.8069 79.1C77.8069 80.2333 77.3535 80.8 76.4469 80.8C75.5402 80.8 75.0869 80.2333 75.0869 79.1C75.0869 77.9667 75.5402 77.4 76.4469 77.4ZM108.747 72.3C109.314 72.5267 109.597 72.81 109.597 73.15C109.597 73.6033 109.314 73.8867 108.747 74C108.18 74.1133 107.897 73.83 107.897 73.15C107.897 72.3567 108.18 72.0733 108.747 72.3ZM100.247 63.8C101.154 63.8 101.607 64.3667 101.607 65.5C101.607 66.6333 101.154 67.2 100.247 67.2C99.3402 67.2 98.8869 66.6333 98.8869 65.5C98.8869 64.3667 99.3402 63.8 100.247 63.8ZM83.2469 34.9C83.0202 35.4667 82.7369 35.75 82.3969 35.75C82.0569 35.75 81.7735 35.4667 81.5469 34.9C81.3202 34.3333 81.6035 34.05 82.3969 34.05C83.1902 34.05 83.4735 34.3333 83.2469 34.9ZM126.597 31.33C126.484 31.33 126.314 31.3867 126.087 31.5C125.86 31.5 125.747 31.5 125.747 31.5C125.52 31.7267 125.18 32.2933 124.727 33.2C124.274 34.1067 124.047 34.6733 124.047 34.9L127.447 31.5C127.334 31.5 127.164 31.5 126.937 31.5C126.824 31.3867 126.71 31.33 126.597 31.33ZM108.747 19.6C108.634 19.3733 108.407 19.3167 108.067 19.43C107.84 19.43 107.557 19.6 107.217 19.94C106.99 20.1667 106.82 20.45 106.707 20.79C106.707 21.0167 106.82 21.1867 107.047 21.3C107.614 21.5267 108.067 21.47 108.407 21.13C108.86 20.6767 108.974 20.1667 108.747 19.6ZM90.0469 11.1C90.6135 11.3267 90.8969 11.61 90.8969 11.95C90.8969 12.29 90.6135 12.5733 90.0469 12.8C89.4802 13.0267 89.1969 12.7433 89.1969 11.95C89.1969 11.1567 89.4802 10.8733 90.0469 11.1ZM74.7469 4.3C75.3135 4.52666 75.5969 5.09333 75.5969 6C75.5969 6.90666 75.3135 7.47333 74.7469 7.69999C74.5202 7.81333 74.2935 7.69999 74.0669 7.36C73.9535 6.90666 73.8969 6.45333 73.8969 6C73.8969 5.54666 73.9535 5.14999 74.0669 4.80999C74.2935 4.35666 74.5202 4.18667 74.7469 4.3ZM98.5469 0.899991C99.4535 0.899991 99.9069 1.46666 99.9069 2.6C99.9069 3.73333 99.4535 4.3 98.5469 4.3C97.6402 4.3 97.1869 3.73333 97.1869 2.6C97.1869 1.46666 97.6402 0.899991 98.5469 0.899991Z" fill="#7E8593"/>
</svg>
