<svg width="58" height="58" viewBox="0 0 58 58" fill="none" xmlns="http://www.w3.org/2000/svg">
<g clip-path="url(#clip0)">
<path d="M17.8027 35.6973C15.0543 35.6973 12.8184 37.9332 12.8184 40.6816C12.8184 43.4301 15.0543 45.666 17.8027 45.666C20.5512 45.666 22.7871 43.4301 22.7871 40.6816C22.7871 37.9332 20.5512 35.6973 17.8027 35.6973ZM17.8027 43.4004C16.3037 43.4004 15.084 42.1807 15.084 40.6816C15.084 39.1826 16.3037 37.9629 17.8027 37.9629C19.3018 37.9629 20.5215 39.1826 20.5215 40.6816C20.5215 42.1807 19.3018 43.4004 17.8027 43.4004Z" fill="#3189E4"/>
<path d="M51.7993 12.3345H45.9935C45.3679 12.3345 44.8607 12.8416 44.8607 13.4673C44.8607 14.0929 45.3679 14.6001 45.9935 14.6001H51.7993C53.6108 14.6001 55.1393 15.8303 55.5959 17.499H45.9935C45.3679 17.499 44.8607 18.0061 44.8607 18.6318V28.8175C44.8607 29.4431 45.3679 29.9503 45.9935 29.9503H55.7357V39.5694H52.4118C51.905 37.3549 49.9201 35.6971 47.5541 35.6971C45.1881 35.6971 43.2032 37.3548 42.6964 39.5694H42.5951V18.6417C42.5951 18.0161 42.0879 17.5089 41.4623 17.5089H32.3998C31.7741 17.5089 31.267 18.0161 31.267 18.6417V27.7407H10.2344C9.60872 27.7407 9.10156 28.2479 9.10156 28.8735C9.10156 29.4992 9.60872 30.0064 10.2344 30.0064H31.267V39.5692H25.4896C24.864 39.5692 24.3568 40.0764 24.3568 40.702C24.3568 41.3277 24.864 41.8348 25.4896 41.8348H42.7059C43.2279 44.0286 45.2027 45.6657 47.5541 45.6657C49.9055 45.6657 51.8803 44.0286 52.4023 41.8348H56.8685C57.4942 41.8348 58.0013 41.3277 58.0013 40.702V18.5365C58.0013 15.1167 55.2192 12.3345 51.7993 12.3345ZM40.3295 28.5438H39.6134C38.9878 28.5438 38.4806 29.0509 38.4806 29.6766C38.4806 30.3022 38.9878 30.8094 39.6134 30.8094H40.3295V39.5692H33.5326V19.7746H40.3295V28.5438ZM47.554 43.4002C46.0549 43.4002 44.8352 42.1805 44.8352 40.6814C44.8352 39.1824 46.0549 37.9627 47.554 37.9627C49.053 37.9627 50.2727 39.1824 50.2727 40.6814C50.2727 42.1805 49.0531 43.4002 47.554 43.4002ZM55.7357 27.6845H47.1263V19.7645H55.7357V27.6845Z" fill="#3189E4"/>
<path d="M42.2618 12.6659C42.0511 12.4552 41.7589 12.334 41.4609 12.334C41.163 12.334 40.8707 12.4552 40.66 12.6659C40.4493 12.8766 40.3281 13.1689 40.3281 13.4668C40.3281 13.7647 40.4493 14.057 40.66 14.2677C40.8707 14.4784 41.163 14.5996 41.4609 14.5996C41.7589 14.5996 42.0511 14.4784 42.2618 14.2677C42.4725 14.057 42.5938 13.7647 42.5938 13.4668C42.5938 13.1689 42.4725 12.8766 42.2618 12.6659Z" fill="#3189E4"/>
<path d="M36.9297 12.3345H6.20204C3.09654 12.3345 0.517242 14.629 0.0693281 17.6117C0.0252617 17.7325 0 17.8625 0 17.9985V40.702C0 41.3277 0.50716 41.8348 1.13281 41.8348H9.6604C10.2861 41.8348 10.7932 41.3277 10.7932 40.702C10.7932 40.0764 10.2861 39.5693 9.6604 39.5693H2.26562V25.4751H6.11719C6.74284 25.4751 7.25 24.9679 7.25 24.3423V17.9985C7.25 17.3729 6.74284 16.8657 6.11719 16.8657H2.63877C3.26839 15.5283 4.62845 14.6001 6.20192 14.6001H36.9297C37.5553 14.6001 38.0625 14.0929 38.0625 13.4673C38.0625 12.8416 37.5553 12.3345 36.9297 12.3345ZM4.98438 19.1313V23.2095H2.26562V19.1313H4.98438Z" fill="#3189E4"/>
<path d="M6.91809 28.0721C6.70738 27.8614 6.41512 27.7402 6.11719 27.7402C5.81926 27.7402 5.52699 27.8614 5.31629 28.0721C5.10559 28.2829 4.98438 28.5751 4.98438 28.873C4.98438 29.1721 5.10559 29.4632 5.31629 29.6739C5.52699 29.8858 5.81926 30.0059 6.11719 30.0059C6.41512 30.0059 6.70738 29.8858 6.91809 29.6739C7.12879 29.4632 7.25 29.171 7.25 28.873C7.25 28.5751 7.12879 28.2829 6.91809 28.0721Z" fill="#3189E4"/>
<path d="M27.8672 16.8657H21.5234C20.8978 16.8657 20.3906 17.3729 20.3906 17.9985V24.3423C20.3906 24.9679 20.8978 25.4751 21.5234 25.4751H27.8672C28.4928 25.4751 29 24.9679 29 24.3423V17.9985C29 17.3729 28.4928 16.8657 27.8672 16.8657ZM26.7344 23.2095H22.6562V19.1313H26.7344V23.2095Z" fill="#3189E4"/>
<path d="M16.9922 16.8657H10.6484C10.0228 16.8657 9.51562 17.3729 9.51562 17.9985V24.3423C9.51562 24.9679 10.0228 25.4751 10.6484 25.4751H16.9922C17.6178 25.4751 18.125 24.9679 18.125 24.3423V17.9985C18.125 17.3729 17.6178 16.8657 16.9922 16.8657ZM15.8594 23.2095H11.7812V19.1313H15.8594V23.2095Z" fill="#3189E4"/>
</g>
<defs>
<clipPath id="clip0">
<rect width="58" height="58" fill="white"/>
</clipPath>
</defs>
</svg>
