<svg width="52" height="36" viewBox="0 0 52 36" fill="none" xmlns="http://www.w3.org/2000/svg">
<path d="M7.95307 21.0932C8.51308 21.0932 9.06052 20.9272 9.52615 20.6161C9.99179 20.305 10.3547 19.8628 10.569 19.3454C10.7833 18.828 10.8394 18.2587 10.7302 17.7095C10.6209 17.1602 10.3513 16.6557 9.95528 16.2597C9.55929 15.8637 9.05478 15.5941 8.50553 15.4848C7.95629 15.3756 7.38698 15.4317 6.86961 15.646C6.35223 15.8603 5.91003 16.2232 5.59892 16.6889C5.28781 17.1545 5.12177 17.7019 5.12179 18.2619C5.12266 19.0126 5.42123 19.7322 5.95201 20.263C6.48279 20.7938 7.20244 21.0924 7.95307 21.0932ZM7.95307 16.9618C8.21022 16.9618 8.4616 17.038 8.67542 17.1809C8.88924 17.3237 9.0559 17.5268 9.15432 17.7643C9.25275 18.0019 9.27851 18.2633 9.22836 18.5155C9.1782 18.7677 9.05438 18.9994 8.87256 19.1812C8.69074 19.3631 8.45907 19.4869 8.20687 19.5371C7.95466 19.5873 7.69324 19.5615 7.45567 19.4631C7.21809 19.3647 7.01503 19.1981 6.87216 18.9843C6.7293 18.7705 6.65304 18.5191 6.65304 18.2619C6.65342 17.9173 6.7905 17.5868 7.03422 17.3431C7.27794 17.0993 7.60839 16.9622 7.95307 16.9618Z" fill="#3189E4"/>
<path d="M43.8934 21.0932C44.4534 21.0932 45.0009 20.9271 45.4665 20.616C45.9321 20.3049 46.295 19.8627 46.5093 19.3453C46.7236 18.8279 46.7797 18.2586 46.6704 17.7094C46.5612 17.1602 46.2915 16.6557 45.8955 16.2597C45.4995 15.8637 44.995 15.5941 44.4458 15.4848C43.8965 15.3756 43.3272 15.4317 42.8098 15.646C42.2925 15.8603 41.8503 16.2232 41.5392 16.6889C41.2281 17.1545 41.062 17.7019 41.0621 18.2619C41.0629 19.0126 41.3615 19.7322 41.8923 20.263C42.4231 20.7938 43.1428 21.0924 43.8934 21.0932ZM43.8934 16.9618C44.1506 16.9618 44.402 17.038 44.6158 17.1809C44.8296 17.3238 44.9962 17.5268 45.0946 17.7644C45.193 18.002 45.2188 18.2634 45.1686 18.5156C45.1184 18.7678 44.9946 18.9994 44.8128 19.1813C44.631 19.3631 44.3993 19.4869 44.1471 19.5371C43.8949 19.5872 43.6335 19.5615 43.3959 19.4631C43.1583 19.3647 42.9553 19.1981 42.8124 18.9842C42.6696 18.7704 42.5933 18.5191 42.5933 18.2619C42.5937 17.9172 42.7308 17.5867 42.9745 17.343C43.2183 17.0993 43.5487 16.9622 43.8934 16.9618Z" fill="#3189E4"/>
<path d="M12.8132 18.4844H39.0304C39.2334 18.4844 39.4282 18.4037 39.5717 18.2601C39.7153 18.1165 39.796 17.9218 39.796 17.7188C39.796 17.5157 39.7153 17.321 39.5717 17.1774C39.4282 17.0338 39.2334 16.9531 39.0304 16.9531H12.8132C12.6101 16.9531 12.4154 17.0338 12.2718 17.1774C12.1282 17.321 12.0476 17.5157 12.0476 17.7188C12.0476 17.9218 12.1282 18.1165 12.2718 18.2601C12.4154 18.4037 12.6101 18.4844 12.8132 18.4844Z" fill="#3189E4"/>
<path d="M12.8132 21H39.0304C39.2334 21 39.4282 20.9193 39.5717 20.7758C39.7153 20.6322 39.796 20.4374 39.796 20.2344C39.796 20.0313 39.7153 19.8366 39.5717 19.693C39.4282 19.5494 39.2334 19.4688 39.0304 19.4688H12.8132C12.6101 19.4688 12.4154 19.5494 12.2718 19.693C12.1282 19.8366 12.0476 20.0313 12.0476 20.2344C12.0476 20.4374 12.1282 20.6322 12.2718 20.7758C12.4154 20.9193 12.6101 21 12.8132 21Z" fill="#3189E4"/>
<path d="M50.6823 14.1504C50.2995 12.8196 49.4047 11.6107 48.2592 10.7188H50.75C50.9531 10.7188 51.1478 10.6381 51.2914 10.4945C51.435 10.3509 51.5157 10.1562 51.5157 9.95312C51.5146 9.02519 51.1455 8.13555 50.4894 7.4794C49.8332 6.82325 48.9436 6.45417 48.0157 6.45312H47.6875C47.1532 6.45322 46.626 6.57582 46.1464 6.8115C45.6669 7.04719 45.2477 7.38968 44.9212 7.81266L42.8817 3.1162C42.4833 2.19667 41.8251 1.4135 40.9878 0.862849C40.1505 0.3122 39.1707 0.0180494 38.1685 0.0165157L13.7961 0C12.8068 0.00249657 11.8391 0.289549 11.0085 0.826907C10.1779 1.36427 9.51942 2.12924 9.11163 3.03056L7.32707 6.98305C6.69109 6.42825 5.87525 6.12333 5.03129 6.125H4.70317C3.77523 6.12604 2.88559 6.49512 2.22944 7.15128C1.57329 7.80743 1.20421 8.69706 1.20317 9.625C1.20317 9.82806 1.28383 10.0228 1.42741 10.1664C1.57099 10.31 1.76573 10.3906 1.96879 10.3906H4.03095C2.66813 11.3028 1.58248 12.6526 1.15253 14.158C0.390728 16.846 0.142994 17.9978 0.0739785 18.5308C0.0254066 18.6327 0.000149746 18.7443 4.09362e-05 18.8572V25.1931C-0.00471206 26.4064 0.404558 27.585 1.16024 28.5343C1.91592 29.4835 2.97281 30.1466 4.15629 30.4139V33.6361C4.15733 34.1375 4.35494 34.6184 4.70669 34.9757C5.05843 35.333 5.53626 35.538 6.03754 35.5469H9.45332C9.95886 35.5396 10.4418 35.3363 10.8003 34.9799C11.1589 34.6234 11.3649 34.1416 11.375 33.6361V30.5156H40.25V33.6361C40.2547 34.1391 40.4557 34.6205 40.8102 34.9774C41.1647 35.3344 41.6446 35.5387 42.1476 35.5469H45.8063C46.3076 35.5381 46.7854 35.333 47.1372 34.9757C47.489 34.6185 47.6866 34.1375 47.6875 33.6361V30.4138C48.871 30.1465 49.9279 29.4834 50.6836 28.5342C51.4392 27.585 51.8485 26.4064 51.8438 25.1931V18.8572C51.8436 18.772 51.8292 18.6873 51.801 18.6069C51.7553 18.0636 51.5139 16.8984 50.6823 14.1504ZM47.6875 7.98438H48.0157C48.4027 7.98476 48.7811 8.09905 49.1036 8.313C49.4261 8.52694 49.6786 8.83108 49.8294 9.1875H45.8738C46.0246 8.83108 46.2771 8.52694 46.5996 8.313C46.9221 8.09905 47.3005 7.98476 47.6875 7.98438ZM10.5069 3.66111C10.7931 3.02802 11.2554 2.49062 11.8386 2.11298C12.4218 1.73534 13.1013 1.5334 13.7961 1.53125L38.168 1.54777C38.8715 1.54857 39.5594 1.75483 40.1473 2.1412C40.7352 2.52758 41.1974 3.07724 41.4772 3.72269L43.8485 9.1875H20.7204C20.4305 8.09051 19.7858 7.12026 18.8868 6.42798C17.9878 5.73571 16.885 5.36031 15.7504 5.36031C14.6157 5.36031 13.5129 5.73571 12.614 6.42798C11.715 7.12026 11.0703 8.09051 10.7804 9.1875H8.50296C8.47258 8.94301 8.41649 8.7024 8.33562 8.46967L10.5069 3.66111ZM19.1131 9.1875H12.3875C12.6518 8.51073 13.1142 7.92945 13.7142 7.51967C14.3141 7.10988 15.0238 6.89066 15.7503 6.89066C16.4769 6.89066 17.1865 7.10988 17.7865 7.51967C18.3864 7.92945 18.8488 8.51073 19.1131 9.1875ZM4.70317 7.65625H5.03129C5.34807 7.65643 5.66011 7.73309 5.94091 7.87971C6.22171 8.02634 6.46295 8.23859 6.64413 8.49844L6.48073 8.85938H2.8894C3.04027 8.50295 3.2927 8.19882 3.61523 7.98487C3.93776 7.77093 4.31613 7.65664 4.70317 7.65625ZM2.62504 14.5771C3.22256 12.4856 5.56526 10.7188 7.74073 10.7188H44.0962C46.2708 10.7188 48.6134 12.4858 49.2118 14.5774L49.2151 14.5883C49.6899 16.1571 50.1994 18.0482 50.2745 18.638C49.9761 18.9867 48.9613 19.7603 48.1057 20.343C46.1408 21.6543 42.4848 22.7492 40.1222 22.7492H11.8454C9.48154 22.7492 5.81704 21.663 3.84304 20.3626C3.83932 20.36 3.83538 20.3638 3.8321 20.3614C2.85659 19.7431 1.87429 19.0012 1.59276 18.6744C1.67862 18.087 2.17157 16.1782 2.62504 14.5771ZM34.83 24.2812L34.4412 25.4313C34.1556 26.2719 33.1263 27.0156 32.2388 27.0156H18.2444C17.3608 27.0156 16.3448 26.2719 16.0705 25.4318L15.6972 24.2812H34.83ZM9.84379 33.6361C9.83418 33.7353 9.78966 33.828 9.71816 33.8975C9.64665 33.967 9.55281 34.0088 9.45332 34.0156H6.03754C5.94245 34.0072 5.8539 33.9637 5.78919 33.8935C5.72447 33.8233 5.68823 33.7316 5.68754 33.6361V30.5156H9.84379V33.6361ZM45.8063 34.0156H42.1476C42.0507 34.0079 41.96 33.9651 41.8926 33.8952C41.8251 33.8253 41.7855 33.7332 41.7813 33.6361V30.5156H46.1563V33.6361C46.1557 33.7316 46.1194 33.8234 46.0547 33.8936C45.99 33.9637 45.9014 34.0073 45.8063 34.0156ZM46.4876 28.9844H5.35603C4.85568 28.9876 4.35963 28.8919 3.89634 28.7029C3.43305 28.5139 3.01163 28.2353 2.65627 27.8831C2.30092 27.5308 2.01861 27.1119 1.82556 26.6503C1.63251 26.1887 1.5325 25.6935 1.53129 25.1931V20.6464C1.91257 20.9356 2.39535 21.258 3.00687 21.6459C5.22718 23.1062 9.19038 24.2818 11.8456 24.2818H14.0864L14.6148 25.9077C15.0972 27.3842 16.6914 28.5474 18.2444 28.5474H32.2388C33.7879 28.5474 35.3922 27.3915 35.891 25.9248L36.4474 24.2812H40.1224C42.7816 24.2812 46.7444 23.0929 48.9616 21.6125C49.4835 21.2574 49.934 20.9431 50.3128 20.6455V25.1927C50.3116 25.6931 50.2116 26.1883 50.0186 26.65C49.8256 27.1117 49.5432 27.5307 49.1879 27.883C48.8325 28.2353 48.411 28.5139 47.9477 28.7029C47.4843 28.8919 46.988 28.9876 46.4876 28.9844Z" fill="#3189E4"/>
</svg>
