<svg width="11" height="18" viewBox="0 0 11 18" fill="none" xmlns="http://www.w3.org/2000/svg">
<path d="M6.79453 18H3.69092C3.17251 18 2.75081 17.6083 2.75081 17.1269V10.6252H0.940103C0.421701 10.6252 0 10.2334 0 9.75201V6.96602C0 6.48454 0.421701 6.09288 0.940103 6.09288H2.75081V4.69775C2.75081 3.31444 3.2185 2.13753 4.10315 1.29446C4.9918 0.447556 6.23369 0 7.69456 0L10.0615 0.00357054C10.579 0.00439453 11 0.396057 11 0.876709V3.46344C11 3.94492 10.5784 4.33658 10.0602 4.33658L8.46654 4.33713C7.98052 4.33713 7.85676 4.42763 7.8303 4.45537C7.78668 4.50137 7.73478 4.63142 7.73478 4.99054V6.09274H9.94042C10.1065 6.09274 10.2673 6.13078 10.4056 6.20247C10.7038 6.35724 10.8893 6.64989 10.8893 6.96616L10.8881 9.75215C10.8881 10.2334 10.4664 10.625 9.94797 10.625H7.73478V17.1269C7.73478 17.6083 7.31293 18 6.79453 18ZM3.88698 16.9448H6.59846V10.1527C6.59846 9.83125 6.88014 9.56978 7.22613 9.56978H9.7519L9.75294 7.14812H7.22599C6.87999 7.14812 6.59846 6.88664 6.59846 6.56516V4.99054C6.59846 4.57828 6.64356 4.10944 6.97861 3.75705C7.38346 3.33105 8.02148 3.28189 8.46625 3.28189L9.86383 3.28134V1.05853L7.69367 1.05524C5.34593 1.05524 3.88698 2.45105 3.88698 4.69775V6.56516C3.88698 6.88651 3.60545 7.14812 3.25946 7.14812H1.13617V9.56978H3.25946C3.60545 9.56978 3.88698 9.83125 3.88698 10.1527V16.9448ZM10.0593 1.05881H10.0595H10.0593Z" fill="#434343"/>
</svg>
