<svg width="77" height="71" viewBox="0 0 77 71" fill="none" xmlns="http://www.w3.org/2000/svg">
<path d="M46.6812 14.1413C46.0383 7.93339 42.5865 5.14165 39.2486 2.44171C38.8257 2.09988 38.1945 2.09725 37.7686 2.43574C37.3425 2.7741 37.252 3.35029 37.5562 3.78627C38.7231 5.45893 39.4036 7.36511 39.6366 9.61396C40.1942 14.9984 37.7707 17.929 35.2049 21.0316C32.4884 24.3165 29.6794 27.7129 30.3211 33.9084C30.9639 40.1158 34.4146 42.9074 37.7516 45.6069C37.9644 45.779 38.2298 45.8651 38.4954 45.8651C38.7576 45.8651 39.0198 45.7812 39.2316 45.6132C39.6576 45.275 39.7483 44.6988 39.4442 44.2628C38.2787 42.591 37.5988 40.6849 37.3658 38.4357C36.8082 33.0512 39.2317 30.1206 41.7975 27.0181C44.5141 23.7334 47.3229 20.3369 46.6812 14.1413ZM35.1201 38.6334C35.1891 39.3012 35.2933 39.9439 35.4333 40.5636C33.9742 38.8585 32.8828 36.764 32.5664 33.7107C32.0088 28.3262 34.4325 25.3956 36.9983 22.293C39.7149 19.0084 42.5238 15.6121 41.8821 9.41635C41.813 8.74878 41.7088 8.10618 41.5687 7.48659C43.0279 9.1917 44.1193 11.2859 44.4355 14.3391C44.9932 19.7237 42.5695 22.6542 40.0037 25.7569C37.2872 29.0416 34.4785 32.438 35.1201 38.6334Z" fill="black"/>
<path d="M31.1888 14.1413C30.5459 7.93339 27.0942 5.14165 23.7562 2.44171C23.3333 2.09988 22.7022 2.09725 22.2763 2.43574C21.8502 2.7741 21.7597 3.35029 22.0639 3.78627C23.2308 5.45893 23.9113 7.36511 24.1443 9.61396C24.7019 14.9984 22.2784 17.929 19.7125 21.0316C16.996 24.3164 14.1872 27.7127 14.8289 33.9083C15.4715 40.1157 18.9222 42.9073 22.2593 45.6069C22.4721 45.779 22.7375 45.8651 23.0031 45.8651C23.2652 45.8651 23.5275 45.7812 23.7392 45.6132C24.1653 45.275 24.256 44.6988 23.9519 44.2628C22.7864 42.591 22.1065 40.6849 21.8735 38.4357C21.3159 33.0512 23.7394 30.1206 26.3052 27.0181C29.0217 23.7334 31.8306 20.3369 31.1888 14.1413ZM19.6279 38.6334C19.6969 39.3012 19.8011 39.9439 19.9411 40.5636C18.482 38.8585 17.3907 36.764 17.0742 33.7107C16.5167 28.3262 18.9403 25.3956 21.5063 22.293C24.2226 19.0083 27.0315 15.6119 26.3899 9.41635C26.3209 8.74878 26.2166 8.10618 26.0765 7.48659C27.5357 9.1917 28.6271 11.2859 28.9434 14.3391C29.501 19.7237 27.0773 22.6542 24.5115 25.7569C21.795 29.0416 18.9863 32.438 19.6279 38.6334Z" fill="black"/>
<path d="M62.1714 14.1413C61.5285 7.93339 58.0767 5.14165 54.7388 2.44171C54.3159 2.09988 53.6847 2.09725 53.2588 2.43574C52.8328 2.7741 52.7422 3.35029 53.0465 3.78627C54.2134 5.45893 54.8939 7.36511 55.1268 9.61396C55.6845 14.9984 53.2609 17.929 50.6951 21.0316C47.9786 24.3165 45.1696 27.7129 45.8113 33.9084C46.4541 40.1158 49.9048 42.9074 53.2418 45.6069C53.4546 45.779 53.7201 45.8651 53.9857 45.8651C54.2478 45.8651 54.5101 45.7812 54.7218 45.6132C55.1479 45.275 55.2386 44.6988 54.9345 44.2628C53.7689 42.591 53.089 40.6849 52.8561 38.4357C52.2984 33.0512 54.722 30.1206 57.2878 27.0181C60.0043 23.7334 62.8131 20.3369 62.1714 14.1413ZM50.6103 38.6334C50.6793 39.3012 50.7835 39.9439 50.9236 40.5636C49.4645 38.8585 48.3731 36.764 48.0567 33.7107C47.499 28.3262 49.9227 25.3956 52.4885 22.293C55.2052 19.0084 58.014 15.6121 57.3723 9.41635C57.3033 8.74878 57.1991 8.10618 57.0589 7.48659C58.5181 9.1917 59.6095 11.2859 59.9258 14.3391C60.4834 19.7237 58.0597 22.6542 55.4939 25.7569C52.7774 29.0416 49.9687 32.438 50.6103 38.6334Z" fill="black"/>
<path d="M66.9744 39.747C66.4863 39.5075 65.8819 39.6295 65.5472 40.035C65.2122 40.4406 65.2455 41.0102 65.6257 41.3803C67.1857 42.899 67.9766 44.4914 67.9766 46.1129C67.9766 49.0933 65.273 51.9973 60.3639 54.2892C55.2255 56.6884 48.2482 58.1414 40.7169 58.3807C40.0943 58.4006 39.607 58.8818 39.6285 59.4559C39.65 60.0301 40.1707 60.4857 40.7947 60.4594C57.5769 59.9264 70.2324 53.7587 70.2324 46.1129C70.2324 45.3776 70.1178 44.6536 69.89 43.9432C73.0494 46.2445 74.7441 48.8436 74.7441 51.4827C74.7441 55.4103 71.086 59.1681 64.4439 62.0642C57.5328 65.0772 48.3192 66.7366 38.5 66.7366C28.6808 66.7366 19.467 65.0771 12.5561 62.0642C5.91396 59.1681 2.25586 55.4103 2.25586 51.4827C2.25586 48.8436 3.95061 46.2446 7.11002 43.9432C6.88218 44.6536 6.76758 45.3778 6.76758 46.1129C6.76758 53.7587 19.4231 59.9263 36.2053 60.4594C36.8305 60.4848 37.35 60.0298 37.3715 59.4559C37.393 58.8819 36.9056 58.4006 36.2831 58.3807C28.7518 58.1414 21.7745 56.6884 16.6361 54.2892C11.727 51.9973 9.02344 49.0933 9.02344 46.1129C9.02344 44.4914 9.81434 42.899 11.3743 41.3803C11.7545 41.0102 11.7878 40.4406 11.4528 40.035C11.1179 39.6295 10.5137 39.5075 10.0256 39.747C3.5605 42.9191 0 47.087 0 51.4827C0 56.2598 4.11679 60.6853 11.5918 63.9444C18.7981 67.0863 28.3542 68.8166 38.5 68.8166C48.6458 68.8166 58.2019 67.0863 65.4082 63.9444C72.8832 60.6853 77 56.2598 77 51.4827C77 47.087 73.4395 42.9191 66.9744 39.747Z" fill="black"/>
</svg>
