<svg width="20" height="15" viewBox="0 0 20 15" fill="none" xmlns="http://www.w3.org/2000/svg">
<path d="M18.2422 0H1.75781C0.789766 0 0 0.753231 0 1.67832V12.8671C0 13.7891 0.78625 14.5455 1.75781 14.5455H18.2422C19.2078 14.5455 20 13.7948 20 12.8671V1.67832C20 0.756364 19.2138 0 18.2422 0ZM17.9995 1.11888L10.0373 8.72104L2.00621 1.11888H17.9995ZM1.17188 12.6355V1.90467L6.81559 7.24696L1.17188 12.6355ZM2.00051 13.4266L7.64777 8.03469L9.62656 9.90777C9.85563 10.1246 10.2253 10.1239 10.4534 9.90605L12.3828 8.06389L17.9995 13.4266H2.00051ZM18.8281 12.6354L13.2114 7.27273L18.8281 1.91V12.6354Z" fill="#434343"/>
</svg>
