<svg width="54" height="54" viewBox="0 0 54 54" fill="none" xmlns="http://www.w3.org/2000/svg">
<path d="M52.8994 17.728L47.7006 11.1922C46.7345 9.97777 45.2904 9.28125 43.7386 9.28125H5.0625C2.27106 9.28125 0 11.5523 0 14.3438V16.5586C0 17.0246 0.377789 17.4023 0.84375 17.4023C1.30971 17.4023 1.6875 17.0246 1.6875 16.5586V14.3438C1.6875 12.4828 3.2015 10.9688 5.0625 10.9688H43.7386C45.5989 10.9688 46.3653 12.2244 47.1284 13.1836H11.4863C9.4461 13.1836 7.65714 14.6319 7.23262 16.6275L6.61479 19.5312C6.03851 22.2397 8.10527 24.7852 10.8684 24.7852H52.3125V28.2656H49.5703C48.1745 28.2656 47.0391 29.4011 47.0391 30.7969C47.0391 32.1926 48.1745 33.3281 49.5703 33.3281H52.3125V33.75C52.3125 35.611 50.7985 37.125 48.9375 37.125H45.9297C45.513 33.8001 42.6704 31.2188 39.2344 31.2188C35.7983 31.2188 32.9557 33.8001 32.539 37.125H23.4141C22.9481 37.125 22.5703 37.5028 22.5703 37.9688C22.5703 38.4347 22.9481 38.8125 23.4141 38.8125H32.539C32.9557 42.1374 35.7983 44.7188 39.2344 44.7188C42.6704 44.7188 45.513 42.1374 45.9297 38.8125H48.9375C51.7289 38.8125 54 36.5414 54 33.75V20.8795C54 19.7395 53.6091 18.6203 52.8994 17.728ZM39.2344 43.0312C36.4429 43.0312 34.1719 40.7602 34.1719 37.9688C34.1719 35.1773 36.4429 32.9062 39.2344 32.9062C42.0258 32.9062 44.2969 35.1773 44.2969 37.9688C44.2969 40.7602 42.0258 43.0312 39.2344 43.0312ZM30.1641 14.8711H41.1328V23.0977H30.1641V14.8711ZM28.4766 23.0977H19.6172V14.8711H28.4766V23.0977ZM8.26527 19.8824L8.88311 16.9787C9.14298 15.7575 10.2377 14.8711 11.4863 14.8711H17.9297V23.0977H10.8684C9.17409 23.0977 7.91343 21.5366 8.26527 19.8824ZM42.8203 23.0977V14.8711H48.4706C52.76 20.2635 52.3125 19.0178 52.3125 23.0977H42.8203ZM49.5703 31.6406C49.1051 31.6406 48.7266 31.2621 48.7266 30.7969C48.7266 30.3317 49.1051 29.9531 49.5703 29.9531H52.3125V31.6406H49.5703Z" fill="#3189E4"/>
<path d="M0.521016 20.8184C1.36234 21.1693 2.0868 20.1057 1.4407 19.442C0.912094 18.9135 0 19.2882 0 20.039C0 20.3696 0.195012 20.6828 0.521016 20.8184Z" fill="#3189E4"/>
<path d="M13.7109 31.2188C10.2749 31.2188 7.43228 33.8001 7.01557 37.125H5.0625C3.2015 37.125 1.6875 35.611 1.6875 33.75V32.3789H4.11328C4.57924 32.3789 4.95703 32.0011 4.95703 31.5352C4.95703 31.0692 4.57924 30.6914 4.11328 30.6914H1.6875V29.2148H5.16797C5.63393 29.2148 6.01172 28.8371 6.01172 28.3711C6.01172 27.9051 5.63393 27.5273 5.16797 27.5273H1.6875V23.124C1.6875 22.6581 1.30971 22.2803 0.84375 22.2803C0.377789 22.2803 0 22.6581 0 23.124V33.75C0 36.5414 2.27106 38.8125 5.0625 38.8125H7.01557C7.43228 42.1374 10.2749 44.7188 13.7109 44.7188C17.4329 44.7188 20.4609 41.6907 20.4609 37.9688C20.4609 34.2468 17.4329 31.2188 13.7109 31.2188ZM13.7109 43.0312C10.9195 43.0312 8.64844 40.7602 8.64844 37.9688C8.64844 35.1773 10.9195 32.9062 13.7109 32.9062C16.5024 32.9062 18.7734 35.1773 18.7734 37.9688C18.7734 40.7602 16.5024 43.0312 13.7109 43.0312Z" fill="#3189E4"/>
<path d="M13.7109 36.2812C12.7805 36.2812 12.0234 37.0383 12.0234 37.9688C12.0234 38.8992 12.7805 39.6562 13.7109 39.6562C14.6414 39.6562 15.3984 38.8992 15.3984 37.9688C15.3984 37.0383 14.6414 36.2812 13.7109 36.2812Z" fill="#3189E4"/>
<path d="M39.2344 36.2812C38.3039 36.2812 37.5469 37.0383 37.5469 37.9688C37.5469 38.8992 38.3039 39.6562 39.2344 39.6562C40.1648 39.6562 40.9219 38.8992 40.9219 37.9688C40.9219 37.0383 40.1648 36.2812 39.2344 36.2812Z" fill="#3189E4"/>
<path d="M35.2266 29.2148H36.9141C37.38 29.2148 37.7578 28.8371 37.7578 28.3711C37.7578 27.9051 37.38 27.5273 36.9141 27.5273H35.2266C34.7606 27.5273 34.3828 27.9051 34.3828 28.3711C34.3828 28.8371 34.7606 29.2148 35.2266 29.2148Z" fill="#3189E4"/>
</svg>
