<svg width="141" height="96" viewBox="0 0 141 96" fill="none" xmlns="http://www.w3.org/2000/svg">
<g filter="url(#filter0_d)">
<path d="M20.9602 67V51.402H23.4242V59.432L30.7722 51.38H33.5002L27.3402 58.288L33.8522 67H31.1022L25.8222 59.806L23.4242 62.292V67H20.9602ZM40.0816 51.38H42.2376L48.3976 67H45.8016L44.1516 62.754H38.1236L36.4956 67H33.8776L40.0816 51.38ZM43.6676 60.928L41.1596 54.218L38.5636 60.928H43.6676ZM50.3293 67V51.38H57.1273C57.8313 51.38 58.4767 51.5267 59.0633 51.82C59.6647 52.1133 60.178 52.502 60.6033 52.986C61.0287 53.4553 61.3587 53.998 61.5933 54.614C61.8427 55.2153 61.9673 55.8313 61.9673 56.462C61.9673 56.99 61.894 57.496 61.7473 57.98C61.6007 58.464 61.3953 58.9113 61.1313 59.322C60.8673 59.7327 60.5447 60.092 60.1633 60.4C59.782 60.6933 59.364 60.9133 58.9093 61.06L62.5833 67H59.7893L56.4013 61.566H52.7933V67H50.3293ZM52.7933 59.388H57.1053C57.4573 59.388 57.7727 59.3147 58.0513 59.168C58.3447 59.0067 58.594 58.794 58.7993 58.53C59.0047 58.2513 59.166 57.936 59.2833 57.584C59.4007 57.232 59.4593 56.858 59.4593 56.462C59.4593 56.066 59.386 55.692 59.2393 55.34C59.1073 54.988 58.924 54.68 58.6893 54.416C58.4693 54.152 58.2053 53.9467 57.8973 53.8C57.604 53.6387 57.296 53.558 56.9733 53.558H52.7933V59.388ZM69.2359 51.38H71.3919L77.5519 67H74.9559L73.3059 62.754H67.2779L65.6499 67H63.0319L69.2359 51.38ZM72.8219 60.928L70.3139 54.218L67.7179 60.928H72.8219ZM79.4836 67V51.402H81.9476V59.432L89.2956 51.38H92.0236L85.8636 58.288L92.3756 67H89.6256L84.3456 59.806L81.9476 62.292V67H79.4836ZM99.6592 67.11C98.5445 67.11 97.5252 66.89 96.6012 66.45C95.6918 65.9953 94.9072 65.4013 94.2472 64.668C93.5872 63.92 93.0738 63.0693 92.7072 62.116C92.3552 61.1627 92.1792 60.1873 92.1792 59.19C92.1792 58.1487 92.3698 57.1513 92.7512 56.198C93.1325 55.2447 93.6532 54.4013 94.3132 53.668C94.9878 52.9347 95.7798 52.3553 96.6892 51.93C97.6132 51.49 98.6178 51.27 99.7032 51.27C100.818 51.27 101.83 51.5047 102.739 51.974C103.663 52.4287 104.448 53.03 105.093 53.778C105.753 54.526 106.259 55.3767 106.611 56.33C106.978 57.2687 107.161 58.2293 107.161 59.212C107.161 60.2533 106.971 61.2507 106.589 62.204C106.223 63.1573 105.702 64.0007 105.027 64.734C104.353 65.4527 103.553 66.032 102.629 66.472C101.72 66.8973 100.73 67.11 99.6592 67.11ZM94.6872 59.19C94.6872 59.9233 94.8045 60.6347 95.0392 61.324C95.2738 62.0133 95.6038 62.622 96.0292 63.15C96.4692 63.678 96.9972 64.1033 97.6132 64.426C98.2292 64.734 98.9185 64.888 99.6812 64.888C100.473 64.888 101.17 64.7267 101.771 64.404C102.387 64.0667 102.908 63.6267 103.333 63.084C103.759 62.5413 104.081 61.9327 104.301 61.258C104.521 60.5833 104.631 59.894 104.631 59.19C104.631 58.442 104.514 57.7307 104.279 57.056C104.045 56.3667 103.707 55.7653 103.267 55.252C102.842 54.724 102.321 54.306 101.705 53.998C101.104 53.6753 100.429 53.514 99.6812 53.514C98.8892 53.514 98.1852 53.6827 97.5692 54.02C96.9532 54.3427 96.4325 54.768 96.0072 55.296C95.5818 55.824 95.2518 56.4327 95.0172 57.122C94.7972 57.7967 94.6872 58.486 94.6872 59.19ZM109.712 67V51.38H112.176V64.822H120.558V67H109.712Z" fill="white"/>
</g>
<path d="M114.943 27.0763C113.585 29.1065 112.102 31.1194 111.044 32.7034C108.501 30.346 106.255 27.8076 103.773 25.4477C102.288 24.0372 100.861 22.5672 99.45 21.0799C98.8473 20.4453 98.3615 20.4601 97.7563 21.0303C96.1134 22.5796 94.468 24.1289 92.7793 25.6286C92.5072 25.8765 91.874 26.0724 91.6197 25.9311C89.102 24.5231 86.3833 22.7085 83.9902 21.293C85.3279 19.8305 86.7673 18.7051 88.2373 17.2623L90.6634 24.1487L99.1168 14.8082L111.833 27.4829L115.123 22.6986C118.31 29.404 121.402 35.9037 124.492 42.4009L124.289 42.5025L114.943 27.0763Z" fill="white"/>
<path d="M56.0028 28.0753C56.2572 31.7763 57.1447 34.8452 60.4686 36.7515L57.867 39.7262C57.1295 38.3677 56.4911 37.1927 55.7384 35.7996L49.5407 42.9661C48.3378 41.4019 47.2036 39.9393 46.082 38.4669C44.668 36.6102 44.6808 36.6151 42.776 38.0554C40.6143 39.6865 38.4348 41.2978 36.0977 42.7529L44.4341 30.1328L47.552 35.2443L56.0028 28.0753Z" fill="white"/>
<path d="M38.1706 36.2235L32.83 45.2393C32.7882 45.2669 32.7375 45.2783 32.6876 45.2715C32.6364 45.2645 32.5895 45.2399 32.5553 45.2021C32.0755 43.3925 31.594 41.5821 31.1108 39.7708C31.1042 39.7521 31.0931 39.7352 31.0785 39.7214C31.064 39.7076 31.0463 39.6974 31.0269 39.6915C31.0004 39.6859 30.9728 39.6883 30.9477 39.6985C30.9227 39.7087 30.9015 39.7262 30.887 39.7485L27.7615 45.7995C27.6172 45.7341 27.4821 45.6508 27.3597 45.5516C25.8338 43.633 24.0536 43.628 21.8995 44.5601C19.6766 45.4718 17.3651 46.1627 15 46.6225L31.6169 36.5086L33.5497 42.3737" fill="white"/>
<path d="M83.0617 22.3492C84.7911 23.3829 85.2514 23.9803 86.6348 24.8082L81.2942 31.179C77.7516 28.5043 74.3387 25.9535 70.9665 23.3556C70.4799 22.9621 70.0985 22.4594 69.8552 21.8906C69.6797 21.4865 69.8221 20.9486 69.8221 20.4726L70.346 20.314C72.1262 21.9327 75.6332 25.0859 77.4388 26.6848" fill="white"/>
<path d="M60.451 6.55353C59.2201 7.48064 60.2933 8.61102 59.9627 9.65712C58.8819 7.2972 58.5284 5.04883 59.7084 2.79055C60.4713 1.30321 62.6406 0.490128 64.5404 0.790075C66.4884 1.09498 67.6888 2.15843 67.9507 4.0771C68.1403 5.63277 68.1735 7.20275 68.0499 8.76471C67.643 6.28581 67.1751 5.84952 64.5404 5.86687C63.531 5.86284 62.5231 5.93995 61.5267 6.09741C61.1321 6.15332 60.7599 6.31076 60.4485 6.55353H60.451Z" fill="white"/>
<path d="M73.0371 25.9832C75.9922 27.8646 79.306 30.7724 81.3634 33.581C81.8054 34.1454 82.3767 34.6013 83.0317 34.9122C86.5081 36.1392 89.7634 37.7976 92.9194 39.6493C93.957 40.2591 94.0613 40.8268 93.3899 41.6845C92.8457 42.3786 92.2912 43.0653 91.5537 43.9899C91.4343 43.3952 91.3494 42.7943 91.2994 42.1902C91.2816 40.0509 90.0507 38.8239 88.0823 38.2785C86.54 37.8838 84.9771 37.5693 83.4004 37.3365C82.5714 37.1977 81.7092 37.2522 80.8725 37.1432C79.4179 36.9573 78.9931 36.3995 79.4433 35.0609C79.65 34.5411 79.6953 33.9735 79.5737 33.4287C79.4521 32.8839 79.1688 32.3861 78.7592 31.997C77.3808 30.5468 75.9821 29.114 74.5935 27.6713C74.2883 27.3589 73.3296 26.3029 73.0371 25.9832Z" fill="white"/>
<path d="M79.8627 40.7748C79.5474 42.686 78.2961 43.4768 76.7296 42.5869C74.5664 41.3759 72.4983 40.0104 70.5421 38.5016C69.0315 37.3217 67.5335 36.7466 65.5702 36.8284C62.0988 36.9746 58.8131 34.8577 57.6865 32.0268C57.6696 31.8437 57.6696 31.6595 57.6865 31.4764C59.014 33.3678 60.5679 34.5775 62.5668 35.2865C64.525 35.9831 66.2365 35.9434 67.8692 34.518C69.0798 33.4596 69.5401 33.7471 70.0869 35.2915C70.3793 36.1219 70.9515 37.0515 71.6814 37.5225C74.1457 39.0792 76.6838 40.6112 79.8627 40.7748Z" fill="white"/>
<path d="M79.0547 43.4712C81.1248 43.2234 81.3155 42.9161 81.2825 40.103C83.111 41.2604 84.9649 42.3733 86.7146 43.6125C87.0707 43.8604 87.3504 44.77 87.1597 45.0823C86.7935 45.6845 86.0763 46.4628 85.4888 46.4752C84.3354 46.4858 83.1958 46.231 82.1624 45.7316C81.0714 45.1963 80.161 44.2941 79.0547 43.4712Z" fill="white"/>
<path d="M94.5275 40.993C94.9624 41.3846 95.4303 41.6448 95.6973 41.9472C96.501 42.8593 97.5157 43.1195 98.7313 43.1121C100.606 43.1121 100.845 43.7293 100.069 45.3998C99.1229 47.4421 97.8793 47.8783 96.0559 46.7605C96.2122 46.5931 96.344 46.4054 96.4476 46.2028C96.6078 45.7393 96.7019 45.2585 96.8367 44.7826C96.2924 44.686 95.7406 44.4902 95.204 44.5348C94.7691 44.562 94.3622 44.9784 93.9324 45.0131C93.4543 45.0528 92.8159 44.7653 92.0098 44.6017C92.732 43.8581 93.2813 43.474 93.6476 42.9535C94.0138 42.433 94.1664 41.7415 94.5275 40.993Z" fill="white"/>
<path d="M72.0431 25.1106C68.9532 24.4463 67.6231 25.2048 65.8633 26.0601C66.555 22.302 69.3957 18.6457 67.585 14.3274L67.969 14.2456C68.2233 14.8926 68.6175 15.5247 68.6938 16.1915C68.8202 17.4999 68.8728 18.8141 68.8515 20.128C68.8591 22.6193 69.8764 23.1994 72.0431 25.1106Z" fill="white"/>
<path d="M60.6105 6.82028L60.5596 6.86243C62.5356 6.81284 64.5117 6.74342 66.4877 6.73846C66.714 6.73846 67.1616 7.13267 67.1311 7.26655C66.9846 8.07153 66.728 8.8537 66.3682 9.59213C66.269 9.77312 65.2797 9.79048 65.0534 9.55742C64.2523 8.7343 63.7538 8.72686 62.9502 9.61941C62.2534 10.3979 60.6614 9.79544 60.4833 8.73926C60.3791 8.12191 60.5571 7.45994 60.6105 6.82028Z" fill="white"/>
<path d="M45.834 21.5509C47.9219 18.544 50.3888 16.018 53.0362 13.6507C54.0261 12.754 55.079 11.9257 56.1871 11.1718C57.863 10.0488 59.5517 10.1554 61.0318 11.5163C61.7947 12.2253 62.3771 13.1425 63.0383 13.968L62.7332 14.2605C61.988 13.6705 61.2505 13.0706 60.5003 12.4881C58.6641 11.0676 57.7461 11.0131 55.8082 12.198C52.7005 14.1142 50.3328 16.7022 48.4712 19.7537C48.2916 20.1227 48.1493 20.508 48.0465 20.9039C47.6879 21.898 47.0827 22.1161 45.834 21.5509Z" fill="white"/>
<path d="M61.834 28.6232C63.2505 28.5712 66.5617 28.5737 69.2879 29.828C69.7304 30.0301 70.1601 30.2578 70.5748 30.5097C71.7243 31.4839 72.828 32.5077 73.9419 33.5215C74.6845 34.1933 75.3915 34.8701 76.5435 34.8527C76.8792 34.8527 77.3243 35.175 77.5481 35.4749C78.2907 36.4665 78.957 37.5175 79.875 38.876C77.7719 37.3143 75.8925 35.9583 74.0614 34.5453C73.0313 33.7534 72.0488 32.9042 71.119 32.002C69.794 30.7105 68.4843 30.0362 66.4116 30.4973C65.5066 30.341 64.6244 30.078 63.7846 29.714C63.0993 29.4135 62.446 29.0481 61.834 28.6232Z" fill="white"/>
<path d="M47.8271 22.9663C47.9136 22.6416 47.9873 22.3738 48.0687 22.0689C49.2182 22.2573 49.47 22.9985 49.4293 24.0521L48.412 24.4363C48.501 24.7957 48.6079 25.1453 48.6663 25.4997C48.8622 26.5458 48.5036 26.9648 47.4202 26.9871C45.8943 27.0143 44.2591 25.1899 44.4956 23.7273C44.6278 22.9217 45.0907 22.4383 45.9681 22.5498C46.5949 22.6564 47.2155 22.7954 47.8271 22.9663Z" fill="white"/>
<path d="M50.095 22.6193L49.0625 21.5261C49.6731 21.1288 50.3094 20.7703 50.9673 20.4527C52.5669 19.7934 53.9606 19.0224 54.5023 17.2079C54.8049 16.2014 56.2087 15.9535 57.4574 16.4642C58.6171 16.96 58.3399 17.721 58.0551 18.6208C57.8523 19.2323 57.8312 19.8871 57.994 20.5098C58.4734 22.099 58.4734 23.7891 57.994 25.3783C57.6736 26.5261 57.4269 27.6911 56.8801 28.8339C56.9895 28.0481 56.9005 27.1631 57.2438 26.4914C58.8002 23.4398 57.4803 20.5271 56.9564 17.5673C56.8242 16.8236 56.3028 16.8509 55.8349 17.188C55.4763 17.4359 55.2729 17.902 54.9448 18.2143C54.1564 18.958 53.335 19.7016 52.5237 20.423C51.7125 21.1444 50.947 21.8508 50.095 22.6193Z" fill="white"/>
<path d="M64.2152 14.486C64.0525 14.0497 63.9889 13.9655 64.0042 13.8985C64.7035 10.6908 69.2303 8.9878 71.7709 11.018C73.8054 12.6343 75.6975 14.3819 77.0759 16.6824C75.3822 16.4543 73.9428 15.195 73.602 13.7275C73.3121 12.4707 70.1484 10.2248 68.8768 10.4801C68.3155 10.638 67.8068 10.9373 67.4018 11.3477C66.3464 12.3145 65.3546 13.3507 64.2152 14.486Z" fill="white"/>
<path d="M103.727 48.3705C104.909 48.1796 105.507 47.6589 104.79 46.3548C106.158 46.3548 107.429 46.1788 108.62 46.4044C109.81 46.63 109.276 47.8126 109.342 48.5837C109.41 49.4044 108.724 49.3275 108.18 49.2358C106.735 48.9779 105.296 48.6779 103.727 48.3705Z" fill="white"/>
<path d="M96.8105 48.1545C98.7128 48.0306 99.9844 46.9894 100.488 45.3955C100.874 44.1759 101.505 44.1883 102.291 45.2468C102.375 45.3886 102.482 45.5159 102.609 45.6236C103.067 45.9235 103.88 46.0945 103.352 46.8457C102.957 47.4034 102.494 48.2165 101.92 48.2934C100.45 48.4867 98.311 48.1545 96.8105 48.1545Z" fill="white"/>
<path d="M109.978 38.2884C98.8085 31.5359 83.7836 22.3292 72.5938 15.5767C72.67 15.4602 72.8735 15.1627 73.0083 14.957C84.1218 21.7963 98.9483 31.288 110.072 38.1273C110.001 38.2463 110.059 38.1595 109.978 38.2884Z" fill="white"/>
<path d="M89.3931 47.6491C89.6474 47.4731 90.0111 47.3541 90.156 47.1136C90.9851 45.7202 91.3234 45.5839 92.9815 46.1591V48.5863H88.8184" fill="white"/>
<path d="M83.3691 46.9646C84.3158 47.0754 85.2742 46.8926 86.1083 46.4423C86.9424 45.992 87.6097 45.2969 88.0155 44.4559C89.6812 45.1451 90.3908 46.6225 89.3939 47.6488C89.0582 47.9933 87.9163 47.9661 87.0262 47.914C85.5054 47.8272 84.272 47.2968 83.3691 46.9646Z" fill="white"/>
<path d="M69.7357 11.5832C69.8095 13.249 70.753 13.844 72.1466 13.2441V15.0487C71.5922 15.0239 70.9717 15.1454 70.4987 14.9421C69.808 14.6408 69.1869 14.2066 68.6727 13.6655C68.5285 13.4788 68.4296 13.2628 68.3833 13.0335C68.3371 12.8042 68.3447 12.5677 68.4057 12.3418C68.5176 12.0344 69.1305 11.9055 69.7357 11.5832Z" fill="white"/>
<path d="M44.5399 27.0565L44.868 27.4457C44.868 27.4457 34.4538 43.8338 32.582 45.9805C34.6928 42.5497 44.5399 27.0565 44.5399 27.0565Z" fill="white"/>
<path d="M109.804 48.8536C109.816 47.7108 109.364 46.397 110.516 45.5666C110.933 45.2641 111.772 45.517 112.451 45.517L109.804 48.8536Z" fill="white"/>
<path d="M93.6749 48.7816C93.6749 47.7727 93.446 46.8853 93.7308 46.2011C94.1275 45.2542 95.1448 45.0459 96.1341 45.1649L93.6749 48.7816Z" fill="white"/>
<path d="M107.652 36.8086C108.099 36.2561 108.208 35.6138 107.896 35.374C107.584 35.1342 106.968 35.3878 106.522 35.9403C106.075 36.4929 105.966 37.1352 106.278 37.3749C106.59 37.6147 107.205 37.3612 107.652 36.8086Z" fill="white"/>
<defs>
<filter id="filter0_d" x="0.960938" y="39.27" width="139.598" height="55.84" filterUnits="userSpaceOnUse" color-interpolation-filters="sRGB">
<feFlood flood-opacity="0" result="BackgroundImageFix"/>
<feColorMatrix in="SourceAlpha" type="matrix" values="0 0 0 0 0 0 0 0 0 0 0 0 0 0 0 0 0 0 127 0"/>
<feOffset dy="8"/>
<feGaussianBlur stdDeviation="10"/>
<feColorMatrix type="matrix" values="0 0 0 0 0 0 0 0 0 0 0 0 0 0 0 0 0 0 0.25 0"/>
<feBlend mode="normal" in2="BackgroundImageFix" result="effect1_dropShadow"/>
<feBlend mode="normal" in="SourceGraphic" in2="effect1_dropShadow" result="shape"/>
</filter>
</defs>
</svg>
