<svg width="31" height="35" viewBox="0 0 31 35" fill="none" xmlns="http://www.w3.org/2000/svg">
<path d="M27.9457 24.1713C25.9859 23.9125 24.1036 23.3625 22.3626 22.5399C21.4959 22.1206 20.428 22.2162 19.7522 22.7213L15.7814 24.8689C11.9122 22.1667 9.69272 19.3459 8.06178 15.0564L11.1783 12.0206C11.957 11.4506 12.3395 10.5182 12.1734 9.57396C11.819 7.72445 11.7746 5.82711 12.0428 3.93439C12.2367 2.5671 11.242 1.30256 9.8258 1.11552L3.94733 0.339193C2.53116 0.15217 1.22128 1.11237 1.02755 2.47952C-1.19323 18.1516 10.2071 32.6456 26.441 34.7895C27.8573 34.9765 29.1672 34.0163 29.3609 32.6491L30.1628 26.99C30.3565 25.6229 29.3618 24.3583 27.9457 24.1713ZM27.5825 32.4143C27.5229 32.8351 27.1202 33.1303 26.6843 33.0728C11.4307 31.0583 0.719236 17.44 2.80589 2.71445C2.86552 2.29366 3.26826 1.99844 3.70413 2.056L9.58261 2.83233C10.0185 2.8899 10.3243 3.27869 10.2647 3.69948C9.97044 5.77583 10.0194 7.85824 10.4067 9.87604C10.4583 10.1732 10.3418 10.4584 10.0006 10.7191L6.39037 14.2233C6.1483 14.4586 6.06635 14.8056 6.17861 15.1184C8.00249 20.1815 10.6191 23.5082 15.211 26.603C15.4899 26.7943 15.8626 26.8112 16.1635 26.6485L20.7336 24.1668C20.9714 23.9924 21.2952 23.9617 21.5651 24.0921C23.4877 25.0001 25.5524 25.6042 27.7024 25.8881C28.1383 25.9457 28.4441 26.3345 28.3845 26.7553L27.5825 32.4143Z" fill="#686868"/>
</svg>
