<svg width="50" height="50" viewBox="0 0 50 50" fill="none" xmlns="http://www.w3.org/2000/svg">
<path d="M19.5 2C11.5047 2 5 8.62386 5 16.7656C5 19.5165 5.74828 22.201 7.16445 24.53L18.6746 43.4183C18.8951 43.7802 19.2835 44 19.7013 44C19.7045 44 19.7077 44 19.7109 44C20.1323 43.9966 20.5215 43.77 20.738 43.4018L31.9548 24.3305C33.2928 22.0507 34 19.4348 34 16.7656C34 8.62386 27.4953 2 19.5 2ZM29.8809 23.0671L19.683 40.4059L9.21845 23.2335C8.03968 21.2949 7.40056 19.0584 7.40056 16.7656C7.40056 9.98082 12.8373 4.44453 19.5 4.44453C26.1628 4.44453 31.5914 9.98082 31.5914 16.7656C31.5914 18.9904 30.9944 21.1697 29.8809 23.0671Z" fill="#686868" stroke="#F7F7F8" stroke-width="0.5"/>
<path d="M19.5781 9.69971C15.602 9.69971 12.3672 12.9345 12.3672 16.9106C12.3672 20.8614 15.5494 24.1216 19.5781 24.1216C23.6566 24.1216 26.7891 20.8179 26.7891 16.9106C26.7891 12.9345 23.5542 9.69971 19.5781 9.69971ZM19.5781 21.734C16.9135 21.734 14.7548 19.568 14.7548 16.9106C14.7548 14.2599 16.9274 12.0873 19.5781 12.0873C22.2289 12.0873 24.3934 14.2599 24.3934 16.9106C24.3934 19.5293 22.285 21.734 19.5781 21.734Z" fill="#686868" stroke="#F7F6F8" stroke-width="0.5"/>
</svg>
