<svg width="50" height="40" viewBox="0 0 50 40" fill="none" xmlns="http://www.w3.org/2000/svg">
<path d="M35.7382 14.5868H33.9488C33.4855 14.5868 33.1099 14.9695 33.1099 15.4416C33.1099 15.9136 33.4854 16.2963 33.9488 16.2963H35.7382C36.2015 16.2963 36.5771 15.9137 36.5771 15.4416C36.577 14.9695 36.2015 14.5868 35.7382 14.5868Z" fill="#3189E4"/>
<path d="M35.9587 21.6479C35.6278 21.2162 35.1297 20.9686 34.5921 20.9686H15.4078C14.8702 20.9686 14.3722 21.2162 14.0412 21.6479C13.7104 22.0797 13.5953 22.632 13.7258 23.1634L14.1732 24.9869C14.3666 25.7746 15.0583 26.3248 15.8553 26.3248H34.1447C34.9417 26.3248 35.6333 25.7746 35.8268 24.9868L36.2742 23.1634C36.4046 22.6319 36.2896 22.0796 35.9587 21.6479ZM34.6464 22.7489L34.1989 24.5722C34.1927 24.5978 34.1704 24.6154 34.1447 24.6154H15.8553C15.8296 24.6154 15.8071 24.5976 15.801 24.5723L15.3535 22.7489C15.3515 22.7409 15.3469 22.722 15.3637 22.7001C15.3805 22.6782 15.3996 22.6782 15.4077 22.6782H34.5921C34.6003 22.6782 34.6193 22.6782 34.6361 22.7001C34.6529 22.722 34.6484 22.7408 34.6464 22.7489Z" fill="#3189E4"/>
<path d="M47.3714 16.2962C48.8208 16.2962 50 15.0949 50 13.6182C50 12.1415 48.8208 10.9401 47.3714 10.9401H46.4766C45.1696 10.9401 44.0827 11.9172 43.8815 13.1918L41.6436 6.92142C41.1392 5.50792 39.8084 4.55836 38.3322 4.55836H31.9517L31.4794 2.15293C31.2347 0.905385 30.1505 0 28.9019 0H21.0979C19.8493 0 18.7653 0.905385 18.5204 2.15293L18.0482 4.55836H11.6677C10.1915 4.55836 8.86074 5.50802 8.35635 6.92132L6.11846 13.1917C5.91738 11.9172 4.83047 10.9401 3.52354 10.9401H2.62871C1.1792 10.9401 0 12.1415 0 13.6182C0 15.0949 1.1792 16.2962 2.62861 16.2962H3.52344C3.93662 16.2962 4.32764 16.1983 4.67588 16.0245L2.75791 18.4672C2.1335 19.2623 1.78965 20.2609 1.78965 21.2791V38.2336C1.78965 39.2076 2.56738 40 3.52344 40H6.20801C7.16406 40 7.9418 39.2076 7.9418 38.2336V34.5299H42.0581V38.2336C42.0581 39.2076 42.8358 40 43.7919 40H46.4765C47.4325 40 48.2103 39.2076 48.2103 38.2336V21.2791C48.2103 20.2609 47.8664 19.2622 47.242 18.4672L45.324 16.0245C45.6723 16.1983 46.0633 16.2962 46.4765 16.2962H47.3714ZM3.52354 14.5868H2.62871C2.10439 14.5868 1.67793 14.1524 1.67793 13.6182C1.67793 13.084 2.10439 12.6495 2.62871 12.6495H3.52354C4.04785 12.6495 4.47432 13.084 4.47432 13.6182C4.47432 14.1523 4.04775 14.5868 3.52354 14.5868ZM20.1657 2.48802C20.2543 2.03682 20.6464 1.70929 21.0979 1.70929H28.9019C29.3535 1.70929 29.7456 2.03682 29.8341 2.48802L30.2405 4.55836H19.7593L20.1657 2.48802ZM6.26396 38.2336C6.26396 38.265 6.23887 38.2906 6.20801 38.2906H3.52344C3.49258 38.2906 3.46748 38.265 3.46748 38.2336V33.9964C4.00459 34.3343 4.63682 34.5299 5.31309 34.5299H6.26387L6.26396 38.2336ZM15.1007 32.8205V30.9402C15.1007 30.9087 15.1258 30.8832 15.1566 30.8832H34.8435C34.8743 30.8832 34.8994 30.9087 34.8994 30.9402V32.8205H15.1007ZM46.5324 38.2336C46.5324 38.265 46.5073 38.2906 46.4765 38.2906H43.7919C43.761 38.2906 43.7359 38.265 43.7359 38.2336V34.5299H44.6867C45.363 34.5299 45.9952 34.3343 46.5323 33.9964V38.2336H46.5324ZM45.932 19.535C46.3191 20.0282 46.5325 20.6476 46.5325 21.2792V30.9402C46.5325 31.977 45.7046 32.8205 44.6869 32.8205H36.5771V30.9402C36.5771 29.9661 35.7994 29.1738 34.8434 29.1738H15.1566C14.2006 29.1738 13.4229 29.9661 13.4229 30.9402V32.8205H5.31318C4.29551 32.8205 3.46758 31.977 3.46758 30.9402V21.2792C3.46758 20.6476 3.68086 20.0282 4.06816 19.535L6.61123 16.2962H30.3691C30.8324 16.2962 31.2081 15.9136 31.2081 15.4415C31.2081 14.9695 30.8325 14.5867 30.3691 14.5867H7.40586L9.9334 7.50534C10.1976 6.76502 10.8946 6.26765 11.6679 6.26765H38.3323C39.1056 6.26765 39.8025 6.76512 40.0668 7.50534L42.5943 14.5867H39.3179C38.8546 14.5867 38.4789 14.9694 38.4789 15.4415C38.4789 15.9135 38.8545 16.2962 39.3179 16.2962H43.389L45.932 19.535ZM45.5257 13.6182C45.5257 13.084 45.9521 12.6495 46.4765 12.6495H47.3713C47.8956 12.6495 48.3221 13.084 48.3221 13.6182C48.3221 14.1524 47.8956 14.5868 47.3713 14.5868H46.4765C45.9522 14.5868 45.5257 14.1523 45.5257 13.6182Z" fill="#3189E4"/>
<path d="M8.89258 27.3504C7.93652 27.3504 7.15879 28.1427 7.15879 29.1168C7.15879 30.0908 7.93652 30.8832 8.89258 30.8832C9.84863 30.8832 10.6264 30.0908 10.6264 29.1168C10.6264 28.1427 9.84863 27.3504 8.89258 27.3504Z" fill="#3189E4"/>
<path d="M41.1074 27.3504C40.1514 27.3504 39.3736 28.1427 39.3736 29.1168C39.3736 30.0908 40.1514 30.8832 41.1074 30.8832C42.0635 30.8832 42.8412 30.0908 42.8412 29.1168C42.8412 28.1427 42.0634 27.3504 41.1074 27.3504Z" fill="#3189E4"/>
<path d="M8.44521 20.057C6.74902 20.057 5.36914 21.4628 5.36914 23.1909C5.36914 24.919 6.74902 26.3248 8.44521 26.3248C10.1414 26.3248 11.5213 24.919 11.5213 23.1909C11.5213 21.4628 10.1414 20.057 8.44521 20.057ZM8.44521 24.6153C7.67422 24.6153 7.04697 23.9764 7.04697 23.1908C7.04697 22.4052 7.67412 21.7662 8.44521 21.7662C9.21631 21.7662 9.84346 22.4052 9.84346 23.1908C9.84346 23.9764 9.21621 24.6153 8.44521 24.6153Z" fill="#3189E4"/>
<path d="M41.5548 20.057C39.8586 20.057 38.4787 21.4628 38.4787 23.1909C38.4787 24.919 39.8586 26.3248 41.5548 26.3248C43.251 26.3248 44.6309 24.919 44.6309 23.1909C44.6309 21.4628 43.251 20.057 41.5548 20.057ZM41.5548 24.6153C40.7838 24.6153 40.1565 23.9764 40.1565 23.1908C40.1565 22.4052 40.7837 21.7662 41.5548 21.7662C42.3258 21.7662 42.953 22.4052 42.953 23.1908C42.953 23.9764 42.3259 24.6153 41.5548 24.6153Z" fill="#3189E4"/>
</svg>
