<svg width="38" height="38" viewBox="0 0 38 38" fill="none" xmlns="http://www.w3.org/2000/svg">
<path d="M13.8372 27.5728C15.3824 28.5027 17.1493 28.9928 18.9646 28.9928C24.4655 28.9928 29 24.504 29 18.9963C29 13.4951 24.472 9 18.9646 9C13.474 9 9.00717 13.4844 9.00717 18.9963C9.00717 20.8359 9.49744 22.6162 10.4272 24.1627L9 29L13.8372 27.5728ZM10.1787 18.9963C10.1787 14.1303 14.1201 10.1714 18.9646 10.1714C23.8521 10.1714 27.8286 14.1303 27.8286 18.9963C27.8286 23.8625 23.8521 27.8213 18.9646 27.8213C17.2828 27.8213 15.6484 27.3449 14.2386 26.4434L14.0134 26.2995L10.7326 27.2675L11.7005 23.9866L11.5566 23.7615C10.6551 22.3514 10.1787 20.7038 10.1787 18.9963Z" fill="#434343"/>
<path d="M14.128 17.6304C14.309 18.668 14.8465 20.6635 16.4113 22.3711C17.9762 24.0786 19.805 24.6652 20.756 24.8627C21.8449 25.089 23.4429 25.1231 24.2238 24.271L24.6592 23.7959C24.8789 23.5561 25 23.2372 25 22.898C25 22.5588 24.8789 22.24 24.6592 22.0002L22.9181 20.1005C22.6982 19.8605 22.4061 19.7285 22.0952 19.7285C21.7844 19.7285 21.4922 19.8605 21.2723 20.1005L20.8371 20.5754C20.5712 20.8655 20.0693 20.8667 19.8015 20.5789L18.0648 18.6045C18.0623 18.6016 18.0597 18.5986 18.057 18.5958C17.7907 18.3052 17.7907 17.8324 18.057 17.5418L18.4922 17.0669C18.9471 16.5705 18.9471 15.7673 18.4922 15.271L16.7512 13.3713C16.2975 12.8762 15.5593 12.8762 15.1055 13.3713L14.6703 13.8463V13.8462C14.047 14.5264 13.8393 15.9764 14.128 17.6304ZM15.4455 14.6922C15.9024 14.205 15.878 14.1956 15.9284 14.1956C15.9457 14.1956 15.963 14.2028 15.9761 14.2171C17.8107 16.2297 17.737 16.1115 17.737 16.1691C17.737 16.1892 17.7303 16.2068 17.7173 16.2211L17.2819 16.696C16.5887 17.4525 16.586 18.677 17.2775 19.4369L19.0151 21.4125C19.0178 21.4153 19.0204 21.4183 19.0231 21.4212C19.7162 22.1775 20.9169 22.18 21.6123 21.4212L22.0475 20.9463C22.0738 20.9177 22.1166 20.9177 22.1429 20.9463C23.9775 22.9588 23.9038 22.8405 23.9038 22.8982C23.9038 22.9184 23.8971 22.9359 23.8841 22.9502L23.4487 23.4251C23.1504 23.7506 22.2003 23.9453 20.9611 23.6878C20.134 23.5158 18.5438 23.0063 17.1865 21.5253C15.8293 20.0444 15.3624 18.3091 15.2049 17.4067C14.9687 16.0544 15.1472 15.0175 15.4455 14.6922Z" fill="#434343"/>
</svg>
